G04 ================== begin FILE IDENTIFICATION RECORD ==================*
G04 Layout Name:  pc069c_toplevel_25.brd*
G04 Film Name:    art_L5_PWR_pc069c*
G04 File Format:  Gerber RS274X*
G04 File Origin:  Cadence Allegro 24.1-P001*
G04 Origin Date:  Thu Feb  6 11:32:19 2025*
G04 *
G04 Layer:  VIA CLASS/L5_PWR*
G04 Layer:  PIN/L5_PWR*
G04 Layer:  ETCH/L5_PWR*
G04 *
G04 Offset:    (0.0000 0.0000)*
G04 Mirror:    No*
G04 Mode:      Positive*
G04 Rotation:  0*
G04 FullContactRelief:  No*
G04 UndefLineWidth:     0.2540*
G04 ================== end FILE IDENTIFICATION RECORD ====================*
%FSLAX25Y25*MOMM*%
%IR0*IPPOS*OFA0.00000B0.00000*MIA0B0*SFA1.00000B1.00000*%
%ADD10C,.6*%
%ADD18C,1.*%
%ADD13C,1.2*%
%ADD15C,1.6*%
%ADD16C,1.7*%
%ADD12C,3.302*%
%ADD17C,1.524*%
%ADD11C,1.75*%
%ADD14C,1.397*%
%ADD19C,.1*%
%ADD20C,.4*%
%ADD27C,2.2044*%
%ADD23C,1.0544*%
%ADD28C,2.0544*%
%ADD30C,2.0068*%
%ADD21C,2.1544*%
%ADD25C,1.8514*%
%ADD26C,1.6544*%
%ADD24C,1.9068*%
%ADD22C,3.7564*%
%ADD29C,1.9784*%
G75*
%LPD*%
G75*
G36*
G01X-828680Y6536490D02*
X1026490D01*
Y-63500D01*
X330200D01*
Y-236490D01*
X-4276490D01*
Y-140000D01*
G03X-4440000Y23510I-163510J0D01*
G01X-5346490D01*
Y70000D01*
G03X-5396500Y187700I-163510J0D01*
G02X-5393070Y204510I7049J7317D01*
G03X-5272180Y380000I-66930J175490D01*
G03X-5647820I-187820J0D01*
G03X-5596190Y250670I187817J8D01*
G02X-5603560Y233510I-7368J-6998D01*
G01X-6490000D01*
Y6206490D01*
X-5608350D01*
G02X-5601510Y6188820I-3J-10160D01*
G03X-5662820Y6050000I126505J-138820D01*
G03X-5287180I187820J0D01*
G03X-5348490Y6188820I-187815J0D01*
G02X-5341650Y6206490I6843J7510D01*
G01X-3950000D01*
G03X-3786490Y6370000I0J163510D01*
G01Y6536490D01*
X-1111320D01*
G02X-1103030Y6520460I-2J-10160D01*
G03X-1112720Y6490000I43030J-30460D01*
G03X-1060000Y6437280I52720J0D01*
G03X-1018080Y6458030I0J52719D01*
G02X-1001920I8080J-6159D01*
G03X-960000Y6437280I41920J31969D01*
G03X-923520Y6451940I0J52718D01*
G02X-916480I3520J-3663D01*
G03X-880000Y6437280I36480J38058D01*
G03X-827280Y6490000I0J52720D01*
G03X-836970Y6520460I-52720J0D01*
G02X-828680Y6536490I8292J5870D01*
G37*
%LPC*%
G75*
G36*
G01X-3026980Y1651630D02*
G03X-3013010Y1658330I4144J9274D01*
G02X-2962000Y1697720I51010J-13334D01*
G02Y1592280I0J-52720D01*
G02X-2983520Y1596870I-5J52721D01*
G03X-2997490Y1590170I-4144J-9274D01*
G02X-3048500Y1550780I-51010J13334D01*
G02Y1656220I0J52720D01*
G02X-3026980Y1651630I5J-52721D01*
G37*
G36*
G01X-3565700Y1807000D02*
G03X-3557290Y1818310I-1668J10022D01*
G02X-3557720Y1825000I52288J6720D01*
G02X-3452280I52720J0D01*
G02X-3496300Y1773000I-52723J0D01*
G03X-3504710Y1761690I1668J-10022D01*
G02X-3504280Y1755000I-52288J-6720D01*
G02X-3609720I-52720J0D01*
G02X-3565700Y1807000I52723J0D01*
G37*
G36*
G01X-3605150Y2261370D02*
G03X-3592710Y2271070I2282J9900D01*
G02X-3540000Y2322720I52710J-1071D01*
G02Y2217280I0J-52720D01*
G02X-3551850Y2218630I4J52720D01*
G03X-3564290Y2208930I-2282J-9900D01*
G02X-3617000Y2157280I-52710J1071D01*
G02Y2262720I0J52720D01*
G02X-3605150Y2261370I-4J-52720D01*
G37*
G36*
G01X-3267790Y2616280D02*
G03X-3268110Y2632440I-6318J7958D01*
G02X-3289720Y2675000I31105J42560D01*
G02X-3184280I52720J0D01*
G02X-3204210Y2633720I-52716J0D01*
G03X-3203890Y2617560I6318J-7958D01*
G02X-3182280Y2575000I-31105J-42560D01*
G02X-3287720I-52720J0D01*
G02X-3267790Y2616280I52716J0D01*
G37*
G36*
G01X-4259550Y3504710D02*
G03X-4255180Y3520870I-3376J9584D01*
G02X-4267720Y3555000I40176J34130D01*
G02X-4162280I52720J0D01*
G02X-4197450Y3505290I-52716J0D01*
G03X-4201820Y3489130I3376J-9584D01*
G02X-4189280Y3455000I-40176J-34130D01*
G02X-4294720I-52720J0D01*
G02X-4259550Y3504710I52716J0D01*
G37*
G36*
G01X-2052660Y4087510D02*
G03X-2057490Y4092340I-5075J-245D01*
G02X-2107720Y4145000I2489J52660D01*
G02X-2055000Y4197720I52720J0D01*
G02X-2002340Y4147490I0J-52719D01*
G03X-1997510Y4142660I5075J245D01*
G02X-1947280Y4090000I-2489J-52660D01*
G02X-2000000Y4037280I-52720J0D01*
G02X-2052660Y4087510I0J52719D01*
G37*
G36*
G01X-1808590Y4211850D02*
G03X-1815620Y4211870I-3525J-3658D01*
G02X-1852000Y4197310I-36380J38170D01*
G02Y4302750I0J52720D01*
G02X-1815410Y4287980I0J-52708D01*
G03X-1808380Y4287960I3525J3658D01*
G02X-1772000Y4302520I36380J-38170D01*
G02Y4197080I0J-52720D01*
G02X-1808590Y4211850I0J52708D01*
G37*
G36*
G01X-1891970Y4471920D02*
G03Y4488080I-6159J8080D01*
G02X-1912720Y4530000I31969J41920D01*
G02X-1860000Y4582720I52720J0D01*
G02X-1818080Y4561970I0J-52719D01*
G03X-1801920I8080J6159D01*
G02X-1760000Y4582720I41920J-31969D01*
G02X-1707280Y4530000I0J-52720D01*
G02X-1728030Y4488080I-52719J0D01*
G03Y4471920I6159J-8080D01*
G02X-1707280Y4430000I-31969J-41920D01*
G02X-1760000Y4377280I-52720J0D01*
G02X-1801920Y4398030I0J52719D01*
G03X-1818080I-8080J-6159D01*
G02X-1860000Y4377280I-41920J31969D01*
G02X-1912720Y4430000I0J52720D01*
G02X-1891970Y4471920I52719J0D01*
G37*
G36*
G01X-1806020Y4680990D02*
G03X-1822980I-8480J-5596D01*
G02X-1867000Y4657280I-44020J29009D01*
G02Y4762720I0J52720D01*
G02X-1822980Y4739010I0J-52719D01*
G03X-1806020I8480J5596D01*
G02X-1762000Y4762720I44020J-29009D01*
G02Y4657280I0J-52720D01*
G02X-1806020Y4680990I0J52719D01*
G37*
G36*
G01X-2139670Y4704230D02*
G03X-2145230Y4719530I-8493J5574D01*
G02X-2182720Y4770000I15227J50470D01*
G02X-2077280I52720J0D01*
G02X-2085920Y4741070I-52723J-9D01*
G03X-2080360Y4725770I8493J-5574D01*
G02X-2042870Y4675300I-15227J-50470D01*
G02X-2148310I-52720J0D01*
G02X-2139670Y4704230I52723J9D01*
G37*
G36*
G01X-1041290Y4848500D02*
G03X-1029460Y4859000I1683J10018D01*
G02X-1029520Y4861500I52660J2515D01*
G02X-976800Y4808780I52720J0D01*
G02X-985510Y4809500I-27J52722D01*
G03X-997340Y4799000I-1683J-10018D01*
G02X-997280Y4796500I-52660J-2515D01*
G02X-997440Y4792380I-52721J-16D01*
G03X-989360Y4781640I10127J-791D01*
G02X-947280Y4730000I-10646J-51640D01*
G02X-1052720I-52720J0D01*
G02X-1052560Y4734120I52721J16D01*
G03X-1060640Y4744860I-10127J791D01*
G02X-1102720Y4796500I10646J51640D01*
G02X-1050000Y4849220I52720J0D01*
G02X-1041290Y4848500I27J-52722D01*
G37*
G36*
G01X-353240Y5029080D02*
G03X-370030Y5029180I-8429J-5674D01*
G02X-413400Y5006440I-43370J29988D01*
G02Y5111880I0J52720D01*
G02X-369660Y5088580I-6J-52717D01*
G03X-352870Y5088480I8429J5674D01*
G02X-309500Y5111220I43370J-29988D01*
G02Y5005780I0J-52720D01*
G02X-353240Y5029080I6J52717D01*
G37*
G36*
G01X-2278070Y4992540D02*
G03X-2284710Y4989740I-1930J-4697D01*
G02X-2380000Y4925380I-95290J38362D01*
G02Y5130820I0J102720D01*
G02X-2295120Y5085950I0J-102718D01*
G03X-2288030Y5084640I4195J2864D01*
G02X-2258010Y5094020I30020J-43348D01*
G02Y4988580I0J-52720D01*
G02X-2278070Y4992540I-13J52723D01*
G37*
G36*
G01X-3089230Y5044860D02*
G03X-3102950Y5055840I-10048J1507D01*
G02X-3122000Y5052280I-19045J49161D01*
G02Y5157720I0J52720D01*
G02X-3070020Y5113800I0J-52720D01*
G03X-3053570Y5107640I10015J1700D01*
G02X-2990000Y5130340I63563J-77642D01*
G02X-3090340Y5030000I0J-100340D01*
G02X-3089230Y5044860I100338J-24D01*
G37*
G36*
G01X-1172430Y5439490D02*
G03X-1184260Y5448440I-10103J-1061D01*
G02X-1193200Y5447680I-8920J51962D01*
G02Y5553120I0J52720D01*
G02X-1140770Y5505910I0J-52719D01*
G03X-1128940Y5496960I10103J1061D01*
G02X-1120000Y5497720I8920J-51962D01*
G02Y5392280I0J-52720D01*
G02X-1172430Y5439490I0J52719D01*
G37*
G36*
G01X-3824760Y5836720D02*
G03X-3812650Y5847220I1967J9965D01*
G02X-3812720Y5850000I52652J2717D01*
G02X-3760000Y5797280I52720J0D01*
G02X-3770240Y5798280I-20J52722D01*
G03X-3782350Y5787780I-1967J-9965D01*
G02X-3782280Y5785000I-52652J-2717D01*
G02X-3835000Y5837720I-52720J0D01*
G02X-3824760Y5836720I20J-52722D01*
G37*
G36*
G01X-1001920Y5870730D02*
G03X-1018080I-8080J-6159D01*
G02X-1060000Y5849980I-41920J31969D01*
G02Y5955420I0J52720D01*
G02X-1018080Y5934670I0J-52719D01*
G03X-1001920I8080J6159D01*
G02X-960000Y5955420I41920J-31969D01*
G02X-922230Y5939480I0J-52718D01*
G03X-915200Y5939250I3635J3548D01*
G02X-880000Y5952720I35200J-39258D01*
G02Y5847280I0J-52720D01*
G02X-917770Y5863220I0J52718D01*
G03X-924800Y5863450I-3635J-3548D01*
G02X-960000Y5849980I-35200J39258D01*
G02X-1001920Y5870730I0J52719D01*
G37*
G36*
G01X-1572150Y5912750D02*
G03X-1576100Y5918460I-5023J746D01*
G02X-1617720Y5970000I11102J51540D01*
G02X-1512280I52720J0D01*
G02X-1512850Y5962250I-52721J-18D01*
G03X-1508900Y5956540I5023J-746D01*
G02X-1467280Y5905000I-11102J-51540D01*
G02X-1572720I-52720J0D01*
G02X-1572150Y5912750I52721J18D01*
G37*
G36*
G01X-1145960Y6052330D02*
G03X-1152840Y6051490I-2989J-4110D01*
G02X-1193200Y6032680I-40366J33907D01*
G02Y6138120I0J52720D01*
G02X-1162240Y6128070I0J-52713D01*
G03X-1155360Y6128910I2989J4110D01*
G02X-1115000Y6147720I40366J-33907D01*
G02Y6042280I0J-52720D01*
G02X-1145960Y6052330I0J52713D01*
G37*
G36*
G01X-3649520Y647280D02*
X-3650000D01*
G02X-3597280Y700000I0J52720D01*
G02X-3602440Y677260I-52718J7D01*
G03X-3593180Y662720I9167J-4380D01*
G01X-3592700D01*
G02X-3645420Y610000I0J-52720D01*
G02X-3640260Y632740I52718J-7D01*
G03X-3649520Y647280I-9167J4380D01*
G37*
G36*
G01X-4113890Y1446450D02*
G02X-4160000Y1419280I-46110J25541D01*
G02Y1524720I0J52720D01*
G02X-4113890Y1497550I0J-52711D01*
G03X-4096110I8890J4927D01*
G02X-4050000Y1524720I46110J-25541D01*
G02Y1419280I0J-52720D01*
G02X-4096110Y1446450I0J52711D01*
G03X-4113890I-8890J-4927D01*
G37*
G36*
G01X-5552840Y1457490D02*
G02X-5629720Y1540000I5836J82510D01*
G02X-5464280I82720J0D01*
G02X-5500670Y1471470I-82723J0D01*
G03X-5497400Y1453190I5695J-8414D01*
G02X-5457280Y1402000I-12597J-51190D01*
G02X-5562720I-52720J0D01*
G02X-5546520Y1440020I52715J0D01*
G03X-5552840Y1457490I-7034J7334D01*
G37*
G36*
G01X-2158360Y1999900D02*
G02X-2159440Y2010500I51638J10616D01*
G02X-2106720Y2063220I52720J0D01*
G02X-2058660Y2032170I0J-52719D01*
G03X-2040140I9260J4181D01*
G02X-1992080Y2063220I48060J-21669D01*
G02Y1957780I0J-52720D01*
G02X-2040140Y1988830I0J52719D01*
G03X-2058660I-9260J-4181D01*
G02X-2106720Y1957780I-48060J21669D01*
G02X-2108130Y1957800I43J52719D01*
G03X-2118360Y1945600I-276J-10157D01*
G02X-2117280Y1935000I-51638J-10616D01*
G02X-2170000Y1987720I-52720J0D01*
G02X-2168590Y1987700I-43J-52719D01*
G03X-2158360Y1999900I276J10157D01*
G37*
G36*
G01X-3340700Y1968970D02*
G02X-3367720Y2015000I25697J46030D01*
G02X-3262280I52720J0D01*
G02X-3289300Y1968970I-52717J0D01*
G03Y1951230I4957J-8870D01*
G02X-3262280Y1905200I-25697J-46030D01*
G02X-3367720I-52720J0D01*
G02X-3340700Y1951230I52717J0D01*
G03Y1968970I-4957J8870D01*
G37*
G36*
G01X-2620500Y2032570D02*
G02X-2667720Y2085000I5497J52430D01*
G02X-2562280I52720J0D01*
G02X-2567570Y2061970I-52723J-12D01*
G03X-2559500Y2047430I9138J-4438D01*
G02X-2522240Y2025830I-5503J-52430D01*
G03X-2506400Y2025030I8240J5945D01*
G02X-2467000Y2042720I39400J-35032D01*
G02Y1937280I0J-52720D01*
G02X-2509760Y1959170I0J52709D01*
G03X-2525600Y1959970I-8240J-5945D01*
G02X-2548350Y1944980I-39396J35033D01*
G03X-2549970Y1926400I3208J-9640D01*
G02X-2522280Y1880000I-25031J-46400D01*
G02X-2627720I-52720J0D01*
G02X-2591650Y1930020I52718J0D01*
G03X-2590030Y1948600I-3208J9640D01*
G02X-2617720Y1995000I25031J46400D01*
G02X-2612430Y2018030I52723J12D01*
G03X-2620500Y2032570I-9138J4438D01*
G37*
G36*
G01X-5384210Y2808620D02*
G02X-5400700Y2805980I-16474J50082D01*
G02X-5347980Y2858700I0J52720D01*
G02X-5350620Y2842210I-52722J-16D01*
G03X-5337800Y2829390I9648J-3172D01*
G02X-5321310Y2832030I16474J-50082D01*
G02X-5374030Y2779310I0J-52720D01*
G02X-5371390Y2795800I52722J16D01*
G03X-5384210Y2808620I-9648J3172D01*
G37*
G36*
G01X-4932510Y3146030D02*
G02X-4949720Y3185000I35516J38970D01*
G02X-4844280I52720J0D01*
G02X-4886640Y3133310I-52717J0D01*
G03X-4891480Y3115840I2003J-9960D01*
G02X-4874270Y3076870I-35516J-38970D01*
G02X-4979710I-52720J0D01*
G02X-4937350Y3128560I52717J0D01*
G03X-4932510Y3146030I-2003J9960D01*
G37*
G36*
G01X-615050Y3462610D02*
G02X-622720Y3490000I45051J27385D01*
G02X-570000Y3437280I52720J0D01*
G02X-576940Y3437740I9J52719D01*
G03X-586950Y3422390I-1330J-10072D01*
G02X-579280Y3395000I-45051J-27385D01*
G02X-632000Y3447720I-52720J0D01*
G02X-625060Y3447260I-9J-52719D01*
G03X-615050Y3462610I1330J10072D01*
G37*
G36*
G01X-3234500Y3598570D02*
G03X-3221090Y3604230I3949J9361D01*
G02X-3172000Y3637720I49090J-19233D01*
G02X-3126320Y3611320I0J-52720D01*
G03X-3108760Y3611250I8800J5074D01*
G02X-3063290Y3637280I45470J-26699D01*
G02Y3531840I0J-52720D01*
G02X-3108970Y3558240I0J52720D01*
G03X-3126530Y3558310I-8800J-5074D01*
G02X-3172000Y3532280I-45470J26699D01*
G02X-3192500Y3536430I0J52708D01*
G03X-3205910Y3530770I-3949J-9361D01*
G02X-3255000Y3497280I-49090J19233D01*
G02Y3602720I0J52720D01*
G02X-3234500Y3598570I0J-52708D01*
G37*
G36*
G01X-4644810Y3629270D02*
G02X-4672720Y3675790I24814J46520D01*
G02X-4567280I52720J0D01*
G02X-4595190Y3629270I-52724J0D01*
G03Y3611350I4784J-8960D01*
G02X-4567280Y3564830I-24814J-46520D01*
G02X-4604050Y3514580I-52721J0D01*
G03X-4608090Y3497640I3073J-9685D01*
G02X-4592280Y3460000I-36901J-37640D01*
G02X-4697720I-52720J0D01*
G02X-4660950Y3510250I52721J0D01*
G03X-4656910Y3527190I-3073J9685D01*
G02X-4672720Y3564830I36901J37640D01*
G02X-4644810Y3611350I52724J0D01*
G03Y3629270I-4784J8960D01*
G37*
G36*
G01X-1181200Y3835610D02*
G02X-1197690Y3832970I-16474J50082D01*
G02X-1144970Y3885690I0J52720D01*
G02X-1147610Y3869200I-52722J-16D01*
G03X-1134790Y3856380I9648J-3172D01*
G02X-1118300Y3859020I16474J-50082D01*
G02X-1065580Y3806300I0J-52720D01*
G02X-1108520Y3754500I-52714J0D01*
G03X-1114830Y3738510I1886J-9984D01*
G02X-1104660Y3707380I-42559J-31130D01*
G02X-1210100I-52720J0D01*
G02X-1167160Y3759180I52714J0D01*
G03X-1160850Y3775170I-1886J9984D01*
G02X-1171020Y3806300I42559J31130D01*
G02X-1168380Y3822790I52722J16D01*
G03X-1181200Y3835610I-9648J3172D01*
G37*
G36*
G01X-1610320Y4118060D02*
G02X-1617720Y4145000I45321J26935D01*
G02X-1565000Y4092280I52720J0D01*
G02X-1565790Y4092290I272J52717D01*
G03X-1574680Y4076940I-156J-10159D01*
G02X-1567280Y4050000I-45321J-26935D01*
G02X-1620000Y4102720I-52720J0D01*
G02X-1619210Y4102710I-272J-52717D01*
G03X-1610320Y4118060I156J10159D01*
G37*
G36*
G01X-3855550Y4483890D02*
G02X-3882720Y4530000I25541J46110D01*
G02X-3777280I52720J0D01*
G02X-3804450Y4483890I-52711J0D01*
G03Y4466110I4927J-8890D01*
G02X-3777280Y4420000I-25541J-46110D01*
G02X-3882720I-52720J0D01*
G02X-3855550Y4466110I52711J0D01*
G03Y4483890I-4927J8890D01*
G37*
G36*
G01X-2469830Y4616530D02*
G02X-2492720Y4660000I29832J43470D01*
G02X-2440000Y4712720I52720J0D01*
G02X-2387290Y4660790I0J-52716D01*
G03X-2377390Y4650790I10159J157D01*
G02X-2277280Y4548100I-2613J-102690D01*
G02X-2338740Y4454030I-102721J0D01*
G03X-2339080Y4435580I4080J-9303D01*
G02X-2309280Y4388100I-22925J-47480D01*
G02X-2414720I-52720J0D01*
G02X-2394900Y4429300I52731J0D01*
G03X-2399330Y4447210I-6340J7935D01*
G02X-2482720Y4548100I19336J100890D01*
G02X-2466980Y4602750I102722J6D01*
G03X-2469830Y4616530I-8600J5406D01*
G37*
G36*
G01X-3713520Y5225350D02*
G02X-3810000Y5157880I-96480J35247D01*
G02Y5363320I0J102720D01*
G02X-3713520Y5295850I0J-102717D01*
G03X-3694360Y5296070I9541J3490D01*
G02X-3590000Y5370820I104360J-35475D01*
G02Y5150380I0J-110220D01*
G02X-3694360Y5225130I0J110225D01*
G03X-3713520Y5225350I-9619J-3270D01*
G37*
G36*
G01X-621890Y5617430D02*
G02X-652940Y5665490I21669J48060D01*
G02X-547500I52720J0D01*
G02X-578550Y5617430I-52719J0D01*
G03Y5598910I4181J-9260D01*
G02X-547500Y5550850I-21669J-48060D01*
G02X-652940I-52720J0D01*
G02X-621890Y5598910I52719J0D01*
G03Y5617430I-4181J9260D01*
G37*
G36*
G01X-1721670Y5831940D02*
G02X-1752720Y5880000I21669J48060D01*
G02X-1647280I52720J0D01*
G02X-1678330Y5831940I-52719J0D01*
G03Y5813420I4181J-9260D01*
G02X-1647280Y5765360I-21669J-48060D01*
G02X-1752720I-52720J0D01*
G02X-1721670Y5813420I52719J0D01*
G03Y5831940I-4181J9260D01*
G37*
G36*
G01Y6086580D02*
G02X-1752720Y6134640I21669J48060D01*
G02X-1647280I52720J0D01*
G02X-1678330Y6086580I-52719J0D01*
G03Y6068060I4181J-9260D01*
G02X-1647280Y6020000I-21669J-48060D01*
G02X-1752720I-52720J0D01*
G02X-1721670Y6068060I52719J0D01*
G03Y6086580I-4181J9260D01*
G37*
G36*
G01X-626390Y6201290D02*
G02X-657440Y6249350I21669J48060D01*
G02X-552000I52720J0D01*
G02X-583050Y6201290I-52719J0D01*
G03Y6182770I4181J-9260D01*
G02X-552000Y6134710I-21669J-48060D01*
G02X-657440I-52720J0D01*
G02X-626390Y6182770I52719J0D01*
G03Y6201290I-4181J9260D01*
G37*
G54D27*
X-6090000Y3835600D03*
X-5090000D03*
X-4090000D03*
X-6090000Y4693600D03*
X-4090000Y4403600D03*
Y4943600D03*
X-5590000Y5260600D03*
X-4590000D03*
X-2590000D03*
G54D23*
X-4400000Y490000D03*
X-4190000Y410000D03*
X-880000Y318000D03*
X-679000Y400000D03*
X-780000Y215000D03*
X-5849710Y800400D03*
X-5760110Y890000D03*
X-3360000Y610000D03*
X-1003500Y580000D03*
X-1203200Y705000D03*
X-749500Y585500D03*
X-876500Y576500D03*
X-436500Y740500D03*
X-309500Y613500D03*
Y867500D03*
X-182500Y740500D03*
Y613500D03*
X-55500D03*
X198500Y867500D03*
X199500Y739500D03*
X-55500Y867500D03*
X198500Y613500D03*
X-55500Y740500D03*
X706500Y613500D03*
X452500D03*
Y867500D03*
X579500D03*
X325500Y740500D03*
X579500D03*
X-6152000Y1320000D03*
X-5940000Y1030000D03*
X-4786000Y1221000D03*
X-4035000Y990000D03*
X-3745000Y1095000D03*
X-2890000Y1215000D03*
X-1982000Y980000D03*
X-1612000Y985000D03*
X-1000000Y1040000D03*
X-1120000Y1045000D03*
X-610000Y1035000D03*
X-750000D03*
X-880000D03*
X-640000Y1340000D03*
X-309500Y1248500D03*
X-182500Y1121500D03*
X-309000Y1121000D03*
X198500Y1248500D03*
X-55500D03*
X195000Y1125000D03*
X452500Y1248500D03*
Y994500D03*
X706500D03*
X579500Y1248500D03*
X452500Y1121500D03*
X325500Y994500D03*
X706500Y1121500D03*
X-5962000Y1460000D03*
X-6332000D03*
X-5077000Y1745000D03*
X-4642000Y1370000D03*
X-4637000Y1490000D03*
X-3787010Y1655000D03*
X-3405000Y1705000D03*
X-3242300Y1545000D03*
X-2735000Y1735000D03*
X-2915830Y1752500D03*
X-1987000Y1435000D03*
X-2122000Y1645000D03*
X-1657000Y1420000D03*
X-1000000Y1480000D03*
X-1130500Y1360000D03*
X-436500Y1629500D03*
X-182500D03*
X-309500D03*
X-52500Y1632500D03*
X198500Y1629500D03*
X325500Y1375500D03*
X452500Y1502500D03*
X706500D03*
X579500Y1756500D03*
X452500Y1629500D03*
X579500Y1375500D03*
X706500Y1629500D03*
X325500D03*
X452500Y1756500D03*
X-5587000Y2060000D03*
X-5787000Y1910000D03*
X-5382000Y1920000D03*
X-5467000Y2005000D03*
X-5082000Y2110000D03*
X-4902000Y2070000D03*
X-4987400Y1834600D03*
X-4554100Y1997900D03*
X-4262000Y2095000D03*
X-3650000Y1920000D03*
X-3810000Y1880000D03*
X-3500000Y2070000D03*
X-3180000Y1775000D03*
X-3047500Y1867500D03*
X-2745000Y2140000D03*
X-2377400Y1900400D03*
X-1982000Y1860000D03*
X-1422140Y2032440D03*
X-1632000Y1850000D03*
X-1752000Y1900000D03*
X-1382000Y1905000D03*
X-1110000Y2130000D03*
X-182500Y1883500D03*
X-436500D03*
X-311000Y2139000D03*
X-182500Y2137500D03*
X200000Y2012000D03*
X-59000Y2141000D03*
X-55500Y2010500D03*
X452500D03*
X325500Y2137500D03*
X706500Y2010500D03*
X452500Y2137500D03*
X323000Y2013000D03*
X579500Y1883500D03*
X706500Y2137500D03*
X452500Y1883500D03*
X-5971740Y2549740D03*
X-6256740D03*
X-5937000Y2310000D03*
X-5737000D03*
X-5172000Y2510000D03*
X-5072000Y2315000D03*
X-4952000Y2295000D03*
X-4585750Y2593750D03*
X-4453250D03*
X-4320750D03*
X-4585750Y2461250D03*
X-4453250D03*
X-4320750D03*
X-4188250Y2593750D03*
Y2461250D03*
X-3599300Y2486440D03*
X-3847000Y2485000D03*
X-3395800Y2580800D03*
X-3337000Y2205000D03*
X-2592000Y2215000D03*
X-2455000Y2470000D03*
X-2305000D03*
X-1902000Y2215000D03*
X-2015000Y2475000D03*
X-2165000D03*
X-1757000Y2355000D03*
X-1427000Y2340000D03*
X-1070000Y2445000D03*
X-1194070Y2214070D03*
X-182500Y2391500D03*
X-437500Y2392500D03*
X-309500Y2391500D03*
X-182500Y2518500D03*
Y2264500D03*
X-55500Y2391500D03*
X200000Y2270000D03*
X579500Y2264500D03*
X452500Y2518500D03*
X325500D03*
X328500Y2388500D03*
X579500Y2391500D03*
X706500Y2518500D03*
X-6117000Y2645000D03*
X-5945000Y2820000D03*
X-5580000Y2815000D03*
X-5587000Y2610000D03*
X-5787000Y2710000D03*
X-5194700Y2925000D03*
X-5187000Y2730000D03*
X-5437000Y2610000D03*
X-4320750Y2726250D03*
X-4453250D03*
X-4585750D03*
Y2858750D03*
X-4453250D03*
X-4320750D03*
X-4188250Y2726250D03*
Y2858750D03*
X-3567000Y2675000D03*
X-3727000Y2870000D03*
X-3597000Y3005000D03*
X-3187000D03*
X-2570000Y2870000D03*
X-1942000Y2845000D03*
X-1402000Y2770000D03*
X-1752000Y2780000D03*
X-1647000Y2925000D03*
X-1080000Y2680000D03*
X-182500Y2772500D03*
X-436500Y2645500D03*
X-309500Y2899500D03*
X-182500Y2645500D03*
X71500D03*
X77000Y2767000D03*
X-58800Y2775800D03*
X-58000Y2902000D03*
X706500Y2645500D03*
X704500Y2774500D03*
X452500Y2645500D03*
X329000Y2769000D03*
X-5952000Y3245000D03*
X-5622000Y3230000D03*
X-5162000Y3155000D03*
X-5437000Y3292700D03*
Y3411590D03*
X-4022000Y3385000D03*
X-4112000Y3192700D03*
X-2520000Y3340000D03*
X-2431000Y3201000D03*
X-1842000Y3251300D03*
X-1760800Y3335000D03*
X-1060000Y3065000D03*
X-980000Y3381300D03*
X-904100Y3035000D03*
X-655360Y3273360D03*
X-436500Y3407500D03*
X-182500Y3153500D03*
X-436500D03*
X-299000Y3270000D03*
X77500Y3147500D03*
X198000Y3408000D03*
X71500Y3280500D03*
X-55500Y3026500D03*
Y3153500D03*
Y3280500D03*
Y3407500D03*
X325500Y3026500D03*
X452500Y3153500D03*
X579500Y3407500D03*
X325500Y3153500D03*
X452500Y3280500D03*
X325500Y3407500D03*
X579500Y3026500D03*
X706500Y3153500D03*
Y3280500D03*
X-5597000Y3660000D03*
X-5947000Y3670000D03*
X-5330000Y3660000D03*
X-5327700Y3455000D03*
X-4790000Y3640000D03*
X-4362000Y3455000D03*
X-2590000Y3540000D03*
X-2000000Y3467300D03*
X-1597300Y3550000D03*
X-904100Y3495000D03*
X-742000Y3465000D03*
X-309500Y3661500D03*
X198500D03*
X-55500D03*
X579000Y3661000D03*
X580500Y3789500D03*
X325000Y3790000D03*
X706500Y3661500D03*
X579500Y3534500D03*
X706500Y3788500D03*
X325500Y3661500D03*
Y3534500D03*
X-3581400Y4156300D03*
X-3225800Y4254500D03*
X-2580000Y4064100D03*
X-2010000Y3870000D03*
X-1800000D03*
X-1197000Y4125000D03*
X-436500Y3915500D03*
X-182500D03*
X-309500D03*
X201500Y3918500D03*
X-55500Y3915500D03*
X198500Y4169500D03*
X579500Y3915500D03*
X452500Y4042500D03*
X325500Y3915500D03*
X579500Y4042500D03*
X706500Y4169500D03*
X452500D03*
X579500D03*
X327660Y4043680D03*
X-3240000Y4572000D03*
X-3225800Y4381500D03*
X-2730000Y4416820D03*
X-2722700Y4570000D03*
X-2110000Y4312000D03*
X-2042000Y4485900D03*
X-1955000Y4625000D03*
X-1960000Y4320000D03*
X-1665000Y4625000D03*
X-1660000Y4320000D03*
X-795000Y4630000D03*
X-309500Y4296500D03*
X-482600Y4614000D03*
X-182500Y4296500D03*
Y4550500D03*
X71500Y4677500D03*
X200500Y4679500D03*
X198500Y4423500D03*
X-51000Y4419000D03*
X-55880Y4551680D03*
X-53340Y4676140D03*
X706500Y4296500D03*
X579500D03*
X706500Y4550500D03*
X579500Y4677500D03*
X325500Y4550500D03*
X580680Y4423880D03*
X453860Y4425660D03*
X453000Y4297000D03*
X329500Y4300500D03*
X-3607040Y4894030D03*
X-3677000Y5060000D03*
X-3240000Y4699000D03*
Y4953000D03*
Y4820000D03*
X-2566600Y4957700D03*
X-1652000Y4855000D03*
X-1313500Y4861500D03*
X-1107000Y4985000D03*
X-590000Y4895000D03*
X-680000Y4991500D03*
X-309500Y4804500D03*
X-182500Y5058500D03*
X70000Y5060000D03*
X-55500Y4804500D03*
Y4931500D03*
X325500Y4804500D03*
X579500Y4931500D03*
X706500Y4804500D03*
X325500Y5058500D03*
Y4931500D03*
X579500Y5058500D03*
X572500Y4797500D03*
X-3917000Y5520000D03*
X-2796000Y5502100D03*
X-2482100D03*
X-2210000Y5297300D03*
X-2060000D03*
X-1910000D03*
X-1498600Y5500400D03*
X-1757000Y5160000D03*
X-1627000Y5190000D03*
X-1307600Y5186500D03*
X-1077000Y5165000D03*
X-780000Y5410000D03*
X-845200Y5248250D03*
X-310000Y5430000D03*
X-182500Y5439500D03*
X-319000Y5249000D03*
X-182500Y5185500D03*
Y5312500D03*
X71500Y5185500D03*
Y5439500D03*
X-55500Y5312500D03*
Y5439500D03*
X706500Y5185500D03*
X325000Y5185000D03*
X579500Y5439500D03*
X325500D03*
X706500Y5312500D03*
X326500Y5313500D03*
X578500Y5311500D03*
X577000Y5183000D03*
X-4962700Y5762500D03*
X-4667500D03*
X-4527500Y5910000D03*
X-3400000Y5588250D03*
X-2796000Y5797100D03*
X-2910000Y5649600D03*
X-2270000Y5758200D03*
X-2060000Y5642700D03*
X-1910000D03*
X-1193200Y5795400D03*
X-770000Y5615000D03*
X-309500Y5693500D03*
X-436500Y5566500D03*
X-180000Y5690000D03*
X-55500Y5693500D03*
X71500Y5566500D03*
X-55500D03*
X706500Y5693500D03*
X326000Y5694000D03*
X577500Y5692500D03*
X325000Y5565000D03*
X579500Y5566500D03*
X-4962700Y6057500D03*
X-4652500D03*
X-3804200Y6117900D03*
X-2792700Y6082500D03*
X-2910000Y6230000D03*
X-800000Y5995000D03*
X-770000Y6200000D03*
X-500000Y6065000D03*
X-2792700Y6377500D03*
X-2492500D03*
X-1498600Y6380400D03*
X-1193200D03*
G54D28*
X-3810000Y3835600D03*
X-3340000D03*
X-2840000D03*
X-2380000Y4068100D03*
X-3340000Y5260600D03*
X-2840000D03*
G54D30*
X-2990000Y4070000D03*
G54D21*
X-1531000Y-110000D03*
X-1023000D03*
X-1277000D03*
X-769000D03*
X-1412000Y481000D03*
Y735000D03*
Y989000D03*
X-710000Y2530000D03*
Y2276000D03*
Y2784000D03*
X-3010000Y3190000D03*
X-3264000D03*
X-2756000D03*
X-3966000Y3580000D03*
X-3712000D03*
X-3458000D03*
X-710000Y3696000D03*
Y3950000D03*
Y4204000D03*
G54D25*
X-4132000Y1265000D03*
X-3567000Y3230000D03*
G54D26*
X-5547000Y1745000D03*
X-5737000Y1630000D03*
X-4300000Y1810000D03*
X-4510000D03*
X-3997000Y1805000D03*
G54D24*
X-106500Y434500D03*
X198500Y5872500D03*
G54D22*
X0Y0D03*
Y6300000D03*
G54D29*
X-3090000Y3835600D03*
%LPD*%
G75*
G54D10*
X-6152000Y1320000D03*
X-5962000Y1460000D03*
X-6332000D03*
X-5962000Y2090000D03*
X-6247000D03*
X-6117000Y1970000D03*
X-5971740Y2549740D03*
X-6256740D03*
X-6117000Y2645000D03*
X-5849710Y800400D03*
X-5760110Y890000D03*
X-5660000Y1080000D03*
X-5940000Y1030000D03*
X-5587000Y2060000D03*
X-5787000Y1910000D03*
X-5937000Y2310000D03*
X-5737000D03*
X-5945000Y2820000D03*
X-5580000Y2815000D03*
X-5587000Y2610000D03*
X-5787000Y2710000D03*
X-5952000Y3245000D03*
X-5622000Y3230000D03*
X-5597000Y3660000D03*
X-5947000Y3670000D03*
X-5510000Y1402000D03*
X-5382000Y1920000D03*
X-5467000Y2005000D03*
X-5172000Y2510000D03*
X-5194700Y2925000D03*
X-5187000Y2730000D03*
X-5437000Y2610000D03*
X-5321310Y2779310D03*
X-5400700Y2858700D03*
X-5162000Y3155000D03*
X-5437000Y3292700D03*
Y3411590D03*
X-5327700Y3455000D03*
X-5330000Y3660000D03*
X-4786000Y1221000D03*
X-5077000Y1745000D03*
X-5082000Y2110000D03*
X-4902000Y2070000D03*
X-4987400Y1834600D03*
X-4926000Y2510000D03*
X-5072000Y2315000D03*
X-4952000Y2295000D03*
X-4919700Y2885000D03*
X-4927090Y2707100D03*
X-4762000Y3192700D03*
X-4897000Y3185000D03*
X-4926990Y3076870D03*
X-4942300Y3455000D03*
X-5092300Y3660000D03*
X-4790000Y3640000D03*
X-4962700Y5762500D03*
Y6057500D03*
X-4400000Y490000D03*
X-4642000Y1370000D03*
X-4637000Y1490000D03*
X-4612000Y2130000D03*
X-4554100Y1997900D03*
X-4585750Y2593750D03*
X-4453250D03*
X-4320750D03*
X-4585750Y2461250D03*
X-4453250D03*
X-4320750D03*
Y2726250D03*
X-4453250D03*
X-4585750D03*
Y2858750D03*
X-4453250D03*
X-4320750D03*
X-4612000Y3192700D03*
X-4385000Y3195000D03*
X-4362000Y3455000D03*
X-4645000Y3460000D03*
X-4620000Y3564830D03*
Y3675790D03*
X-4667500Y5762500D03*
X-4527500Y5910000D03*
X-4652500Y6057500D03*
X-4190000Y410000D03*
X-4035000Y990000D03*
X-4050000Y1472000D03*
X-4160000D03*
X-4262000Y2095000D03*
X-4188250Y2593750D03*
Y2461250D03*
Y2726250D03*
Y2858750D03*
X-4262000Y3190000D03*
X-4022000Y3385000D03*
X-4112000Y3192700D03*
X-4242000Y3455000D03*
X-4215000Y3555000D03*
X-3917000Y5520000D03*
X-3679800Y795000D03*
X-3780000Y530000D03*
X-3592700Y790000D03*
X-3650000Y700000D03*
X-3592700Y610000D03*
X-3745000Y1095000D03*
X-3787010Y1655000D03*
X-3557000Y1755000D03*
X-3650000Y1920000D03*
X-3810000Y1880000D03*
X-3505000Y1825000D03*
X-3500000Y2070000D03*
X-3617000Y2210000D03*
X-3599300Y2486440D03*
X-3847000Y2485000D03*
X-3540000Y2270000D03*
X-3857000Y2885000D03*
X-3847000Y2635000D03*
X-3567000Y2675000D03*
X-3727000Y2870000D03*
X-3597000Y3005000D03*
X-3854300Y3035000D03*
X-3550000Y4254500D03*
X-3581400Y4156300D03*
X-3550000Y4381500D03*
Y4572000D03*
X-3830000Y4530000D03*
Y4420000D03*
X-3550000Y4826000D03*
Y4980000D03*
Y4699000D03*
X-3607040Y4894030D03*
X-3677000Y5060000D03*
X-3590000Y5930900D03*
X-3760000Y5850000D03*
X-3835000Y5785000D03*
X-3590000Y6045200D03*
X-3804200Y6117900D03*
X-3367300Y790000D03*
X-3360000Y610000D03*
X-3405000Y1705000D03*
X-3242300Y1545000D03*
X-3048500Y1603500D03*
X-3180000Y1775000D03*
X-3047500Y1867500D03*
X-3315000Y1905200D03*
Y2015000D03*
X-3235000Y2575000D03*
X-3395800Y2580800D03*
X-3337000Y2205000D03*
X-3237000Y2675000D03*
X-3187000Y3005000D03*
X-3255000Y3550000D03*
X-3063290Y3584560D03*
X-3172000Y3585000D03*
X-3225800Y4254500D03*
X-3240000Y4572000D03*
X-3225800Y4381500D03*
X-3240000Y4699000D03*
Y4953000D03*
X-3122000Y5105000D03*
X-3240000Y4820000D03*
X-3400000Y5588250D03*
X-2890000Y1215000D03*
X-2845000Y1547300D03*
X-2735000Y1735000D03*
X-2915830Y1752500D03*
X-2962000Y1645000D03*
X-2745000Y2140000D03*
X-2615000Y2085000D03*
X-2985000Y3530000D03*
X-2959100Y4241800D03*
X-2971800Y4419600D03*
X-2730000Y4416820D03*
X-2722700Y4570000D03*
X-2796000Y5502100D03*
Y5797100D03*
X-2910000Y5649600D03*
X-2792700Y6082500D03*
X-2910000Y6230000D03*
X-2792700Y6377500D03*
X-2565000Y1995000D03*
X-2575000Y1880000D03*
X-2467000Y1990000D03*
X-2377400Y1900400D03*
X-2592000Y2215000D03*
X-2455000Y2470000D03*
X-2305000D03*
X-2602000Y2725000D03*
X-2570000Y2870000D03*
Y3130000D03*
X-2520000Y3340000D03*
X-2431000Y3201000D03*
X-2590000Y3540000D03*
X-2580000Y4064100D03*
X-2440000Y4660000D03*
X-2362000Y4388100D03*
X-2566600Y4957700D03*
X-2258010Y5041300D03*
X-2482100Y5502100D03*
X-2210000Y5297300D03*
Y5642700D03*
X-2270000Y5758200D03*
X-2240000Y6140000D03*
X-2492500Y6377500D03*
X-1982000Y980000D03*
X-1987000Y1435000D03*
X-2122000Y1645000D03*
X-2170000Y2057300D03*
X-1982000Y1860000D03*
X-2170000Y1935000D03*
X-2106720Y2010500D03*
X-1992080D03*
X-1902000Y2215000D03*
X-2015000Y2475000D03*
X-2165000D03*
X-1872000Y2725000D03*
X-1909590Y2984590D03*
X-1942000Y2845000D03*
X-1970000Y3340000D03*
X-2050000Y3190000D03*
X-1842000Y3251300D03*
X-2040000Y3720000D03*
X-2000000Y3467300D03*
X-1852000Y4250030D03*
X-2055000Y4145000D03*
X-2000000Y4090000D03*
X-2010000Y3870000D03*
X-1800000D03*
X-2110000Y4312000D03*
X-1860000Y4530000D03*
Y4430000D03*
X-1810000Y4480000D03*
X-2095590Y4675300D03*
X-2042000Y4485900D03*
X-1955000Y4625000D03*
X-1960000Y4320000D03*
X-2137300Y5102450D03*
X-2130000Y4770000D03*
X-1867000Y4710000D03*
X-1972700Y5125000D03*
X-2060000Y5297300D03*
X-1910000D03*
X-2060000Y5642700D03*
X-1910000D03*
X-1612000Y985000D03*
X-1657000Y1420000D03*
X-1422140Y2032440D03*
X-1632000Y1850000D03*
X-1752000Y1900000D03*
X-1382000Y1905000D03*
X-1757000Y2355000D03*
X-1427000Y2340000D03*
X-1402000Y2770000D03*
X-1752000Y2780000D03*
X-1647000Y2925000D03*
X-1663700Y3381300D03*
X-1767300Y3095000D03*
X-1760800Y3335000D03*
X-1750000Y3500000D03*
X-1622270Y3840000D03*
X-1617300Y3720000D03*
X-1597300Y3550000D03*
X-1772000Y4249800D03*
X-1565000Y4145000D03*
X-1620000Y4050000D03*
X-1439200Y4669750D03*
X-1760000Y4530000D03*
Y4430000D03*
X-1665000Y4625000D03*
X-1660000Y4320000D03*
X-1570800Y4796500D03*
X-1762000Y4710000D03*
X-1652000Y4855000D03*
X-1498600Y5500400D03*
X-1757000Y5160000D03*
X-1627000Y5190000D03*
X-1575000Y5715000D03*
X-1520000Y5905000D03*
X-1700000Y5765360D03*
Y5880000D03*
X-1565000Y6200000D03*
Y5970000D03*
X-1700000Y6134640D03*
Y6020000D03*
X-1498600Y6380400D03*
X-1003500Y580000D03*
X-1203200Y705000D03*
X-1120000Y1045000D03*
X-1000000Y1040000D03*
Y1480000D03*
X-1130500Y1360000D03*
X-1110000Y2130000D03*
X-1070000Y2445000D03*
X-1194070Y2214070D03*
X-1080000Y2680000D03*
X-1060000Y3065000D03*
X-980000Y3381300D03*
X-1157380Y3707380D03*
X-1118300Y3806300D03*
X-1291820Y3911820D03*
X-1197000Y4125000D03*
X-1197690Y3885690D03*
X-1050000Y4796500D03*
X-976800Y4861500D03*
X-1313500D03*
X-1000000Y4730000D03*
X-1107000Y4985000D03*
X-1307600Y5186500D03*
X-1193200Y5500400D03*
X-1120000Y5445000D03*
X-1077000Y5165000D03*
X-960000Y5902700D03*
X-1060000D03*
X-1193200Y5795400D03*
Y6085400D03*
X-1115000Y6095000D03*
X-1193200Y6380400D03*
X-960000Y6490000D03*
X-1060000D03*
X-780000Y130000D03*
Y215000D03*
X-880000Y318000D03*
X-679000Y400000D03*
X-749500Y585500D03*
X-876500Y576500D03*
X-640000Y1340000D03*
X-880000Y1035000D03*
X-750000D03*
X-610000D03*
X-890000Y1385000D03*
X-904100Y3035000D03*
X-655360Y3273360D03*
X-632000Y3395000D03*
X-904100Y3495000D03*
X-742000Y3465000D03*
X-570000Y3490000D03*
X-795000Y4630000D03*
X-590000Y4895000D03*
X-680000Y4991500D03*
X-845200Y5248250D03*
X-780000Y5410000D03*
X-680000Y5825000D03*
X-620000Y5900000D03*
X-770000Y5615000D03*
X-880000Y5900000D03*
X-600220Y5665490D03*
Y5550850D03*
X-770000Y6200000D03*
X-604720Y6249350D03*
Y6134710D03*
X-800000Y5995000D03*
X-629910Y6427330D03*
X-632300Y6500000D03*
X-880000Y6490000D03*
X-436500Y740500D03*
X-309500Y613500D03*
Y867500D03*
X-182500Y740500D03*
Y613500D03*
X-309500Y1248500D03*
X-182500Y1121500D03*
X-309000Y1121000D03*
X-436500Y1629500D03*
X-182500D03*
X-309500D03*
X-182500Y1883500D03*
X-436500D03*
X-311000Y2139000D03*
X-182500Y2137500D03*
Y2391500D03*
X-437500Y2392500D03*
X-309500Y2391500D03*
X-182500Y2518500D03*
Y2264500D03*
Y2772500D03*
X-436500Y2645500D03*
X-309500Y2899500D03*
X-182500Y2645500D03*
X-436500Y3407500D03*
X-182500Y3153500D03*
X-436500D03*
X-299000Y3270000D03*
X-309500Y3661500D03*
X-436500Y3915500D03*
X-182500D03*
X-309500D03*
Y4296500D03*
X-482600Y4614000D03*
X-182500Y4296500D03*
Y4550500D03*
X-309500Y4804500D03*
X-413400Y5059160D03*
X-182500Y5058500D03*
X-309500D03*
X-310000Y5430000D03*
X-182500Y5439500D03*
X-319000Y5249000D03*
X-182500Y5185500D03*
Y5312500D03*
X-309500Y5693500D03*
X-436500Y5566500D03*
X-180000Y5690000D03*
X-430020Y6275000D03*
X-500000Y6065000D03*
X-55500Y613500D03*
X198500Y867500D03*
X199500Y739500D03*
X-55500Y867500D03*
X198500Y613500D03*
X-55500Y740500D03*
X198500Y1248500D03*
X-55500D03*
X195000Y1125000D03*
X-52500Y1632500D03*
X198500Y1629500D03*
X200000Y2012000D03*
X-59000Y2141000D03*
X-55500Y2010500D03*
Y2391500D03*
X200000Y2270000D03*
X71500Y2645500D03*
X77000Y2767000D03*
X-58800Y2775800D03*
X-58000Y2902000D03*
X77500Y3147500D03*
X198000Y3408000D03*
X71500Y3280500D03*
X-55500Y3026500D03*
Y3153500D03*
Y3280500D03*
Y3407500D03*
X198500Y3661500D03*
X-55500D03*
X201500Y3918500D03*
X-55500Y3915500D03*
X198500Y4169500D03*
X71500Y4677500D03*
X200500Y4679500D03*
X198500Y4423500D03*
X-51000Y4419000D03*
X-55880Y4551680D03*
X-53340Y4676140D03*
X70000Y5060000D03*
X-55500Y4804500D03*
Y4931500D03*
X71500Y5185500D03*
Y5439500D03*
X-55500Y5312500D03*
Y5439500D03*
Y5693500D03*
X71500Y5566500D03*
X-55500D03*
X325500Y613500D03*
Y867500D03*
X452500Y740500D03*
X706500Y613500D03*
X452500D03*
Y867500D03*
X579500D03*
X325500Y740500D03*
X579500D03*
X325500Y1121500D03*
X452500Y1248500D03*
Y994500D03*
X706500D03*
X579500Y1248500D03*
X452500Y1121500D03*
X325500Y994500D03*
X706500Y1121500D03*
Y1502500D03*
X579500Y1756500D03*
X452500Y1629500D03*
X579500Y1375500D03*
X706500Y1629500D03*
X325500D03*
X452500Y1502500D03*
X325500Y1375500D03*
X452500Y1756500D03*
Y2010500D03*
X325500Y2137500D03*
X706500Y2010500D03*
X452500Y2137500D03*
X323000Y2013000D03*
X579500Y1883500D03*
X706500Y2137500D03*
X452500Y1883500D03*
X579500Y2264500D03*
X452500Y2518500D03*
X325500D03*
X328500Y2388500D03*
X579500Y2391500D03*
X706500Y2518500D03*
Y2645500D03*
X704500Y2774500D03*
X452500Y2645500D03*
X329000Y2769000D03*
X325500Y3026500D03*
X452500Y3153500D03*
X579500Y3407500D03*
X325500Y3153500D03*
X452500Y3280500D03*
X325500Y3407500D03*
X579500Y3026500D03*
X706500Y3153500D03*
Y3280500D03*
X579000Y3661000D03*
X580500Y3789500D03*
X325000Y3790000D03*
X706500Y3661500D03*
X579500Y3534500D03*
X706500Y3788500D03*
X325500Y3661500D03*
Y3534500D03*
X579500Y3915500D03*
X452500Y4042500D03*
X325500Y3915500D03*
X579500Y4042500D03*
X706500Y4169500D03*
X452500D03*
X579500D03*
X327660Y4043680D03*
X706500Y4296500D03*
X579500D03*
X706500Y4550500D03*
X579500Y4677500D03*
X325500Y4550500D03*
X580680Y4423880D03*
X453860Y4425660D03*
X453000Y4297000D03*
X329500Y4300500D03*
X325500Y4804500D03*
X579500Y4931500D03*
X706500Y4804500D03*
X325500Y5058500D03*
Y4931500D03*
X579500Y5058500D03*
X572500Y4797500D03*
X706500Y5185500D03*
X325000Y5185000D03*
X579500Y5439500D03*
X325500D03*
X706500Y5312500D03*
X326500Y5313500D03*
X578500Y5311500D03*
X577000Y5183000D03*
X706500Y5693500D03*
X326000Y5694000D03*
X577500Y5692500D03*
X325000Y5565000D03*
X579500Y5566500D03*
G54D20*
G01X-1023000Y-110000D02*
Y2800D01*
G01X-1135800Y-110000D02*
X-1023000D01*
G01D02*
X-910200D01*
G54D11*
X-6090000Y3835600D03*
Y4693600D03*
X-5590000Y5260600D03*
X-5090000Y3835600D03*
X-4590000Y5260600D03*
X-4090000Y3835600D03*
Y4403600D03*
Y4943600D03*
X-3590000Y5260600D03*
X-2590000D03*
G54D12*
X-5460000Y380000D03*
X-5475000Y6050000D03*
X0Y0D03*
Y6300000D03*
G54D13*
X-5547000Y1540000D03*
Y1745000D03*
X-5737000Y1630000D03*
X-4300000Y1810000D03*
X-4510000D03*
X-3997000Y1805000D03*
G54D14*
X-4132000Y1265000D03*
X-3567000Y3230000D03*
G54D15*
X-3810000Y3835600D03*
Y5260600D03*
X-3340000Y3835600D03*
Y5260600D03*
X-2840000Y3835600D03*
Y5260600D03*
X-2380000Y4068100D03*
Y4548100D03*
Y5028100D03*
G54D16*
X-3966000Y3580000D03*
X-3712000D03*
X-3458000D03*
X-3010000Y3190000D03*
X-3264000D03*
X-2756000D03*
X-1531000Y-110000D03*
X-1412000Y481000D03*
Y735000D03*
Y989000D03*
X-1023000Y-110000D03*
X-1277000D03*
X-769000D03*
X-710000Y2530000D03*
Y2276000D03*
Y2784000D03*
Y3696000D03*
Y3950000D03*
Y4204000D03*
G54D17*
X-3090000Y3835600D03*
G54D18*
X-2990000Y4070000D03*
Y5030000D03*
X-106500Y434500D03*
X198500Y5872500D03*
G54D19*
G01X820800Y-178500D02*
X826800Y-185170D01*
X833800Y-189170D01*
X842800Y-190500D01*
X851800Y-187830D01*
X858800Y-182500D01*
X863800Y-173170D01*
X864800Y-162500D01*
X862800Y-151830D01*
X857800Y-145170D01*
X850800Y-139830D01*
X843800Y-138500D01*
X836800Y-139830D01*
X827800Y-145170D01*
X830800Y-110500D01*
X857800D01*
M02*
