G04 ================== begin FILE IDENTIFICATION RECORD ==================*
G04 Layout Name:  pc069c_toplevel_25.brd*
G04 Film Name:    art_L3_SIGN_pc069c*
G04 File Format:  Gerber RS274X*
G04 File Origin:  Cadence Allegro 24.1-P001*
G04 Origin Date:  Thu Feb  6 11:32:19 2025*
G04 *
G04 Layer:  VIA CLASS/L3_SIGN*
G04 Layer:  PIN/L3_SIGN*
G04 Layer:  ETCH/L3_SIGN*
G04 *
G04 Offset:    (0.0000 0.0000)*
G04 Mirror:    No*
G04 Mode:      Positive*
G04 Rotation:  0*
G04 FullContactRelief:  No*
G04 UndefLineWidth:     0.0000*
G04 ================== end FILE IDENTIFICATION RECORD ====================*
%FSLAX25Y25*MOMM*%
%IR0*IPPOS*OFA0.00000B0.00000*MIA0B0*SFA1.00000B1.00000*%
%ADD10C,.6*%
%ADD18C,1.*%
%ADD13C,1.2*%
%ADD15C,1.6*%
%ADD16C,1.7*%
%ADD12C,3.302*%
%ADD17C,1.524*%
%ADD11C,1.75*%
%ADD14C,1.397*%
%ADD19C,.1*%
%ADD20C,.2*%
%ADD21C,.3*%
%ADD22C,.5*%
%ADD23C,.254*%
G75*
%LPD*%
G75*
G54D10*
X-6152000Y1320000D03*
X-5962000Y1460000D03*
X-6332000D03*
X-5962000Y2090000D03*
X-6247000D03*
X-6117000Y1970000D03*
X-5971740Y2549740D03*
X-6256740D03*
X-6117000Y2645000D03*
X-5849710Y800400D03*
X-5760110Y890000D03*
X-5660000Y1080000D03*
X-5940000Y1030000D03*
X-5587000Y2060000D03*
X-5787000Y1910000D03*
X-5937000Y2310000D03*
X-5737000D03*
X-5945000Y2820000D03*
X-5580000Y2815000D03*
X-5587000Y2610000D03*
X-5787000Y2710000D03*
X-5952000Y3245000D03*
X-5622000Y3230000D03*
X-5597000Y3660000D03*
X-5947000Y3670000D03*
X-5510000Y1402000D03*
X-5382000Y1920000D03*
X-5467000Y2005000D03*
X-5172000Y2510000D03*
X-5194700Y2925000D03*
X-5187000Y2730000D03*
X-5437000Y2610000D03*
X-5321310Y2779310D03*
X-5400700Y2858700D03*
X-5162000Y3155000D03*
X-5437000Y3292700D03*
Y3411590D03*
X-5327700Y3455000D03*
X-5330000Y3660000D03*
X-4786000Y1221000D03*
X-5077000Y1745000D03*
X-5082000Y2110000D03*
X-4902000Y2070000D03*
X-4987400Y1834600D03*
X-4926000Y2510000D03*
X-5072000Y2315000D03*
X-4952000Y2295000D03*
X-4919700Y2885000D03*
X-4927090Y2707100D03*
X-4762000Y3192700D03*
X-4897000Y3185000D03*
X-4926990Y3076870D03*
X-4942300Y3455000D03*
X-5092300Y3660000D03*
X-4790000Y3640000D03*
X-4962700Y5762500D03*
Y6057500D03*
X-4400000Y490000D03*
X-4642000Y1370000D03*
X-4637000Y1490000D03*
X-4612000Y2130000D03*
X-4554100Y1997900D03*
X-4585750Y2593750D03*
X-4453250D03*
X-4320750D03*
X-4585750Y2461250D03*
X-4453250D03*
X-4320750D03*
Y2726250D03*
X-4453250D03*
X-4585750D03*
Y2858750D03*
X-4453250D03*
X-4320750D03*
X-4612000Y3192700D03*
X-4385000Y3195000D03*
X-4362000Y3455000D03*
X-4645000Y3460000D03*
X-4620000Y3564830D03*
Y3675790D03*
X-4667500Y5762500D03*
X-4527500Y5910000D03*
X-4652500Y6057500D03*
X-4190000Y410000D03*
X-4035000Y990000D03*
X-4050000Y1472000D03*
X-4160000D03*
X-4262000Y2095000D03*
X-4188250Y2593750D03*
Y2461250D03*
Y2726250D03*
Y2858750D03*
X-4262000Y3190000D03*
X-4022000Y3385000D03*
X-4112000Y3192700D03*
X-4242000Y3455000D03*
X-4215000Y3555000D03*
X-3917000Y5520000D03*
X-3679800Y795000D03*
X-3780000Y530000D03*
X-3592700Y790000D03*
X-3650000Y700000D03*
X-3592700Y610000D03*
X-3745000Y1095000D03*
X-3787010Y1655000D03*
X-3557000Y1755000D03*
X-3650000Y1920000D03*
X-3810000Y1880000D03*
X-3505000Y1825000D03*
X-3500000Y2070000D03*
X-3617000Y2210000D03*
X-3599300Y2486440D03*
X-3847000Y2485000D03*
X-3540000Y2270000D03*
X-3857000Y2885000D03*
X-3847000Y2635000D03*
X-3567000Y2675000D03*
X-3727000Y2870000D03*
X-3597000Y3005000D03*
X-3854300Y3035000D03*
X-3550000Y4254500D03*
X-3581400Y4156300D03*
X-3550000Y4381500D03*
Y4572000D03*
X-3830000Y4530000D03*
Y4420000D03*
X-3550000Y4826000D03*
Y4980000D03*
Y4699000D03*
X-3607040Y4894030D03*
X-3677000Y5060000D03*
X-3590000Y5930900D03*
X-3760000Y5850000D03*
X-3835000Y5785000D03*
X-3590000Y6045200D03*
X-3804200Y6117900D03*
X-3367300Y790000D03*
X-3360000Y610000D03*
X-3405000Y1705000D03*
X-3242300Y1545000D03*
X-3048500Y1603500D03*
X-3180000Y1775000D03*
X-3047500Y1867500D03*
X-3315000Y1905200D03*
Y2015000D03*
X-3235000Y2575000D03*
X-3395800Y2580800D03*
X-3337000Y2205000D03*
X-3237000Y2675000D03*
X-3187000Y3005000D03*
X-3255000Y3550000D03*
X-3063290Y3584560D03*
X-3172000Y3585000D03*
X-3225800Y4254500D03*
X-3240000Y4572000D03*
X-3225800Y4381500D03*
X-3240000Y4699000D03*
Y4953000D03*
X-3122000Y5105000D03*
X-3240000Y4820000D03*
X-3400000Y5588250D03*
X-2890000Y1215000D03*
X-2845000Y1547300D03*
X-2735000Y1735000D03*
X-2915830Y1752500D03*
X-2962000Y1645000D03*
X-2745000Y2140000D03*
X-2615000Y2085000D03*
X-2985000Y3530000D03*
X-2959100Y4241800D03*
X-2971800Y4419600D03*
X-2730000Y4416820D03*
X-2722700Y4570000D03*
X-2796000Y5502100D03*
Y5797100D03*
X-2910000Y5649600D03*
X-2792700Y6082500D03*
X-2910000Y6230000D03*
X-2792700Y6377500D03*
X-2565000Y1995000D03*
X-2575000Y1880000D03*
X-2467000Y1990000D03*
X-2377400Y1900400D03*
X-2592000Y2215000D03*
X-2455000Y2470000D03*
X-2305000D03*
X-2602000Y2725000D03*
X-2570000Y2870000D03*
Y3130000D03*
X-2520000Y3340000D03*
X-2431000Y3201000D03*
X-2590000Y3540000D03*
X-2580000Y4064100D03*
X-2440000Y4660000D03*
X-2362000Y4388100D03*
X-2566600Y4957700D03*
X-2258010Y5041300D03*
X-2482100Y5502100D03*
X-2210000Y5297300D03*
Y5642700D03*
X-2270000Y5758200D03*
X-2240000Y6140000D03*
X-2492500Y6377500D03*
X-1982000Y980000D03*
X-1987000Y1435000D03*
X-2122000Y1645000D03*
X-2170000Y2057300D03*
X-1982000Y1860000D03*
X-2170000Y1935000D03*
X-2106720Y2010500D03*
X-1992080D03*
X-1902000Y2215000D03*
X-2015000Y2475000D03*
X-2165000D03*
X-1872000Y2725000D03*
X-1909590Y2984590D03*
X-1942000Y2845000D03*
X-1970000Y3340000D03*
X-2050000Y3190000D03*
X-1842000Y3251300D03*
X-2040000Y3720000D03*
X-2000000Y3467300D03*
X-1852000Y4250030D03*
X-2055000Y4145000D03*
X-2000000Y4090000D03*
X-2010000Y3870000D03*
X-1800000D03*
X-2110000Y4312000D03*
X-1860000Y4530000D03*
Y4430000D03*
X-1810000Y4480000D03*
X-2095590Y4675300D03*
X-2042000Y4485900D03*
X-1955000Y4625000D03*
X-1960000Y4320000D03*
X-2137300Y5102450D03*
X-2130000Y4770000D03*
X-1867000Y4710000D03*
X-1972700Y5125000D03*
X-2060000Y5297300D03*
X-1910000D03*
X-2060000Y5642700D03*
X-1910000D03*
X-1612000Y985000D03*
X-1657000Y1420000D03*
X-1422140Y2032440D03*
X-1632000Y1850000D03*
X-1752000Y1900000D03*
X-1382000Y1905000D03*
X-1757000Y2355000D03*
X-1427000Y2340000D03*
X-1402000Y2770000D03*
X-1752000Y2780000D03*
X-1647000Y2925000D03*
X-1663700Y3381300D03*
X-1767300Y3095000D03*
X-1760800Y3335000D03*
X-1750000Y3500000D03*
X-1622270Y3840000D03*
X-1617300Y3720000D03*
X-1597300Y3550000D03*
X-1772000Y4249800D03*
X-1565000Y4145000D03*
X-1620000Y4050000D03*
X-1439200Y4669750D03*
X-1760000Y4530000D03*
Y4430000D03*
X-1665000Y4625000D03*
X-1660000Y4320000D03*
X-1570800Y4796500D03*
X-1762000Y4710000D03*
X-1652000Y4855000D03*
X-1498600Y5500400D03*
X-1757000Y5160000D03*
X-1627000Y5190000D03*
X-1575000Y5715000D03*
X-1520000Y5905000D03*
X-1700000Y5765360D03*
Y5880000D03*
X-1565000Y6200000D03*
Y5970000D03*
X-1700000Y6134640D03*
Y6020000D03*
X-1498600Y6380400D03*
X-1003500Y580000D03*
X-1203200Y705000D03*
X-1120000Y1045000D03*
X-1000000Y1040000D03*
Y1480000D03*
X-1130500Y1360000D03*
X-1110000Y2130000D03*
X-1070000Y2445000D03*
X-1194070Y2214070D03*
X-1080000Y2680000D03*
X-1060000Y3065000D03*
X-980000Y3381300D03*
X-1157380Y3707380D03*
X-1118300Y3806300D03*
X-1291820Y3911820D03*
X-1197000Y4125000D03*
X-1197690Y3885690D03*
X-1050000Y4796500D03*
X-976800Y4861500D03*
X-1313500D03*
X-1000000Y4730000D03*
X-1107000Y4985000D03*
X-1307600Y5186500D03*
X-1193200Y5500400D03*
X-1120000Y5445000D03*
X-1077000Y5165000D03*
X-960000Y5902700D03*
X-1060000D03*
X-1193200Y5795400D03*
Y6085400D03*
X-1115000Y6095000D03*
X-1193200Y6380400D03*
X-960000Y6490000D03*
X-1060000D03*
X-780000Y130000D03*
Y215000D03*
X-880000Y318000D03*
X-679000Y400000D03*
X-749500Y585500D03*
X-876500Y576500D03*
X-640000Y1340000D03*
X-880000Y1035000D03*
X-750000D03*
X-610000D03*
X-890000Y1385000D03*
X-904100Y3035000D03*
X-655360Y3273360D03*
X-632000Y3395000D03*
X-904100Y3495000D03*
X-742000Y3465000D03*
X-570000Y3490000D03*
X-795000Y4630000D03*
X-590000Y4895000D03*
X-680000Y4991500D03*
X-845200Y5248250D03*
X-780000Y5410000D03*
X-680000Y5825000D03*
X-620000Y5900000D03*
X-770000Y5615000D03*
X-880000Y5900000D03*
X-600220Y5665490D03*
Y5550850D03*
X-770000Y6200000D03*
X-604720Y6249350D03*
Y6134710D03*
X-800000Y5995000D03*
X-629910Y6427330D03*
X-632300Y6500000D03*
X-880000Y6490000D03*
X-436500Y740500D03*
X-309500Y613500D03*
Y867500D03*
X-182500Y740500D03*
Y613500D03*
X-309500Y1248500D03*
X-182500Y1121500D03*
X-309000Y1121000D03*
X-436500Y1629500D03*
X-182500D03*
X-309500D03*
X-182500Y1883500D03*
X-436500D03*
X-311000Y2139000D03*
X-182500Y2137500D03*
Y2391500D03*
X-437500Y2392500D03*
X-309500Y2391500D03*
X-182500Y2518500D03*
Y2264500D03*
Y2772500D03*
X-436500Y2645500D03*
X-309500Y2899500D03*
X-182500Y2645500D03*
X-436500Y3407500D03*
X-182500Y3153500D03*
X-436500D03*
X-299000Y3270000D03*
X-309500Y3661500D03*
X-436500Y3915500D03*
X-182500D03*
X-309500D03*
Y4296500D03*
X-482600Y4614000D03*
X-182500Y4296500D03*
Y4550500D03*
X-309500Y4804500D03*
X-413400Y5059160D03*
X-182500Y5058500D03*
X-309500D03*
X-310000Y5430000D03*
X-182500Y5439500D03*
X-319000Y5249000D03*
X-182500Y5185500D03*
Y5312500D03*
X-309500Y5693500D03*
X-436500Y5566500D03*
X-180000Y5690000D03*
X-430020Y6275000D03*
X-500000Y6065000D03*
X-55500Y613500D03*
X198500Y867500D03*
X199500Y739500D03*
X-55500Y867500D03*
X198500Y613500D03*
X-55500Y740500D03*
X198500Y1248500D03*
X-55500D03*
X195000Y1125000D03*
X-52500Y1632500D03*
X198500Y1629500D03*
X200000Y2012000D03*
X-59000Y2141000D03*
X-55500Y2010500D03*
Y2391500D03*
X200000Y2270000D03*
X71500Y2645500D03*
X77000Y2767000D03*
X-58800Y2775800D03*
X-58000Y2902000D03*
X77500Y3147500D03*
X198000Y3408000D03*
X71500Y3280500D03*
X-55500Y3026500D03*
Y3153500D03*
Y3280500D03*
Y3407500D03*
X198500Y3661500D03*
X-55500D03*
X201500Y3918500D03*
X-55500Y3915500D03*
X198500Y4169500D03*
X71500Y4677500D03*
X200500Y4679500D03*
X198500Y4423500D03*
X-51000Y4419000D03*
X-55880Y4551680D03*
X-53340Y4676140D03*
X70000Y5060000D03*
X-55500Y4804500D03*
Y4931500D03*
X71500Y5185500D03*
Y5439500D03*
X-55500Y5312500D03*
Y5439500D03*
Y5693500D03*
X71500Y5566500D03*
X-55500D03*
X325500Y613500D03*
Y867500D03*
X452500Y740500D03*
X706500Y613500D03*
X452500D03*
Y867500D03*
X579500D03*
X325500Y740500D03*
X579500D03*
X325500Y1121500D03*
X452500Y1248500D03*
Y994500D03*
X706500D03*
X579500Y1248500D03*
X452500Y1121500D03*
X325500Y994500D03*
X706500Y1121500D03*
Y1502500D03*
X579500Y1756500D03*
X452500Y1629500D03*
X579500Y1375500D03*
X706500Y1629500D03*
X325500D03*
X452500Y1502500D03*
X325500Y1375500D03*
X452500Y1756500D03*
Y2010500D03*
X325500Y2137500D03*
X706500Y2010500D03*
X452500Y2137500D03*
X323000Y2013000D03*
X579500Y1883500D03*
X706500Y2137500D03*
X452500Y1883500D03*
X579500Y2264500D03*
X452500Y2518500D03*
X325500D03*
X328500Y2388500D03*
X579500Y2391500D03*
X706500Y2518500D03*
Y2645500D03*
X704500Y2774500D03*
X452500Y2645500D03*
X329000Y2769000D03*
X325500Y3026500D03*
X452500Y3153500D03*
X579500Y3407500D03*
X325500Y3153500D03*
X452500Y3280500D03*
X325500Y3407500D03*
X579500Y3026500D03*
X706500Y3153500D03*
Y3280500D03*
X579000Y3661000D03*
X580500Y3789500D03*
X325000Y3790000D03*
X706500Y3661500D03*
X579500Y3534500D03*
X706500Y3788500D03*
X325500Y3661500D03*
Y3534500D03*
X579500Y3915500D03*
X452500Y4042500D03*
X325500Y3915500D03*
X579500Y4042500D03*
X706500Y4169500D03*
X452500D03*
X579500D03*
X327660Y4043680D03*
X706500Y4296500D03*
X579500D03*
X706500Y4550500D03*
X579500Y4677500D03*
X325500Y4550500D03*
X580680Y4423880D03*
X453860Y4425660D03*
X453000Y4297000D03*
X329500Y4300500D03*
X325500Y4804500D03*
X579500Y4931500D03*
X706500Y4804500D03*
X325500Y5058500D03*
Y4931500D03*
X579500Y5058500D03*
X572500Y4797500D03*
X706500Y5185500D03*
X325000Y5185000D03*
X579500Y5439500D03*
X325500D03*
X706500Y5312500D03*
X326500Y5313500D03*
X578500Y5311500D03*
X577000Y5183000D03*
X706500Y5693500D03*
X326000Y5694000D03*
X577500Y5692500D03*
X325000Y5565000D03*
X579500Y5566500D03*
G54D20*
G01X-55880Y4551680D02*
X-94580Y4592000D01*
X-141600Y4592950D01*
X-183250Y4634600D01*
X-324610D01*
X-517300Y4827290D01*
Y5022300D01*
X-804400Y5309400D01*
X-821680D01*
X-880600Y5368320D01*
Y5385600D01*
X-1144000Y5649000D01*
X-1313990D01*
X-1469390Y5804400D01*
X-1660960D01*
X-1700000Y5765360D01*
G01X-53340Y4676140D02*
X-160580D01*
X-164440Y4680000D01*
X-305800D01*
X-471900Y4846100D01*
Y5041110D01*
X-785590Y5354800D01*
X-802870D01*
X-835200Y5387130D01*
Y5404410D01*
X-1125190Y5694400D01*
X-1295180D01*
X-1450580Y5849800D01*
X-1669800D01*
X-1700000Y5880000D01*
G01X453000Y4297000D02*
X415060Y4334940D01*
Y4386390D01*
X306150Y4495300D01*
X302630D01*
X270300Y4527630D01*
Y4573370D01*
X310000Y4613070D01*
Y4734220D01*
X225400Y4818820D01*
Y5614600D01*
X19600Y5820400D01*
X-324880D01*
X-514410Y5630870D01*
X-565600D01*
X-600220Y5665490D01*
G01X329500Y4300500D02*
X369660Y4340660D01*
Y4367580D01*
X287340Y4449900D01*
X283820D01*
X224900Y4508820D01*
Y4592180D01*
X264600Y4631880D01*
Y4715410D01*
X180000Y4800010D01*
Y5595790D01*
X790Y5775000D01*
X-306070D01*
X-495600Y5585470D01*
X-565600D01*
X-600220Y5550850D01*
G01X-604720Y6249350D02*
X-599080D01*
X-565600Y6215870D01*
X-356650D01*
X-231180Y6090400D01*
X269600D01*
X490400Y5869600D01*
Y4563440D01*
X540540Y4513300D01*
Y4465790D01*
X540720Y4465610D01*
Y4463840D01*
X580680Y4423880D01*
G01X-604720Y6134710D02*
X-586440Y6152990D01*
X-583080D01*
X-565600Y6170470D01*
X-375460D01*
X-249990Y6045000D01*
X250790D01*
X445000Y5850790D01*
Y4544630D01*
X495140Y4494490D01*
Y4465790D01*
X495130Y4465780D01*
X453860Y4425660D01*
G54D11*
X-6090000Y3835600D03*
Y4693600D03*
X-5590000Y5260600D03*
X-5090000Y3835600D03*
X-4590000Y5260600D03*
X-4090000Y3835600D03*
Y4403600D03*
Y4943600D03*
X-3590000Y5260600D03*
X-2590000D03*
G54D21*
G01X-4035000Y990000D02*
X-3844290Y1180710D01*
G02X-3773580Y1210000I70711J-70710D01*
G01X-3521420D01*
G03X-3450710Y1239290I-1J100000D01*
G01X-3374090Y1315910D01*
G03X-3344800Y1386620I-70710J70711D01*
G01Y1729940D01*
X-3364900Y1750040D01*
G02X-3385000Y1798560I48510J48519D01*
G01Y1903580D01*
G02X-3355710Y1974290I100000J-1D01*
G01X-3315000Y2015000D01*
G01X-3745000Y1095000D02*
X-3461420D01*
G03X-3390710Y1124290I-1J100000D01*
G01X-3211390Y1303610D01*
G03X-3182100Y1374320I-70710J70711D01*
G01Y1549230D01*
G03X-3196740Y1584580I-50000J-1D01*
G01X-3217810Y1605650D01*
G02X-3247100Y1676360I70710J70711D01*
G01Y1795880D01*
G03X-3276390Y1866590I-100000J-1D01*
G01X-3315000Y1905200D01*
G01X-2575000Y1880000D02*
X-2429490Y1734490D01*
G03X-2358780Y1705200I70711J70710D01*
G01X-1166220D01*
G03X-1095510Y1734490I-1J100000D01*
G01X-739290Y2090710D01*
G03X-710000Y2161420I-70710J70711D01*
G01Y2276000D01*
G01X-2565000Y1995000D02*
X-2374290Y1804290D01*
G03X-2303580Y1775000I70711J70710D01*
G01X-1276420D01*
G03X-1205710Y1804290I-1J100000D01*
G01X-884290Y2125710D01*
G03X-855000Y2196420I-70710J70711D01*
G01Y2343580D01*
G02X-825710Y2414290I100000J-1D01*
G01X-710000Y2530000D01*
G01X452500Y1502500D02*
X-374080D01*
G03X-444790Y1473210I1J-100000D01*
G01X-486710Y1431290D01*
G03X-516000Y1360580I70710J-70711D01*
G01Y977420D01*
G02X-545290Y906710I-100000J1D01*
G01X-617710Y834290D01*
G03X-647000Y763580I70710J-70711D01*
G01Y592420D01*
G02X-676290Y521710I-100000J1D01*
G01X-880000Y318000D01*
G01X325500Y1375500D02*
X-299080D01*
G03X-369790Y1346210I1J-100000D01*
G01X-416710Y1299290D01*
G03X-446000Y1228580I70710J-70711D01*
G01Y937420D01*
G02X-475290Y866710I-100000J1D01*
G01X-505710Y836290D01*
G03X-535000Y765580I70710J-70711D01*
G01Y585420D01*
G02X-564290Y514710I-100000J1D01*
G01X-679000Y400000D01*
G54D12*
X-5460000Y380000D03*
X-5475000Y6050000D03*
X0Y0D03*
Y6300000D03*
G54D22*
G01X-2890000Y1215000D02*
X-2643420D01*
G02X-2572710Y1185710I-1J-100000D01*
G01X-1277000Y-110000D01*
G54D13*
X-5547000Y1540000D03*
Y1745000D03*
X-5737000Y1630000D03*
X-4300000Y1810000D03*
X-4510000D03*
X-3997000Y1805000D03*
G54D23*
G01X-4262000Y2095000D02*
X-3621420D01*
G03X-3550710Y2124290I-1J100000D01*
G01X-3514290Y2160710D01*
G02X-3407360Y2205000I106926J-106926D01*
G01X-3337000D01*
G01X-1627000Y5190000D02*
X-1967710Y5530710D01*
G03X-2038420Y5560000I-70711J-70710D01*
G01X-2799280D01*
G03X-2834630Y5545360I1J-50000D01*
G01X-2855700Y5524290D01*
G02X-2926410Y5495000I-70711J70710D01*
G01X-3856650D01*
G02X-3917000Y5520000I-1J85340D01*
G01X-3830000Y4420000D02*
Y4154430D01*
G03X-3800710Y4083720I100000J1D01*
G01X-3436280Y3719290D01*
G03X-3365570Y3690000I70711J70710D01*
G01X-2211420D01*
G02X-2140710Y3660710I-1J-100000D01*
G01X-2032710Y3552710D01*
G03X-1996960Y3537900I35748J35740D01*
G01X-1976010D01*
G02X-1942100Y3503990I0J-33910D01*
G01Y3487280D01*
G03X-1924300Y3444300I60780J-4D01*
G01X-1924290Y3444290D01*
G02X-1895000Y3373580I-70710J-70711D01*
G01Y3345720D01*
G03X-1865710Y3275010I100000J1D01*
G01X-1842000Y3251300D01*
G01X-1760800Y3335000D02*
X-1807710Y3381910D01*
G02X-1837000Y3452620I70710J70711D01*
G01Y3776470D01*
G03X-1844440Y3794440I-25422J0D01*
G01X-2002760Y3952760D01*
G03X-2020730Y3960200I-17970J-17982D01*
G01X-3500770D01*
G02X-3571480Y3989490I1J100000D01*
G01X-3690710Y4108720D01*
G02X-3720000Y4179430I70710J70711D01*
G01Y4378580D01*
G03X-3749290Y4449290I-100000J-1D01*
G01X-3830000Y4530000D01*
G01X-3677000Y5060000D02*
X-3207120D01*
G02X-3136410Y5030710I-1J-100000D01*
G01X-3061970Y4956270D01*
G03X-2991260Y4926980I70711J70710D01*
G01X-2988740D01*
G03X-2918030Y4956270I-1J100000D01*
G01X-2861090Y5013210D01*
G02X-2790380Y5042500I70711J-70710D01*
G01X-2588430D01*
G02X-2517720Y5013210I-1J-100000D01*
G01X-2454000Y4949490D01*
G03X-2383290Y4920200I70711J70710D01*
G01X-2318630D01*
G03X-2258010Y4980820I0J60620D01*
G01Y5041300D01*
G01X-1652000Y4855000D02*
X-1762470D01*
G03X-2005800Y4754210I0J-344122D01*
G01X-2012100Y4747910D01*
Y4697530D01*
G02X-2041390Y4626820I-100000J1D01*
G01X-2338010Y4330200D01*
X-2339790D01*
X-2362850Y4307140D01*
G02X-2380820Y4299700I-17970J17982D01*
G01X-3139180D01*
G03X-3209890Y4270410I1J-100000D01*
G01X-3225800Y4254500D01*
G01X-2095590Y4675300D02*
Y4647000D01*
G02X-2166300Y4676290I1J100000D01*
G01X-2280720Y4790710D01*
G03X-2351430Y4820000I-70711J-70710D01*
G01X-3240000D01*
G01X-1757000Y5160000D02*
X-1843160Y5073840D01*
G02X-1913870Y5044550I-70711J70710D01*
G01X-2140580D01*
G02X-2175930Y5059190I1J50000D01*
G01X-2231630Y5114890D01*
G03X-2302340Y5144180I-70711J-70710D01*
G01X-2994640D01*
G03X-3041930Y5124590I-2J-66870D01*
G02X-3089220Y5105000I-47288J47280D01*
G01X-3122000D01*
G01X-2962000Y1645000D02*
X-2715520D01*
G02X-2697550Y1637560I0J-25422D01*
G01X-2652950Y1592960D01*
G03X-2525100Y1540000I127850J127840D01*
G01X-1101420D01*
G02X-1030710Y1510710I-1J-100000D01*
G01X-1000000Y1480000D01*
G01X-3048500Y1603500D02*
Y1584440D01*
G03X-3019210Y1513730I100000J1D01*
G01X-2894770Y1389290D01*
G03X-2824060Y1360000I70711J70710D01*
G01X-1130500D01*
G01X-2122000Y1645000D02*
X-843420D01*
G03X-772710Y1674290I-1J100000D01*
G01X-465790Y1981210D01*
G02X-395080Y2010500I70711J-70710D01*
G01X-55500D01*
G01X-1000000Y1480000D02*
X-841410D01*
G03X-770700Y1509290I-1J100000D01*
G01X-489280Y1790710D01*
G02X-418570Y1820000I70711J-70710D01*
G01X347580D01*
G03X418290Y1849290I-1J100000D01*
G01X452500Y1883500D01*
G01X-1130500Y1360000D02*
X-1126890Y1356390D01*
G03X-1056180Y1327100I70711J70710D01*
G01X-889270D01*
G03X-849560Y1343550I2J56150D01*
G01X-833110Y1360000D01*
X-831430D01*
G03X-760720Y1389290I-1J100000D01*
G01X-422800Y1727210D01*
G02X-352090Y1756500I70711J-70710D01*
G01X452500D01*
G01X-1197000Y4125000D02*
X-938390Y3866390D01*
G03X-867680Y3837100I70711J70710D01*
G01X108480D01*
G02X179190Y3807810I-1J-100000D01*
G01X325500Y3661500D01*
G01X-655360Y3273360D02*
X-793610Y3135110D01*
G03X-822900Y3064400I70710J-70711D01*
G01Y2684320D01*
G03X-793610Y2613610I100000J1D01*
G01X-710000Y2530000D01*
G01X-632000Y3395000D02*
X-599290Y3362290D01*
G02X-570000Y3291580I-70710J-70711D01*
G01Y2457420D01*
G02X-599290Y2386710I-100000J1D01*
G01X-710000Y2276000D01*
G01X-570000Y3490000D02*
X-554790Y3505210D01*
G02X-484080Y3534500I70711J-70710D01*
G01X325500D01*
G01X-795000Y4630000D02*
X-237970Y4072970D01*
G03X-167260Y4043680I70711J70710D01*
G01X327660D01*
G54D14*
X-4132000Y1265000D03*
X-3567000Y3230000D03*
G54D15*
X-3810000Y3835600D03*
Y5260600D03*
X-3340000Y3835600D03*
Y5260600D03*
X-2840000Y3835600D03*
Y5260600D03*
X-2380000Y4068100D03*
Y4548100D03*
Y5028100D03*
G54D16*
X-3966000Y3580000D03*
X-3712000D03*
X-3458000D03*
X-3010000Y3190000D03*
X-3264000D03*
X-2756000D03*
X-1531000Y-110000D03*
X-1412000Y481000D03*
Y735000D03*
Y989000D03*
X-1023000Y-110000D03*
X-1277000D03*
X-769000D03*
X-710000Y2530000D03*
Y2276000D03*
Y2784000D03*
Y3696000D03*
Y3950000D03*
Y4204000D03*
G54D17*
X-3090000Y3835600D03*
G54D18*
X-2990000Y4070000D03*
Y5030000D03*
X-106500Y434500D03*
X198500Y5872500D03*
G54D19*
G01X592200Y-174500D02*
X598200Y-183830D01*
X606200Y-189170D01*
X615200Y-190500D01*
X623200Y-189170D01*
X631200Y-182500D01*
X636200Y-174500D01*
X637200Y-166500D01*
X635200Y-157170D01*
X628200Y-150500D01*
X621200Y-147830D01*
X612200D01*
G01X621200D02*
X627200Y-143830D01*
X632200Y-137170D01*
X634200Y-129170D01*
X632200Y-121170D01*
X627200Y-114500D01*
X618200Y-110500D01*
X609200Y-111830D01*
X600200Y-117170D01*
M02*
