G04 ================== begin FILE IDENTIFICATION RECORD ==================*
G04 Layout Name:  pc069c_toplevel_19.brd*
G04 Film Name:    art_L1_TOP_pc069b*
G04 File Format:  Gerber RS274X*
G04 File Origin:  Cadence Allegro 23.1-P001*
G04 Origin Date:  Tue Dec  3 17:58:06 2024*
G04 *
G04 Layer:  VIA CLASS/TOP*
G04 Layer:  PIN/TOP*
G04 Layer:  ETCH/TOP*
G04 *
G04 Offset:    (0.0000 0.0000)*
G04 Mirror:    No*
G04 Mode:      Positive*
G04 Rotation:  0*
G04 FullContactRelief:  No*
G04 UndefLineWidth:     0.2540*
G04 ================== end FILE IDENTIFICATION RECORD ====================*
%FSLAX25Y25*MOMM*%
%IR0*IPPOS*OFA0.00000B0.00000*MIA0B0*SFA1.00000B1.00000*%
%ADD24R,.9X1.*%
%ADD32R,1.X.9*%
%ADD26R,1.5X.45*%
%ADD10C,.6*%
%AMMACRO20*
21,1,.6,.6,0.0,0.0,45.*%
%ADD20MACRO20*%
%ADD15R,.6X.6*%
%ADD12R,1.651X.889*%
%ADD19R,1.X1.05*%
%ADD27R,1.05X1.*%
%ADD25R,1.05X2.2*%
%ADD18R,2.2X1.05*%
%ADD29C,1.*%
%ADD16C,1.2*%
%ADD31R,1.55X2.7*%
%ADD30R,2.7X1.55*%
%ADD22C,1.6*%
%ADD23C,1.7*%
%ADD14C,3.302*%
%ADD28C,1.524*%
%ADD33R,.95X.7*%
%ADD13C,1.75*%
%ADD21C,1.397*%
%ADD11R,2.667X1.651*%
%ADD17R,1.778X3.429*%
%ADD34C,.1*%
%ADD35C,.3*%
%ADD36C,.4*%
%ADD37C,.25*%
%ADD38C,.254*%
%ADD39C,.354*%
%ADD42C,1.0544*%
%ADD41C,2.1544*%
%ADD40C,1.6544*%
G75*
%LPD*%
G75*
G36*
G01X-6100000Y500000D02*
G02I-100000J0D01*
G37*
G36*
G01X-5536650Y2785000D02*
X-5374030D01*
Y2779870D01*
Y2779310D01*
G03X-5362000Y2745790I52715J0D01*
G01Y1982100D01*
G02X-5373750Y1972070I-10160J5D01*
G03X-5382000Y1972720I-8253J-52070D01*
G03X-5412310Y1963130I8J-52718D01*
G02X-5419210Y1964130I-2920J4159D01*
G03X-5422870Y1967790I-17790J-14130D01*
G02X-5423870Y1974690I3159J3980D01*
G03X-5414280Y2005000I-43128J30318D01*
G03X-5519720I-52720J0D01*
G03X-5516340Y1986440I52718J13D01*
G02X-5526210Y1972710I-9510J-3576D01*
G03X-5527000Y1972720I-683J-22711D01*
G01X-5587000D01*
G03X-5609720Y1950000I0J-22720D01*
G01Y1890000D01*
G03X-5587000Y1867280I22720J0D01*
G01X-5527000D01*
G03X-5512000Y1872940I0J22706D01*
G03X-5497000Y1867280I15000J17046D01*
G01X-5437000D01*
G03X-5419210Y1875870I0J22717D01*
G02X-5412310Y1876870I3980J-3159D01*
G03X-5382000Y1867280I30318J43128D01*
G03X-5373750Y1867930I-3J52720D01*
G02X-5362000Y1857900I1590J-10035D01*
G01Y1600000D01*
X-5490060D01*
G03X-5603940I-56940J-59990D01*
G01X-5646260D01*
G02X-5656190Y1612330I-5J10160D01*
G03X-5654280Y1630000I-80810J17673D01*
G03X-5819720I-82720J0D01*
G03X-5817810Y1612330I82720J3D01*
G02X-5827740Y1600000I-9925J-2170D01*
G01X-6367000D01*
Y2785000D01*
X-5984430D01*
G03X-5905570I39430J35009D01*
G01X-5623350D01*
G03X-5536650I43350J29996D01*
G37*
G36*
G01X-6100000Y5900000D02*
G02I-100000J0D01*
G37*
G36*
G01X13000Y5327980D02*
X12700Y600000D01*
G02X-46590Y508660I-100003J0D01*
G03X-106500Y529840I-59916J-74158D01*
G03X-175780Y500000I0J-95344D01*
G01X-540000D01*
G03X-640000Y400000I0J-100000D01*
G01Y-130000D01*
G02X-740000Y-230000I-100000J0D01*
G01X-1226560Y-226670D01*
G02X-1230850Y-207330I64J10160D01*
G03X-1169280Y-110000I-46145J97330D01*
G03X-1384720I-107720J0D01*
G03X-1324480Y-206690I107718J0D01*
G02X-1329030Y-225970I-4477J-9120D01*
G01X-1477100Y-224960D01*
G02X-1481680Y-205770I73J10159D01*
G03X-1423280Y-110000I-49326J95770D01*
G03X-1638720I-107720J0D01*
G03X-1581620Y-205080I107711J0D01*
G02X-1586470Y-224210I-4776J-8969D01*
G01X-2201930Y-220000D01*
X-4235000D01*
Y520000D01*
X-4320000Y605000D01*
X-5792000D01*
Y830990D01*
G02X-5778330Y840530I10160J5D01*
G03X-5760110Y837280I18224J49469D01*
G03Y942720I0J52720D01*
G03X-5778330Y939470I4J-52719D01*
G02X-5792000Y949010I-3510J9535D01*
G01Y977280D01*
X-5735000D01*
G03X-5713640Y992250I0J22724D01*
G02X-5712170Y995390I29729J-12003D01*
G03X-5655790Y1027450I-39243J134616D01*
G03X-5607280Y1080000I-4208J52550D01*
G03X-5660000Y1132720I-52720J0D01*
G03X-5712520Y1084610I0J-52722D01*
G02X-5721480Y1078260I-38899J45392D01*
G03X-5735000Y1082720I-13520J-18262D01*
G01X-5792000D01*
Y1450000D01*
X-5560220D01*
G02X-5552110Y1433730I-3J-10158D01*
G03X-5562720Y1402000I42113J-31721D01*
G03X-5457280I52720J0D01*
G03X-5467890Y1433730I-52723J9D01*
G02X-5459780Y1450000I8113J6112D01*
G01X-5246880D01*
X-4758440Y961560D01*
G03X-4730000Y949780I28440J28441D01*
G01X-4069080D01*
G03X-4035000Y937280I34080J40208D01*
G03Y1042720I0J52720D01*
G03X-4069080Y1030220I0J-52708D01*
G01X-4713340D01*
X-4736000Y1052880D01*
G02X-4728780Y1070220I7187J7181D01*
G01X-4400830D01*
G03X-4392940Y1086780I1J10159D01*
G02X-4404720Y1120000I40951J33220D01*
G01Y1120020D01*
G02X-4404250Y1127030I52723J-14D01*
G02X-4386840Y1132700I10070J-1355D01*
G03X-4377730Y1125690I27413J26200D01*
G03X-4345060Y1107020I32670J19249D01*
G01X-4335660D01*
X-4296820Y1068190D01*
G03X-4270010Y1057080I26816J26808D01*
G01X-3781630D01*
G03X-3745000Y1042280I36630J37930D01*
G03Y1147720I0J52720D01*
G03X-3781630Y1132920I0J-52730D01*
G01X-4254300D01*
X-4293140Y1171750D01*
G03X-4319950Y1182860I-26816J-26808D01*
G01X-4327030D01*
X-4328440Y1184020D01*
G03X-4336240Y1189550I-41535J-50318D01*
G01X-4336770Y1189870D01*
X-4546580Y1399670D01*
X-4546870Y1401200D01*
G03X-4557290Y1420800I-37225J-7220D01*
G01X-4569140Y1432660D01*
G02X-4561960Y1450000I7186J7181D01*
G01X-4370630D01*
X-4218570Y1297940D01*
X-4219590Y1294950D01*
G03X-4224570Y1265000I87589J-29953D01*
G03X-4132000Y1357570I92570J0D01*
G03X-4161950Y1352590I3J-92569D01*
G01X-4164940Y1351570D01*
X-4246030Y1432660D01*
G02X-4238850Y1450000I7186J7181D01*
G01X-4207910D01*
G03X-4112090I47910J22000D01*
G01X-4097910D01*
G03X-4002090I47910J22000D01*
G01X-3917000D01*
X-3912000Y1445000D01*
X-3910310Y1446690D01*
X-3826100Y1362480D01*
G03X-3728580Y1322080I97528J97518D01*
G01X-3227940D01*
G03X-3130420Y1362480I-8J137918D01*
G01X-2964480Y1528420D01*
G03X-2925380Y1607080I-97521J97523D01*
G03X-2909280Y1645000I-36606J37920D01*
G03X-2962000Y1697720I-52720J0D01*
G03X-3013010Y1658330I0J-52724D01*
G02X-3026980Y1651630I-9826J2574D01*
G03X-3048500Y1656220I-21515J-48131D01*
G03X-3100870Y1609560I0J-52719D01*
G01X-3101070Y1607810D01*
X-3211150Y1497730D01*
G02X-3253420Y1480220I-42272J42270D01*
G01X-3728580D01*
G02X-3770850Y1497730I2J59780D01*
G01X-3887000Y1613880D01*
Y1854980D01*
X-3856400D01*
G03X-3810000Y1827280I46400J25012D01*
G03X-3757280Y1880000I0J52720D01*
G03X-3766030Y1909090I-52731J0D01*
G02X-3757560Y1924860I8469J5611D01*
G01X-3734200D01*
G02X-3702580Y1916200I-6J-62079D01*
G03X-3650000Y1867280I52580J3797D01*
G03X-3597280Y1920000I0J52720D01*
G03X-3618390Y1962200I-52723J6D01*
G02X-3619490Y1977510I6087J8132D01*
G01X-3570060Y2026940D01*
G02X-3552720Y2019750I7180J-7188D01*
G01Y1975000D01*
G03X-3546570Y1959450I22734J0D01*
G02Y1945550I-7405J-6950D01*
G03X-3552720Y1930000I16584J-15550D01*
G01Y1870000D01*
G03X-3547760Y1855830I22721J0D01*
G03X-3557720Y1825000I42758J-30837D01*
G03X-3557290Y1818310I52718J30D01*
G02X-3565700Y1807000I-10078J-1288D01*
G03X-3609720Y1755000I8703J-52000D01*
G03X-3504280I52720J0D01*
G03X-3504710Y1761690I-52718J-30D01*
G02X-3496300Y1773000I10078J1288D01*
G03X-3469690Y1785860I-8715J51993D01*
G02X-3452720Y1778310I6808J-7544D01*
G01Y1745000D01*
G03X-3449480Y1733300I22722J-6D01*
G03X-3457720Y1705000I44478J-28300D01*
G03X-3352280I52720J0D01*
G03X-3352630Y1711050I-52719J-15D01*
G02X-3341750Y1722350I10094J1169D01*
G03X-3340000Y1722280I1782J22649D01*
G01X-3280000D01*
G03X-3261030Y1732500I0J22716D01*
G01X-3259520Y1734780D01*
X-3214080D01*
G03X-3180000Y1722280I34080J40208D01*
G03X-3127280Y1775000I0J52720D01*
G03X-3133520Y1799890I-52722J10D01*
G02X-3093700Y1827280I77774J-70428D01*
G01X-3081630D01*
X-3080240Y1826180D01*
G03X-3047500Y1814780I32740J41313D01*
G03Y1920220I0J52720D01*
G03X-3072330Y1914000I12J-52717D01*
G02X-3087280Y1922970I-4788J8963D01*
G01Y1955000D01*
G03X-3089600Y1965000I-22712J0D01*
G03X-3087280Y1975000I-20392J10000D01*
G01Y2020000D01*
G03X-3089600Y2030000I-22712J0D01*
G03X-3087280Y2040000I-20392J10000D01*
G01Y2085000D01*
G03X-3110000Y2107720I-22720J0D01*
G01X-3110870D01*
G02X-3118060Y2125060I-3J10160D01*
G01X-3108340Y2134780D01*
X-3065480D01*
X-3063970Y2132500D01*
G03X-3045000Y2122280I18970J12496D01*
G01X-2985000D01*
G03X-2970000Y2127940I0J22706D01*
G03X-2955000Y2122280I15000J17046D01*
G01X-2895000D01*
G03X-2872280Y2145000I0J22720D01*
G01Y2205000D01*
G03X-2895000Y2227720I-22720J0D01*
G01X-2935360D01*
G02X-2942090Y2245490I-2J10159D01*
G03X-2924280Y2285000I-34920J39510D01*
G03X-2977000Y2337720I-52720J0D01*
G03X-3007310Y2328130I8J-52718D01*
G02X-3014210Y2329130I-2920J4159D01*
G03X-3032000Y2337720I-17790J-14127D01*
G01X-3092000D01*
G03X-3107000Y2332060I0J-22706D01*
G03X-3122000Y2337720I-15000J-17046D01*
G01X-3182000D01*
G03X-3199790Y2329130I0J-22717D01*
G02X-3206690Y2328130I-3980J3159D01*
G03X-3210600Y2330630I-30326J-43122D01*
G01X-3211170Y2330960D01*
X-3215240Y2335030D01*
X-2889480Y2660790D01*
G03X-2849660Y2745680I-97518J97528D01*
G01X-2849490Y2747510D01*
X-2652000Y2945000D01*
X-2192750D01*
X-2192150Y3152280D01*
X-2162000D01*
G03X-2143030Y3162500I0J22716D01*
G01X-2141520Y3164780D01*
X-2096300D01*
G03X-2050000Y3137280I46300J25226D01*
G03Y3242720I0J52720D01*
G03X-2060770Y3241610I-9J-52721D01*
G03X-2086200Y3245220I-25437J-87810D01*
G01X-2141520D01*
X-2143030Y3247500D01*
G03X-2162000Y3257720I-18970J-12496D01*
G01X-2191840D01*
X-2187550Y4728700D01*
G02X-2169730Y4735340I10160J-35D01*
G03X-2130000Y4717280I39730J34671D01*
G03X-2077280Y4770000I0J52720D01*
G03X-2089780Y4804080I-52708J0D01*
G01Y4874520D01*
X-2087500Y4876030D01*
G03X-2077280Y4895000I-12496J18970D01*
G01Y4955000D01*
G03X-2082940Y4970000I-22706J0D01*
G03X-2077280Y4985000I-17046J15000D01*
G01Y5045000D01*
G03X-2089190Y5064980I-22714J0D01*
G02X-2096020Y5069650I19073J35225D01*
G03X-2084580Y5102450I-41282J32793D01*
G03X-2137300Y5155170I-52720J0D01*
G03X-2169870Y5143900I7J-52718D01*
G02X-2186310Y5151920I-6279J7989D01*
G01X-2186020Y5250260D01*
X-2183510Y5251720D01*
G03X-2157280Y5297300I-26487J45580D01*
G03X-2160320Y5314930I-52718J-13D01*
G02X-2152460Y5319620I33104J-46548D01*
G01X-2152430Y5319640D01*
X-2151370Y5320160D01*
X-2118890Y5320300D01*
X-2117800Y5319750D01*
G03X-2117540Y5319620I10290J20255D01*
G02X-2109680Y5314930I-25244J-51238D01*
G03X-2112720Y5297300I49678J-17643D01*
G03X-2007280I52720J0D01*
G03X-2010320Y5314930I-52718J-13D01*
G02X-2002460Y5319620I33104J-46548D01*
G03X-2001360Y5320200I-10042J20379D01*
G01X-2000210Y5320840D01*
X-1970000Y5320980D01*
X-1968820Y5320300D01*
G03X-1967540Y5319620I11294J19714D01*
G02X-1959680Y5314930I-25244J-51238D01*
G03X-1962720Y5297300I49678J-17643D01*
G03X-1857280I52720J0D01*
G03X-1860320Y5314930I-52718J-13D01*
G02X-1852460Y5319620I33104J-46548D01*
G03X-1850420Y5320760I-10048J20376D01*
G01X-1849190Y5321530D01*
X-245120Y5328830D01*
G02X-234970Y5317670I40J-10160D01*
G03X-235220Y5312500I52472J-5128D01*
G03X-129780I52720J0D01*
G03X-130080Y5318150I-52722J34D01*
G02X-120030Y5329400I10102J1090D01*
G01X-118060D01*
G02X-107920Y5318150I42J-10157D01*
G03X-108220Y5312500I52422J-5616D01*
G03X-2780I52720J0D01*
G03X-3140Y5318630I-52719J-20D01*
G02X13000Y5327980I10092J1185D01*
G37*
G36*
G01X-5709120Y1040720D02*
G02X-5735010Y1060000I13189J44734D01*
G01X-5768730Y1029630D01*
X-5735010Y1000000D01*
G02X-5708530Y1029140I51073J-19809D01*
G03X-5709120Y1040720I-14110J5086D01*
G37*
G36*
G01X-5913410Y1023300D02*
G02X-5885000Y1000000I-16452J-49030D01*
G01X-5851250Y1030000D01*
X-5885000Y1060000D01*
G02X-5913410Y1036700I-44862J25730D01*
G03Y1023300I13420J-6700D01*
G37*
G36*
G01X-5542000Y2961700D02*
Y2807720D01*
X-5647280D01*
Y2915000D01*
G03X-5648270Y2921650I-22722J16D01*
G02X-5638560Y2934780I9714J2972D01*
G01X-5577500D01*
G03X-5555460Y2951980I0J22721D01*
G02X-5551330Y2959400I54196J-25306D01*
G01X-5549830Y2961700D01*
X-5542000D01*
G37*
G36*
G01X-5982000Y3710000D02*
X-5542000D01*
Y3451140D01*
G02X-5550670Y3447550I-5080J4D01*
G01X-5554780Y3451660D01*
Y3522500D01*
G03X-5577500Y3545220I-22720J0D01*
G01X-5638560D01*
G02X-5648270Y3558350I4J10158D01*
G03X-5647280Y3565000I-21732J6634D01*
G01Y3670000D01*
G03X-5670000Y3692720I-22720J0D01*
G01X-5890000D01*
G03X-5912720Y3670000I0J-22720D01*
G01Y3565000D01*
G03X-5890000Y3542280I22720J0D01*
G01X-5708940D01*
G02X-5699230Y3529150I-4J-10158D01*
G03X-5700220Y3522500I21732J-6634D01*
G01Y3417500D01*
G03X-5699230Y3410850I22722J-16D01*
G02X-5708940Y3397720I-9714J-2972D01*
G01X-5890000D01*
G03X-5912720Y3375000I0J-22720D01*
G01Y3270000D01*
G03X-5890000Y3247280I22720J0D01*
G01X-5670000D01*
G03X-5647280Y3270000I0J22720D01*
G01Y3375000D01*
G03X-5648270Y3381650I-22722J16D01*
G02X-5638560Y3394780I9714J2972D01*
G01X-5611660D01*
X-5566400Y3349520D01*
G03X-5546060Y3338560I28445J28436D01*
G01X-5542000Y3337730D01*
Y3071900D01*
X-5550810Y3063090D01*
X-5555320Y3067600D01*
X-5555690Y3068850D01*
G03X-5577500Y3085220I-21810J-6344D01*
G01X-5638560D01*
G02X-5648270Y3098350I4J10158D01*
G03X-5647280Y3105000I-21732J6634D01*
G01Y3210000D01*
G03X-5670000Y3232720I-22720J0D01*
G01X-5890000D01*
G03X-5912720Y3210000I0J-22720D01*
G01Y3105000D01*
G03X-5890000Y3082280I22720J0D01*
G01X-5708940D01*
G02X-5699230Y3069150I-4J-10158D01*
G03X-5700220Y3062500I21732J-6634D01*
G01Y2957500D01*
G03X-5699230Y2950850I22722J-16D01*
G02X-5708940Y2937720I-9714J-2972D01*
G01X-5890000D01*
G03X-5912720Y2915000I0J-22720D01*
G01Y2807720D01*
X-5982000D01*
Y3710000D01*
G37*
G36*
G01X-5534100Y3017620D02*
G02X-5577500Y3061700I32826J75725D01*
G01X-5631250Y3010000D01*
X-5577500Y2958300D01*
G02X-5534100Y3002380I76226J-31645D01*
G03Y3017620I-12920J7620D01*
G37*
G36*
G01X-5166580Y1771510D02*
G02X-5136820Y1790750I40339J-29760D01*
G01X-5134710Y1836280D01*
X-5179250Y1833180D01*
G02X-5183260Y1783050I-65024J-20024D01*
G03X-5166580Y1771510I14629J3320D01*
G37*
G36*
G01X-5473700Y1978410D02*
G02X-5497000Y1950000I-49030J16452D01*
G01X-5467000Y1916250D01*
X-5437000Y1950000D01*
G02X-5460300Y1978410I25730J44862D01*
G03X-5473700I-6700J-13420D01*
G37*
G36*
G01X-5408590Y1926700D02*
G02X-5437000Y1950000I16452J49030D01*
G01X-5470750Y1920000D01*
X-5437000Y1890000D01*
G02X-5408590Y1913300I44862J-25730D01*
G03Y1926700I-13420J6700D01*
G37*
G36*
G01X-5036620Y1942860D02*
G02X-5073180Y1939250I-23025J46249D01*
G01X-5075830Y1894170D01*
X-5030750Y1896820D01*
G02X-5027140Y1933380I49859J13535D01*
G03X-5036620Y1942860I-14230J-4750D01*
G37*
G36*
G01X-5037000Y3310000D02*
X-3890630D01*
X-3737000Y3156370D01*
Y2010000D01*
X-4502650D01*
X-4503760Y2013570D01*
G03X-4604440I-50340J-15674D01*
G01X-4605550Y2010000D01*
X-4864080D01*
Y2033370D01*
G03X-4849280Y2070000I-37930J36630D01*
G03X-4954720I-52720J0D01*
G03X-4939920Y2033370I52730J0D01*
G01Y2010000D01*
X-5037000D01*
Y2176040D01*
G03X-4979270Y2210850I-41417J133963D01*
G01X-4947690Y2242430D01*
X-4945940Y2242630D01*
G03X-4899280Y2295000I-6059J52370D01*
G03X-4952000Y2347720I-52720J0D01*
G03X-5004370Y2301060I0J-52719D01*
G01X-5004570Y2299310D01*
X-5019660Y2284220D01*
G02X-5037000Y2291410I-7180J7187D01*
G01Y3310000D01*
G37*
G36*
G01X-4654750Y5770400D02*
G02X-4700000Y5815000I32393J78120D01*
G01X-4813750Y5762500D01*
X-4700000Y5710000D01*
G02X-4654750Y5754600I77643J-33520D01*
G03Y5770400I-12750J7900D01*
G37*
G36*
G01X-4969700Y5753780D02*
G02X-4920000Y5710000I-29082J-83115D01*
G01X-4806250Y5762500D01*
X-4920000Y5815000D01*
G02X-4969700Y5771220I-78782J39335D01*
G03Y5753780I12210J-8720D01*
G37*
G36*
G01X-4650300Y6066220D02*
G02X-4700000Y6110000I29082J83115D01*
G01X-4813750Y6057500D01*
X-4700000Y6005000D01*
G02X-4650300Y6048780I78782J-39335D01*
G03Y6066220I-12210J8720D01*
G37*
G36*
G01X-4969700Y6048780D02*
G02X-4920000Y6005000I-29082J-83115D01*
G01X-4806250Y6057500D01*
X-4920000Y6110000D01*
G02X-4969700Y6066220I-78782J39335D01*
G03Y6048780I12210J-8720D01*
G37*
G36*
G01X-4557590Y5917670D02*
G02X-4607500Y5962500I29823J83401D01*
G01X-4660680Y5910000D01*
X-4607500Y5857500D01*
G02X-4557590Y5902330I79733J-38571D01*
G03Y5917670I-10120J7670D01*
G37*
G36*
G01X-3506700Y2063410D02*
G02X-3530000Y2035000I-49030J16452D01*
G01X-3500000Y2001250D01*
X-3470000Y2035000D01*
G02X-3493300Y2063410I25730J44862D01*
G03X-3506700I-6700J-13420D01*
G37*
G36*
G01X-3493300Y1841590D02*
G02X-3470000Y1870000I49030J-16452D01*
G01X-3500000Y1903750D01*
X-3530000Y1870000D01*
G02X-3506700Y1841590I-25730J-44862D01*
G03X-3493300I6700J13420D01*
G37*
G36*
G01X-3642000Y3035000D02*
X-3157000D01*
Y2505000D01*
X-3257280D01*
Y2530000D01*
G03X-3280000Y2552720I-22720J0D01*
G01X-3351620D01*
G02X-3361360Y2565770I-1J10159D01*
G03X-3355670Y2600700I-134444J39829D01*
G02X-3342210Y2610310I38140J-39188D01*
G03X-3320580Y2633000I-1086J22690D01*
G01Y2694060D01*
G02X-3307450Y2703770I10158J-4D01*
G03X-3300800Y2702780I6634J21732D01*
G01X-3195800D01*
G03X-3173080Y2725500I0J22720D01*
G01Y2945500D01*
G03X-3195800Y2968220I-22720J0D01*
G01X-3300800D01*
G03X-3323520Y2945500I0J-22720D01*
G01Y2764440D01*
G02X-3336650Y2754730I-10158J4D01*
G03X-3343300Y2755720I-6634J-21732D01*
G01X-3448300D01*
G03X-3454950Y2754730I-16J-22722D01*
G02X-3468080Y2764440I-2972J9714D01*
G01Y2945500D01*
G03X-3490800Y2968220I-22720J0D01*
G01X-3595800D01*
G03X-3618520Y2945500I0J-22720D01*
G01Y2725500D01*
G03X-3595800Y2702780I22720J0D01*
G01X-3490800D01*
G03X-3484150Y2703770I16J22722D01*
G02X-3471020Y2694060I2972J-9714D01*
G01Y2633000D01*
G03X-3449390Y2610310I22716J0D01*
G02X-3436200Y2600960I-24682J-48797D01*
G02X-3453530Y2563350I-59598J4664D01*
G01X-3464160Y2552720D01*
X-3520000D01*
G03X-3542720Y2530000I0J-22720D01*
G01Y2505000D01*
X-3642000D01*
Y3035000D01*
G37*
G36*
G01X-3479900Y2405810D02*
G02X-3430000Y2430010I54749J-49344D01*
G01X-3474620Y2483100D01*
X-3520000Y2430010D01*
G02X-3486510Y2406100I-13364J-54128D01*
G03X-3479900Y2405810I3833J11899D01*
G37*
G36*
G01X-3494310Y4247800D02*
G02X-3465900Y4224500I-16452J-49030D01*
G01X-3432150Y4254500D01*
X-3465900Y4284500D01*
G02X-3494310Y4261200I-44862J25730D01*
G03Y4247800I13420J-6700D01*
G37*
G36*
G01Y4565300D02*
G02X-3465900Y4542000I-16452J-49030D01*
G01X-3432150Y4572000D01*
X-3465900Y4602000D01*
G02X-3494310Y4578700I-44862J25730D01*
G03Y4565300I13420J-6700D01*
G37*
G36*
G01Y4374800D02*
G02X-3465900Y4351500I-16452J-49030D01*
G01X-3432150Y4381500D01*
X-3465900Y4411500D01*
G02X-3494310Y4388200I-44862J25730D01*
G03Y4374800I13420J-6700D01*
G37*
G36*
G01Y4692300D02*
G02X-3465900Y4669000I-16452J-49030D01*
G01X-3432150Y4699000D01*
X-3465900Y4729000D01*
G02X-3494310Y4705700I-44862J25730D01*
G03Y4692300I13420J-6700D01*
G37*
G36*
G01Y4819300D02*
G02X-3465900Y4796000I-16452J-49030D01*
G01X-3432150Y4826000D01*
X-3465900Y4856000D01*
G02X-3494310Y4832700I-44862J25730D01*
G03Y4819300I13420J-6700D01*
G37*
G36*
G01X-3786200Y5876390D02*
G02X-3774210Y5900910I41275J-4991D01*
G01X-3805110Y5934540D01*
X-3834200Y5900910D01*
G02X-3797970Y5874880I-15060J-59189D01*
G03X-3786200Y5876390I4132J14419D01*
G37*
G36*
G01X-3655790Y5937600D02*
G02X-3684200Y5960900I16452J49030D01*
G01X-3717950Y5930900D01*
X-3684200Y5900900D01*
G02X-3655790Y5924200I44862J-25730D01*
G03Y5937600I-13420J6700D01*
G37*
G36*
G01Y6051900D02*
G02X-3684200Y6075200I16452J49030D01*
G01X-3717950Y6045200D01*
X-3684200Y6015200D01*
G02X-3655790Y6038500I44862J-25730D01*
G03Y6051900I-13420J6700D01*
G37*
G36*
G01X-3810900Y6103610D02*
G02X-3834200Y6075200I-49030J16452D01*
G01X-3804200Y6041450D01*
X-3774200Y6075200D01*
G02X-3797500Y6103610I25730J44862D01*
G03X-3810900I-6700J-13420D01*
G37*
G36*
G01X-3397560Y1711980D02*
G02X-3370000Y1745000I56048J-18769D01*
G01X-3399630Y1778730D01*
X-3430000Y1745000D01*
G02X-3414370Y1713290I-34219J-36574D01*
G03X-3397560Y1711980I9369J11718D01*
G37*
G36*
G01X-3356030Y1864980D02*
X-3349130D01*
X-3347740Y1863880D01*
G03X-3315000Y1852480I32740J41313D01*
G03X-3296430Y1855860I-3J52719D01*
G02X-3282700Y1845930I3578J-9509D01*
G03X-3282720Y1845000I22699J-953D01*
G03X-3282180Y1840080I22720J4D01*
G02X-3292100Y1827720I-9919J-2200D01*
G01X-3340000D01*
G03X-3355000Y1822060I0J-22706D01*
G03X-3370000Y1827720I-15000J-17046D01*
G01X-3430000D01*
G03X-3438950Y1825880I7J-22719D01*
G02X-3452980Y1833570I-4004J9338D01*
G03X-3453300Y1835300I-51992J-8723D01*
G02X-3442300Y1847400I9965J1991D01*
G03X-3440000Y1847280I2332J22598D01*
G01X-3380000D01*
G03X-3360090Y1859060I0J22715D01*
G02X-3356030Y1864980I32198J-17730D01*
G37*
G36*
G01X-3295610Y2251780D02*
G02X-3278780Y2252850I8775J-5125D01*
G03X-3237000Y2232280I41780J32145D01*
G03X-3206690Y2241870I-8J52718D01*
G02X-3199790Y2240870I2920J-4159D01*
G03X-3182000Y2232280I17790J14127D01*
G01X-3122000D01*
G03X-3107000Y2237940I0J22706D01*
G03X-3092000Y2232280I15000J17046D01*
G01X-3061730D01*
X-3058680Y2223140D01*
G03X-3063970Y2217500I13684J-18136D01*
G01X-3065480Y2215220D01*
X-3125000D01*
G03X-3153440Y2203440I0J-40221D01*
G01X-3213440Y2143440D01*
G03X-3224950Y2119660I28439J-28441D01*
G02X-3241140Y2107720I-42643J40875D01*
G01X-3260000D01*
G03X-3282720Y2085000I0J-22720D01*
G01Y2073860D01*
G02X-3296450Y2064350I-10159J1D01*
G03X-3315000Y2067720I-18547J-49351D01*
G03X-3349080Y2055220I0J-52708D01*
G01X-3369580D01*
X-3370580Y2055680D01*
G03X-3380000Y2057720I-9410J-20682D01*
G01X-3437160D01*
G02X-3447310Y2068220I4J10160D01*
G03X-3447280Y2070000I-52690J1778D01*
G03X-3468390Y2112200I-52723J6D01*
G02X-3469490Y2127510I6087J8132D01*
G01X-3411050Y2185950D01*
G02X-3393870Y2180580I7183J-7185D01*
G03X-3342000Y2137280I51870J9418D01*
G03X-3289280Y2190000I0J52720D01*
G03X-3303800Y2226340I-52722J5D01*
G02X-3295610Y2251780I61804J-5858D01*
G37*
G36*
G01X-3251590Y1781700D02*
G02X-3280000Y1805000I16452J49030D01*
G01X-3313750Y1775000D01*
X-3280000Y1745000D01*
G02X-3251590Y1768300I44862J-25730D01*
G03Y1781700I-13420J6700D01*
G37*
G36*
G01X-3088280Y1872240D02*
G02X-3110000Y1890000I14341J39700D01*
G01X-3188750Y1867500D01*
X-3110000Y1845000D01*
G02X-3088280Y1862760I36061J-21940D01*
G03Y1872240I-14230J4740D01*
G37*
G36*
G01X-3175630Y1773300D02*
G02X-3110000Y1845000I119878J-43842D01*
G01X-3185000Y1871250D01*
X-3260000Y1845000D01*
G02X-3194370Y1773300I-54248J-115542D01*
G03X-3175630I9370J11710D01*
G37*
G36*
G01X-3348180Y1914670D02*
G02X-3380000Y1930000I4436J49896D01*
G01X-3413730Y1899610D01*
X-3380000Y1870000D01*
G02X-3346800Y1897740I52124J-28646D01*
G03X-3348180Y1914670I-13011J7461D01*
G37*
G36*
G01X-3281720Y1927760D02*
G02X-3260000Y1910000I-14341J-39700D01*
G01X-3181250Y1932500D01*
X-3260000Y1955000D01*
G02X-3281720Y1937240I-36061J21940D01*
G03Y1927760I14230J-4740D01*
G37*
G36*
G01X-3345640Y2026710D02*
G02X-3380000Y2035000I-6179J49741D01*
G01X-3413690Y2004330D01*
X-3380000Y1975000D01*
G02X-3342290Y2007050I59208J-31454D01*
G03X-3345640Y2026710I-12720J7948D01*
G37*
G36*
G01X-3281720Y1992760D02*
G02X-3260000Y1975000I-14341J-39700D01*
G01X-3181250Y1997500D01*
X-3260000Y2020000D01*
G02X-3281720Y2002240I-36061J21940D01*
G03Y1992760I14230J-4740D01*
G37*
G36*
G01X-3192580Y2127940D02*
G02X-3236220Y2085000I-75015J32592D01*
G01X-3185000Y2058750D01*
X-3133780Y2085000D01*
G02X-3177420Y2127940I31375J75532D01*
G03X-3192580I-7580J-12940D01*
G37*
G36*
G01X-3327820Y2549730D02*
G02X-3351210Y2529990I-38834J22288D01*
G01X-3325000Y2476250D01*
X-3298790Y2529990D01*
G02X-3322180Y2549730I15444J42028D01*
G03X-3327820I-2820J-14730D01*
G37*
G36*
G01X-3210410Y2278300D02*
G02X-3182000Y2255000I-16452J-49030D01*
G01X-3148250Y2285000D01*
X-3182000Y2315000D01*
G02X-3210410Y2291700I-44862J25730D01*
G03Y2278300I13420J-6700D01*
G37*
G36*
G01X-3073410Y2168300D02*
G02X-3045000Y2145000I-16452J-49030D01*
G01X-3011250Y2175000D01*
X-3045000Y2205000D01*
G02X-3073410Y2181700I-44862J25730D01*
G03Y2168300I13420J-6700D01*
G37*
G36*
G01X-3388440Y2592550D02*
G02X-3347200Y2633000I70905J-31042D01*
G01X-3395800Y2686750D01*
X-3444400Y2633000D01*
G02X-3403160Y2592550I-29665J-71492D01*
G03X-3388440I7360J13070D01*
G37*
G36*
G01X-3287610Y4260840D02*
G02X-3315900Y4284500I16108J48003D01*
G01X-3349080Y4254500D01*
X-3315900Y4224500D01*
G02X-3287610Y4248160I44398J-24343D01*
G03Y4260840I-11000J6340D01*
G37*
G36*
G01Y4578340D02*
G02X-3315900Y4602000I16108J48003D01*
G01X-3349080Y4572000D01*
X-3315900Y4542000D01*
G02X-3287610Y4565660I44398J-24343D01*
G03Y4578340I-11000J6340D01*
G37*
G36*
G01Y4387840D02*
G02X-3315900Y4411500I16108J48003D01*
G01X-3349080Y4381500D01*
X-3315900Y4351500D01*
G02X-3287610Y4375160I44398J-24343D01*
G03Y4387840I-11000J6340D01*
G37*
G36*
G01Y4705340D02*
G02X-3315900Y4729000I16108J48003D01*
G01X-3349080Y4699000D01*
X-3315900Y4669000D01*
G02X-3287610Y4692660I44398J-24343D01*
G03Y4705340I-11000J6340D01*
G37*
G36*
G01Y4959340D02*
G02X-3315900Y4983000I16108J48003D01*
G01X-3349080Y4953000D01*
X-3315900Y4923000D01*
G02X-3287610Y4946660I44398J-24343D01*
G03Y4959340I-11000J6340D01*
G37*
G36*
G01Y4832340D02*
G02X-3315900Y4856000I16108J48003D01*
G01X-3349080Y4826000D01*
X-3315900Y4796000D01*
G02X-3287610Y4819660I44398J-24343D01*
G03Y4832340I-11000J6340D01*
G37*
G36*
G01X-3003590Y2291700D02*
G02X-3032000Y2315000I16452J49030D01*
G01X-3065750Y2285000D01*
X-3032000Y2255000D01*
G02X-3003590Y2278300I44862J-25730D01*
G03Y2291700I-13420J6700D01*
G37*
G36*
G01X-2701780Y4448390D02*
G02X-2678490Y4440410I-427J-39224D01*
G01X-2644950Y4471600D01*
X-2678490Y4500400D01*
G02X-2703830Y4460260I-63403J11957D01*
G03X-2701780Y4448390I14562J-3597D01*
G37*
G36*
G01X-2714840Y4573700D02*
G02X-2678500Y4567400I10104J-49675D01*
G01X-2645390Y4598060D01*
X-2678500Y4627400D01*
G02X-2718880Y4592000I-63913J32174D01*
G03X-2714840Y4573700I10391J-7302D01*
G37*
G36*
G01X-2803000Y5493380D02*
G02X-2753300Y5449600I-29082J-83115D01*
G01X-2639550Y5502100D01*
X-2753300Y5554600D01*
G02X-2803000Y5510820I-78782J39335D01*
G03Y5493380I12210J-8720D01*
G37*
G36*
G01Y5788380D02*
G02X-2753300Y5744600I-29082J-83115D01*
G01X-2639550Y5797100D01*
X-2753300Y5849600D01*
G02X-2803000Y5805820I-78782J39335D01*
G03Y5788380I12210J-8720D01*
G37*
G36*
G01X-2895710Y5641930D02*
G02X-2845800Y5597100I-29823J-83401D01*
G01X-2792620Y5649600D01*
X-2845800Y5702100D01*
G02X-2895710Y5657270I-79733J38571D01*
G03Y5641930I10120J-7670D01*
G37*
G36*
G01X-2799700Y6073780D02*
G02X-2750000Y6030000I-29082J-83115D01*
G01X-2636250Y6082500D01*
X-2750000Y6135000D01*
G02X-2799700Y6091220I-78782J39335D01*
G03Y6073780I12210J-8720D01*
G37*
G36*
G01X-2892410Y6222330D02*
G02X-2842500Y6177500I-29823J-83401D01*
G01X-2789320Y6230000D01*
X-2842500Y6282500D01*
G02X-2892410Y6237670I-79733J38571D01*
G03Y6222330I10120J-7670D01*
G37*
G36*
G01X-2799700Y6368780D02*
G02X-2750000Y6325000I-29082J-83115D01*
G01X-2636250Y6377500D01*
X-2750000Y6430000D01*
G02X-2799700Y6386220I-78782J39335D01*
G03Y6368780I12210J-8720D01*
G37*
G36*
G01X-2340410Y3198300D02*
G02X-2312000Y3175000I-16452J-49030D01*
G01X-2278250Y3205000D01*
X-2312000Y3235000D01*
G02X-2340410Y3211700I-44862J25730D01*
G03Y3198300I13420J-6700D01*
G37*
G36*
G01X-2500090Y4604100D02*
G02X-2528500Y4627400I16452J49030D01*
G01X-2562250Y4597400D01*
X-2528500Y4567400D01*
G02X-2500090Y4590700I44862J-25730D01*
G03Y4604100I-13420J6700D01*
G37*
G36*
G01X-2555670Y4408440D02*
G02X-2528500Y4440400I53792J-18201D01*
G01X-2558260Y4473570D01*
X-2588500Y4440400D01*
G02X-2570400Y4409350I-30804J-38757D01*
G03X-2555670Y4408440I8002J9860D01*
G37*
G36*
G01X-2574920Y4854970D02*
G02X-2611600Y4812500I-71278J24486D01*
G01X-2566600Y4758750D01*
X-2521600Y4812500D01*
G02X-2558280Y4854970I34598J66956D01*
G03X-2574920I-8320J-12480D01*
G37*
G36*
G01X-2483600Y5510820D02*
G02X-2533300Y5554600I29082J83115D01*
G01X-2647050Y5502100D01*
X-2533300Y5449600D01*
G02X-2483600Y5493380I78782J-39335D01*
G03Y5510820I-12210J8720D01*
G37*
G36*
G01X-2202500Y5294960D02*
G02X-2162500Y5340000I75284J-26578D01*
G01X-2210000Y5378180D01*
X-2257500Y5340000D01*
G02X-2217500Y5294960I-35284J-71618D01*
G03X-2202500I7500J10250D01*
G37*
G36*
G01X-2218470Y5644870D02*
G02X-2257500Y5600000I-75202J26004D01*
G01X-2210000Y5561250D01*
X-2162500Y5600000D01*
G02X-2201530Y5644870I36172J70874D01*
G03X-2218470I-8470J-12380D01*
G37*
G36*
G01X-2351590Y5901700D02*
G02X-2380000Y5925000I16452J49030D01*
G01X-2413750Y5895000D01*
X-2380000Y5865000D01*
G02X-2351590Y5888300I44862J-25730D01*
G03Y5901700I-13420J6700D01*
G37*
G36*
G01X-2358410Y5888300D02*
G02X-2330000Y5865000I-16452J-49030D01*
G01X-2296250Y5895000D01*
X-2330000Y5925000D01*
G02X-2358410Y5901700I-44862J25730D01*
G03Y5888300I13420J-6700D01*
G37*
G36*
G01X-2351590Y5991700D02*
G02X-2380000Y6015000I16452J49030D01*
G01X-2413750Y5985000D01*
X-2380000Y5955000D01*
G02X-2351590Y5978300I44862J-25730D01*
G03Y5991700I-13420J6700D01*
G37*
G36*
G01X-2358410Y5978300D02*
G02X-2330000Y5955000I-16452J-49030D01*
G01X-2296250Y5985000D01*
X-2330000Y6015000D01*
G02X-2358410Y5991700I-44862J25730D01*
G03Y5978300I13420J-6700D01*
G37*
G36*
G01X-2306700Y6043410D02*
G02X-2330000Y6015000I-49030J16452D01*
G01X-2300000Y5981250D01*
X-2270000Y6015000D01*
G02X-2293300Y6043410I25730J44862D01*
G03X-2306700I-6700J-13420D01*
G37*
G36*
G01X-2480300Y6386220D02*
G02X-2530000Y6430000I29082J83115D01*
G01X-2643750Y6377500D01*
X-2530000Y6325000D01*
G02X-2480300Y6368780I78782J-39335D01*
G03Y6386220I-12210J8720D01*
G37*
G36*
G01X-2133590Y3211700D02*
G02X-2162000Y3235000I16452J49030D01*
G01X-2195750Y3205000D01*
X-2162000Y3175000D01*
G02X-2133590Y3198300I44862J-25730D01*
G03Y3211700I-13420J6700D01*
G37*
G36*
G01X-2147810Y5077990D02*
G02X-2160000Y5045000I-49875J-318D01*
G01X-2129480Y5011290D01*
X-2100000Y5045000D01*
G02X-2129610Y5080170I29881J55207D01*
G03X-2147810Y5077990I-7688J-12880D01*
G37*
G36*
G01X-2123300Y4866590D02*
G02X-2100000Y4895000I49030J-16452D01*
G01X-2130000Y4928750D01*
X-2160000Y4895000D01*
G02X-2136700Y4866590I-25730J-44862D01*
G03X-2123300I6700J13420D01*
G37*
G36*
G01X-2052500Y5294960D02*
G02X-2012500Y5340000I75284J-26578D01*
G01X-2060000Y5378180D01*
X-2107500Y5340000D01*
G02X-2067500Y5294960I-35284J-71618D01*
G03X-2052500I7500J10250D01*
G37*
G36*
G01X-1902500D02*
G02X-1862500Y5340000I75284J-26578D01*
G01X-1910000Y5378180D01*
X-1957500Y5340000D01*
G02X-1917500Y5294960I-35284J-71618D01*
G03X-1902500I7500J10250D01*
G37*
G36*
G01X-2068470Y5644870D02*
G02X-2107500Y5600000I-75202J26004D01*
G01X-2060000Y5561250D01*
X-2012500Y5600000D01*
G02X-2051530Y5644870I36172J70874D01*
G03X-2068470I-8470J-12380D01*
G37*
G36*
G01X-1918470D02*
G02X-1957500Y5600000I-75202J26004D01*
G01X-1910000Y5561250D01*
X-1862500Y5600000D01*
G02X-1901530Y5644870I36172J70874D01*
G03X-1918470I-8470J-12380D01*
G37*
G36*
G01X-1505600Y5491680D02*
G02X-1455900Y5447900I-29082J-83115D01*
G01X-1342150Y5500400D01*
X-1455900Y5552900D01*
G02X-1505600Y5509120I-78782J39335D01*
G03Y5491680I12210J-8720D01*
G37*
G36*
G01X-1732560Y5772500D02*
G02X-1770000Y5805000I21607J62706D01*
G01X-1803130Y5775530D01*
X-1770000Y5745000D01*
G02X-1735410Y5755230I30421J-39266D01*
G03X-1732560Y5772500I-7658J10134D01*
G37*
G36*
G01X-1732360Y5891520D02*
G02X-1770000Y5895000I-14388J49675D01*
G01X-1803090Y5864260D01*
X-1770000Y5835000D01*
G02X-1727390Y5872600I67629J-33696D01*
G03X-1732360Y5891520I-10320J7402D01*
G37*
G36*
G01X-1735410Y6144770D02*
G02X-1770000Y6155000I-4169J49496D01*
G01X-1803130Y6124470D01*
X-1770000Y6095000D01*
G02X-1732560Y6127500I59047J-30206D01*
G03X-1735410Y6144770I-10508J7136D01*
G37*
G36*
G01X-1727390Y6027400D02*
G02X-1770000Y6065000I25019J71296D01*
G01X-1803090Y6035740D01*
X-1770000Y6005000D01*
G02X-1732360Y6008480I23252J-46195D01*
G03X-1727390Y6027400I-5350J11518D01*
G37*
G36*
G01X-1505600Y6371680D02*
G02X-1455900Y6327900I-29082J-83115D01*
G01X-1342150Y6380400D01*
X-1455900Y6432900D01*
G02X-1505600Y6389120I-78782J39335D01*
G03Y6371680I12210J-8720D01*
G37*
G36*
G01X-935810Y5450100D02*
G02X-960010Y5500000I49344J54749D01*
G01X-1013100Y5455380D01*
X-960010Y5410000D01*
G02X-936100Y5443490I54128J-13364D01*
G03X-935810Y5450100I-11899J3833D01*
G37*
G36*
G01X-1102620Y5447680D02*
G02X-1060000Y5410000I-25053J-71281D01*
G01X-1006880Y5455000D01*
X-1060000Y5500000D01*
G02X-1102620Y5462320I-67673J33601D01*
G03Y5447680I10130J-7320D01*
G37*
G36*
G01X-1186200Y5509120D02*
G02X-1235900Y5552900I29082J83115D01*
G01X-1349650Y5500400D01*
X-1235900Y5447900D01*
G02X-1186200Y5491680I78782J-39335D01*
G03Y5509120I-12210J8720D01*
G37*
G36*
G01Y5804120D02*
G02X-1235900Y5847900I29082J83115D01*
G01X-1349650Y5795400D01*
X-1235900Y5742900D01*
G02X-1186200Y5786680I78782J-39335D01*
G03Y5804120I-12210J8720D01*
G37*
G36*
G01X-1093470Y5655470D02*
G02X-1143400Y5700400I29932J83471D01*
G01X-1196520Y5647900D01*
X-1143400Y5595400D01*
G02X-1093470Y5640330I79862J-38541D01*
G03Y5655470I-9940J7570D01*
G37*
G36*
G01X-1186200Y6094120D02*
G02X-1235900Y6137900I29082J83115D01*
G01X-1349650Y6085400D01*
X-1235900Y6032900D01*
G02X-1186200Y6076680I78782J-39335D01*
G03Y6094120I-12210J8720D01*
G37*
G36*
G01X-1094290Y6240360D02*
G02X-1143400Y6285400I30464J82511D01*
G01X-1196520Y6232900D01*
X-1143400Y6180400D01*
G02X-1094290Y6225440I79574J-37471D01*
G03Y6240360I-10030J7460D01*
G37*
G36*
G01X-1186200Y6389120D02*
G02X-1235900Y6432900I29082J83115D01*
G01X-1349650Y6380400D01*
X-1235900Y6327900D01*
G02X-1186200Y6371680I78782J-39335D01*
G03Y6389120I-12210J8720D01*
G37*
G36*
G01X-646590Y5906700D02*
G02X-675000Y5930000I16452J49030D01*
G01X-708750Y5900000D01*
X-675000Y5870000D01*
G02X-646590Y5893300I44862J-25730D01*
G03Y5906700I-13420J6700D01*
G37*
G36*
G01X-853410Y5893300D02*
G02X-825000Y5870000I-16452J-49030D01*
G01X-791250Y5900000D01*
X-825000Y5930000D01*
G02X-853410Y5906700I-44862J25730D01*
G03Y5893300I13420J-6700D01*
G37*
G36*
G01X-646590Y6496700D02*
G02X-675000Y6520000I16452J49030D01*
G01X-708750Y6490000D01*
X-675000Y6460000D01*
G02X-646590Y6483300I44862J-25730D01*
G03Y6496700I-13420J6700D01*
G37*
G36*
G01X-853410Y6483300D02*
G02X-825000Y6460000I-16452J-49030D01*
G01X-791250Y6490000D01*
X-825000Y6520000D01*
G02X-853410Y6496700I-44862J25730D01*
G03Y6483300I13420J-6700D01*
G37*
G36*
G01X700000Y200000D02*
G02I-100000J0D01*
G37*
%LPC*%
G75*
G36*
G01X-5624100Y2148420D02*
Y2491320D01*
G02X-5601380Y2514040I22720J0D01*
G01X-5423580D01*
G02X-5400860Y2491320I0J-22720D01*
G01Y2148420D01*
G02X-5423580Y2125700I-22720J0D01*
G01X-5601380D01*
G02X-5624100Y2148420I0J22720D01*
G37*
G36*
G01X-6222270Y2275420D02*
Y2364320D01*
G02X-6199550Y2387040I22720J0D01*
G01X-6034450D01*
G02X-6011730Y2364320I0J-22720D01*
G01Y2275420D01*
G02X-6034450Y2252700I-22720J0D01*
G01X-6199550D01*
G02X-6222270Y2275420I0J22720D01*
G37*
G36*
G01X-6308070Y1647450D02*
Y1812550D01*
G02X-6285350Y1835270I22720J0D01*
G01X-6018650D01*
G02X-5995930Y1812550I0J-22720D01*
G01Y1647450D01*
G02X-6018650Y1624730I-22720J0D01*
G01X-6285350D01*
G02X-6308070Y1647450I0J22720D01*
G37*
G36*
G01X-6224320Y2137590D02*
G03X-6219720Y2144900I-41338J31115D01*
G02X-6199550Y2157170I20170J-10443D01*
G01X-6034450D01*
G02X-6014280Y2144900I0J-22713D01*
G03X-6002920Y2130220I45934J23810D01*
G01X-5996130D01*
X-5994740Y2131320D01*
G02X-5962000Y2142720I32740J-41313D01*
G02Y2037280I0J-52720D01*
G02X-5994740Y2048680I0J52713D01*
G01X-5996130Y2049780D01*
X-6002920D01*
G03X-6014280Y2035100I34574J-38490D01*
G02X-6025450Y2024690I-20173J10448D01*
G03X-6069010Y1991820I45629J-105766D01*
G02X-6064280Y1970000I-47989J-21825D01*
G02X-6169720I-52720J0D01*
G02X-6164990Y1991820I52719J-5D01*
G03X-6208550Y2024690I-89189J-72896D01*
G02X-6219720Y2035100I9003J20858D01*
G03X-6224320Y2042410I-45938J-23805D01*
G02X-6247000Y2037280I-22684J47589D01*
G02Y2142720I0J52720D01*
G02X-6224320Y2137590I-4J-52719D01*
G37*
G36*
G01X-6193770Y2616910D02*
G03X-6168590Y2634150I-40351J85943D01*
G02X-6169720Y2645000I51589J10857D01*
G02X-6064280I52720J0D01*
G02X-6065410Y2634150I-52719J7D01*
G03X-6040230Y2616910I65531J68703D01*
G01X-6034450D01*
G02X-6014280Y2604640I0J-22713D01*
G03X-6004270Y2591220I45930J23816D01*
G02X-5971740Y2602460I32538J-41477D01*
G02Y2497020I0J-52720D01*
G02X-6004270Y2508260I8J52717D01*
G03X-6014280Y2494840I35920J-37236D01*
G02X-6034450Y2482570I-20170J10443D01*
G01X-6199550D01*
G02X-6219720Y2494840I0J22713D01*
G03X-6227440Y2505910I-45936J-23808D01*
G02X-6256740Y2497020I-29300J43839D01*
G02Y2602460I0J52720D01*
G02X-6227440Y2593570I0J-52729D01*
G03X-6219720Y2604640I-38216J34878D01*
G02X-6199550Y2616910I20170J-10443D01*
G01X-6193770D01*
G37*
G36*
G01X-890000Y267720D02*
X-830000D01*
G02X-813700Y260830I0J-22726D01*
G03X-807420Y260030I3642J3540D01*
G02X-780000Y267720I27420J-45040D01*
G02X-727280Y215000I0J-52720D01*
G02X-741150Y179370I-52717J7D01*
G03Y165630I7492J-6870D01*
G02X-727280Y130000I-38847J-35637D01*
G02X-780000Y77280I-52720J0D01*
G02X-804850Y83510I11J52717D01*
G03X-811410Y81940I-2395J-4482D01*
G02X-830000Y72280I-18590J13058D01*
G01X-890000D01*
G02X-912720Y95000I0J22720D01*
G01Y155000D01*
G02X-907060Y170000I22706J0D01*
G02X-912720Y185000I17046J15000D01*
G01Y245000D01*
G02X-890000Y267720I22720J0D01*
G37*
G36*
G01X-710050Y1275400D02*
G02X-692610Y1336610I140053J-6814D01*
G02X-692720Y1340000I52610J3404D01*
G02X-587280I52720J0D01*
G02X-626130Y1289140I-52716J0D01*
G03X-629420Y1275110I56130J-20563D01*
G02X-617280Y1255000I-10586J-20110D01*
G01Y1195000D01*
G02X-622940Y1180000I-22706J0D01*
G02X-617280Y1165000I-17046J-15000D01*
G01Y1105000D01*
G02X-640000Y1082280I-22720J0D01*
G01X-700000D01*
G02X-722720Y1105000I0J22720D01*
G01Y1165000D01*
G02X-717060Y1180000I22706J0D01*
G02X-722720Y1195000I17046J15000D01*
G01Y1255000D01*
G02X-710700Y1275040I22716J0D01*
G03X-710050Y1275400I-13387J24938D01*
G37*
G36*
G01X-2828890Y2105910D02*
G03X-2796360Y2128090I-39567J92976D01*
G02X-2797720Y2140000I51361J11898D01*
G02X-2692280I52720J0D01*
G02X-2693640Y2128090I-52721J-12D01*
G03X-2663030Y2106750I72099J70795D01*
G02X-2615000Y2137720I48030J-21759D01*
G02X-2562280Y2085000I0J-52720D01*
G02X-2567570Y2061970I-52723J-12D01*
G03X-2559500Y2047430I9138J-4438D01*
G02X-2522240Y2025830I-5503J-52430D01*
G03X-2506400Y2025030I8240J5945D01*
G02X-2467000Y2042720I39400J-35032D01*
G02Y1937280I0J-52720D01*
G02X-2509760Y1959170I0J52709D01*
G03X-2525600Y1959970I-8240J-5945D01*
G02X-2543200Y1947000I-39396J35033D01*
G03X-2546260Y1930640I4198J-9251D01*
G02X-2537510Y1917070I-28740J-28138D01*
G02X-2522280Y1880000I-37499J-37070D01*
G02X-2627720I-52720J0D01*
G02X-2627690Y1881780I52720J2D01*
G03X-2637840Y1892280I-10154J340D01*
G01X-2647280D01*
Y1845000D01*
G02X-2670000Y1822280I-22720J0D01*
G01X-2820000D01*
G02X-2842720Y1845000I0J22720D01*
G01Y1890000D01*
G02X-2840400Y1900000I22712J0D01*
G02X-2842720Y1910000I20392J10000D01*
G01Y1955000D01*
G02X-2840400Y1965000I22712J0D01*
G02X-2842720Y1975000I20392J10000D01*
G01Y2020000D01*
G02X-2840400Y2030000I22712J0D01*
G02X-2842720Y2040000I20392J10000D01*
G01Y2085000D01*
G02X-2828890Y2105910I22722J0D01*
G37*
G36*
G01X-1112720Y3300000D02*
Y3360000D01*
G02X-1090000Y3382720I22720J0D01*
G01X-1030000D01*
G02X-1007280Y3360000I0J-22720D01*
G01Y3300000D01*
G02X-1012940Y3285000I-22706J0D01*
G02X-1007280Y3270000I-17046J-15000D01*
G01Y3210000D01*
G02X-1017500Y3191030I-22716J0D01*
G01X-1019780Y3189520D01*
Y3099080D01*
G02X-1007280Y3065000I-40208J-34080D01*
G02X-1112720I-52720J0D01*
G02X-1100220Y3099080I52708J0D01*
G01Y3189520D01*
X-1102500Y3191030D01*
G02X-1112720Y3210000I12496J18970D01*
G01Y3270000D01*
G02X-1107060Y3285000I22706J0D01*
G02X-1112720Y3300000I17046J15000D01*
G37*
G36*
G01X-1808590Y4211850D02*
G03X-1815620Y4211870I-3525J-3658D01*
G02X-1852000Y4197310I-36380J38170D01*
G02Y4302750I0J52720D01*
G02X-1815410Y4287980I0J-52708D01*
G03X-1808380Y4287960I3525J3658D01*
G02X-1772000Y4302520I36380J-38170D01*
G02Y4197080I0J-52720D01*
G02X-1808590Y4211850I0J52708D01*
G37*
G36*
G01X-2140000Y4527720D02*
X-2074100D01*
G02X-2042000Y4538620I32100J-41817D01*
G02Y4433180I0J-52720D01*
G02X-2047190Y4433440I39J52718D01*
G03X-2058020Y4420750I-1001J-10112D01*
G02X-2057280Y4415000I-21970J-5750D01*
G01Y4355000D01*
G02X-2064410Y4338470I-22726J0D01*
G02X-2057280Y4312000I-45589J-26475D01*
G02X-2162720I-52720J0D01*
G02X-2155590Y4338470I52719J-5D01*
G02X-2162720Y4355000I15596J16530D01*
G01Y4415000D01*
G02X-2157060Y4430000I22706J0D01*
G02X-2162720Y4445000I17046J15000D01*
G01Y4505000D01*
G02X-2140000Y4527720I22720J0D01*
G37*
G36*
G01X-1891970Y4471920D02*
G03Y4488080I-6159J8080D01*
G02X-1912720Y4530000I31969J41920D01*
G02X-1860000Y4582720I52720J0D01*
G02X-1818080Y4561970I0J-52719D01*
G03X-1801920I8080J6159D01*
G02X-1760000Y4582720I41920J-31969D01*
G02X-1707280Y4530000I0J-52720D01*
G02X-1728030Y4488080I-52719J0D01*
G03Y4471920I6159J-8080D01*
G02X-1707280Y4430000I-31969J-41920D01*
G02X-1760000Y4377280I-52720J0D01*
G02X-1801920Y4398030I0J52719D01*
G03X-1818080I-8080J-6159D01*
G02X-1860000Y4377280I-41920J31969D01*
G02X-1912720Y4430000I0J52720D01*
G02X-1891970Y4471920I52719J0D01*
G37*
G36*
G01X-1806020Y4680990D02*
G03X-1822980I-8480J-5596D01*
G02X-1867000Y4657280I-44020J29009D01*
G02Y4762720I0J52720D01*
G02X-1822980Y4739010I0J-52719D01*
G03X-1806020I8480J5596D01*
G02X-1762000Y4762720I44020J-29009D01*
G02Y4657280I0J-52720D01*
G02X-1806020Y4680990I0J52719D01*
G37*
G36*
G01X-1623500Y4795120D02*
G03X-1636620Y4804570I-10156J-267D01*
G02X-1652000Y4802280I-15369J50432D01*
G02Y4907720I0J52720D01*
G02X-1599300Y4856380I0J-52718D01*
G03X-1586180Y4846930I10156J267D01*
G02X-1570800Y4849220I15369J-50432D01*
G02Y4743780I0J-52720D01*
G02X-1623500Y4795120I0J52718D01*
G37*
G36*
G01X-1169920Y4924650D02*
G02X-1158880Y4975630I123259J-7D01*
G02X-1159720Y4985000I51880J9374D01*
G02X-1054280I52720J0D01*
G02X-1093120Y4934140I-52720J0D01*
G03X-1094080Y4924650I46460J-9493D01*
G01Y4849450D01*
G03X-1078440Y4840890I10160J-5D01*
G02X-1050000Y4849220I28440J-44384D01*
G02X-1041290Y4848500I27J-52722D01*
G03X-1029460Y4859000I1683J10018D01*
G02X-1029520Y4861500I52660J2515D01*
G02X-976800Y4914220I52720J0D01*
G02X-939020Y4898270I0J-52719D01*
G03X-932480Y4897650I3636J3547D01*
G02X-919500Y4901720I12980J-18663D01*
G01X-859500D01*
G02X-836780Y4879000I0J-22720D01*
G01Y4819000D01*
G02X-842440Y4804000I-22706J0D01*
G02X-836780Y4789000I-17046J-15000D01*
G01Y4729000D01*
G02X-859500Y4706280I-22720J0D01*
G01X-919500D01*
G02X-942220Y4729000I0J22720D01*
G01Y4789000D01*
G02X-941230Y4795650I22722J16D01*
G03X-950940Y4808780I-9714J2972D01*
G01X-976800D01*
G02X-985510Y4809500I-27J52722D01*
G03X-997340Y4799000I-1683J-10018D01*
G02X-997280Y4796500I-52660J-2515D01*
G02X-1050000Y4743780I-52720J0D01*
G02X-1078440Y4752110I0J52714D01*
G03X-1094080Y4743550I-5480J-8555D01*
G01Y4231420D01*
G02X-1134480Y4133900I-137918J8D01*
G01X-1144250Y4124120D01*
X-1144360Y4122180D01*
G02X-1197000Y4072280I-52640J2815D01*
G02X-1249720Y4125000I0J52720D01*
G02X-1199820Y4177640I52715J0D01*
G01X-1197880Y4177750D01*
X-1188100Y4187520D01*
G03X-1169920Y4231420I-43902J43895D01*
G01Y4924650D01*
G37*
G36*
G01X-353240Y5029080D02*
G03X-370030Y5029180I-8429J-5674D01*
G02X-413400Y5006440I-43370J29988D01*
G02Y5111880I0J52720D01*
G02X-369660Y5088580I-6J-52717D01*
G03X-352870Y5088480I8429J5674D01*
G02X-309500Y5111220I43370J-29988D01*
G02Y5005780I0J-52720D01*
G02X-353240Y5029080I6J52717D01*
G37*
G36*
G01X-806550Y896580D02*
X-802250Y900880D01*
X-802140Y902820D01*
G02X-749500Y952720I52640J-2815D01*
G02X-696780Y900000I0J-52720D01*
G02X-746680Y847360I-52715J0D01*
G01X-748620Y847250D01*
X-758290Y837580D01*
G03X-762570Y827250I10329J-10331D01*
G03X-758290Y816920I14609J1D01*
G01X-739090Y797720D01*
X-710000D01*
G02X-687280Y775000I0J-22720D01*
G01Y625000D01*
G02X-710000Y602280I-22720J0D01*
G01X-770000D01*
G02X-792720Y625000I0J22720D01*
G01Y744090D01*
X-809940Y761310D01*
G03X-827280Y754130I-7181J-7186D01*
G01Y715000D01*
G02X-832940Y700000I-22706J0D01*
G02X-827280Y685000I-17046J-15000D01*
G01Y625000D01*
G02X-850000Y602280I-22720J0D01*
G01X-910000D01*
G02X-932720Y625000I0J22720D01*
G01Y685000D01*
G02X-927060Y700000I22706J0D01*
G02X-932720Y715000I17046J15000D01*
G01Y775000D01*
G02X-920920Y794920I22714J0D01*
G03X-917920Y796830I-13461J24454D01*
G01Y867380D01*
G02X-929220Y900000I41432J32620D01*
G02X-876500Y952720I52720J0D01*
G02X-823870Y903150I0J-52724D01*
G03X-806550Y896580I10139J614D01*
G37*
G36*
G01X-2909160Y1700200D02*
G02X-2915830Y1699780I-6642J52302D01*
G02Y1805220I0J52720D01*
G02X-2873730Y1784230I0J-52715D01*
G02X-2842320Y1764060I-42108J-100114D01*
G01X-2840860Y1762720D01*
X-2815000D01*
G02X-2798670Y1755800I0J-22728D01*
G03X-2782260Y1758360I7303J7063D01*
G02X-2735000Y1787720I47260J-23357D01*
G02X-2704690Y1778130I-8J-52718D01*
G03X-2697790Y1779130I2920J4159D01*
G02X-2680000Y1787720I17790J-14127D01*
G01X-2620000D01*
G02X-2605000Y1782060I0J-22706D01*
G02X-2590000Y1787720I15000J-17046D01*
G01X-2530000D01*
G02X-2507280Y1765000I0J-22720D01*
G01Y1705000D01*
G02X-2530000Y1682280I-22720J0D01*
G01X-2590000D01*
G02X-2605000Y1687940I0J22706D01*
G02X-2620000Y1682280I-15000J17046D01*
G01X-2680000D01*
G02X-2697790Y1690870I0J22717D01*
G03X-2704690Y1691870I-3980J-3159D01*
G02X-2735000Y1682280I-30318J43128D01*
G02X-2774510Y1700090I0J52730D01*
G03X-2792280Y1693360I-7611J-6728D01*
G01Y1680000D01*
G02X-2797940Y1665000I-22706J0D01*
G02X-2792280Y1650000I-17046J-15000D01*
G01Y1590000D01*
G02X-2799300Y1573580I-22713J0D01*
G02X-2792280Y1547300I-45699J-26285D01*
G02X-2897720I-52720J0D01*
G02X-2890700Y1573580I52719J-5D01*
G02X-2897720Y1590000I15693J16420D01*
G01Y1650000D01*
G02X-2892060Y1665000I22706J0D01*
G02X-2897720Y1680000I17046J15000D01*
G01Y1690120D01*
G03X-2909160Y1700200I-10158J3D01*
G37*
G36*
G01X-2077280Y2634760D02*
G02X-2060000Y2642720I17274J-14763D01*
G01X-1960000D01*
G02X-1937280Y2620000I0J-22720D01*
G01Y2530000D01*
G02X-1950040Y2509580I-22719J0D01*
G03X-1967170Y2497170I26958J-55239D01*
G02X-1962280Y2475000I-47829J-22174D01*
G02X-1970570Y2446630I-52718J8D01*
G03X-1950040Y2430420I47483J39032D01*
G02X-1937280Y2410000I-9959J-20420D01*
G01Y2320000D01*
G02X-1960000Y2297280I-22720J0D01*
G01X-2060000D01*
G02X-2077280Y2305240I-6J22723D01*
G03X-2092720I-7720J-6596D01*
G02X-2110000Y2297280I-17274J14763D01*
G01X-2210000D01*
G02X-2227280Y2305240I-6J22723D01*
G03X-2242720I-7720J-6596D01*
G02X-2260000Y2297280I-17274J14763D01*
G01X-2360000D01*
G02X-2377280Y2305240I-6J22723D01*
G03X-2392720I-7720J-6596D01*
G02X-2410000Y2297280I-17274J14763D01*
G01X-2510000D01*
G02X-2532720Y2320000I0J22720D01*
G01Y2410000D01*
G02X-2519960Y2430420I22719J0D01*
G03X-2501190Y2444590I-26965J55235D01*
G02X-2507720Y2470000I46189J25414D01*
G02X-2501190Y2495410I52719J-4D01*
G03X-2519960Y2509580I-45735J-41065D01*
G02X-2532720Y2530000I9959J20420D01*
G01Y2620000D01*
G02X-2510000Y2642720I22720J0D01*
G01X-2410000D01*
G02X-2392720Y2634760I6J-22723D01*
G03X-2377280I7720J6596D01*
G02X-2360000Y2642720I17274J-14763D01*
G01X-2260000D01*
G02X-2242720Y2634760I6J-22723D01*
G03X-2227280I7720J6596D01*
G02X-2210000Y2642720I17274J-14763D01*
G01X-2110000D01*
G02X-2092720Y2634760I6J-22723D01*
G03X-2077280I7720J6596D01*
G37*
G36*
G01X-1332040Y3877740D02*
G02X-1344540Y3911820I40208J34080D01*
G02X-1291820Y3964540I52720J0D01*
G02X-1243480Y3932860I0J-52721D01*
G03X-1228270Y3928630I9319J4049D01*
G02X-1197690Y3938410I30586J-42938D01*
G02X-1144970Y3885690I0J-52720D01*
G02X-1147610Y3869200I-52722J-16D01*
G03X-1134790Y3856380I9648J-3172D01*
G02X-1118300Y3859020I16474J-50082D01*
G02X-1065580Y3806300I0J-52720D01*
G02X-1108520Y3754500I-52714J0D01*
G03X-1114830Y3738510I1886J-9984D01*
G02X-1104660Y3707380I-42559J-31130D01*
G02X-1157380Y3654660I-52720J0D01*
G02X-1199120Y3675180I0J52712D01*
G02X-1218510Y3685190I41732J104623D01*
G02X-1244250Y3689690I-9669J20562D01*
G01X-1286670Y3732110D01*
G02X-1293280Y3746720I16064J16068D01*
G02X-1307890Y3753330I1458J22674D01*
G01X-1350310Y3795750D01*
G02Y3827890I16064J16070D01*
G01X-1332040Y3846160D01*
Y3877740D01*
G37*
G36*
G01X-717920Y4954870D02*
G02X-732720Y4991500I37930J36630D01*
G02X-627280I52720J0D01*
G02X-640780Y4956270I-52719J0D01*
G01X-642080Y4954820D01*
Y4941870D01*
G03X-625150Y4934290I10160J-4D01*
G02X-590000Y4947720I35150J-39284D01*
G02X-537280Y4895000I0J-52720D01*
G02X-538590Y4883330I-52719J9D01*
G02X-532080Y4846720I-99680J-36609D01*
G01Y4663070D01*
G03X-515570Y4655140I10159J0D01*
G02X-482600Y4666720I32970J-41145D01*
G02Y4561280I0J-52720D01*
G02X-515570Y4572860I0J52725D01*
G03X-532080Y4564930I-6351J-7930D01*
G01Y3526630D01*
G02X-517280Y3490000I-37930J-36630D01*
G02X-570000Y3437280I-52720J0D01*
G02X-576940Y3437740I9J52719D01*
G03X-586950Y3422390I-1330J-10072D01*
G02X-579280Y3395000I-45051J-27385D01*
G02X-632000Y3447720I-52720J0D01*
G02X-625060Y3447260I-9J-52719D01*
G03X-615050Y3462610I1330J10072D01*
G02X-622720Y3490000I45051J27385D01*
G02X-607920Y3526630I52730J0D01*
G01Y3622200D01*
G03X-626000Y3628560I-10159J-1D01*
G02X-710000Y3588280I-84000J67447D01*
G02Y3803720I0J107720D01*
G02X-626000Y3763440I0J-107727D01*
G03X-607920Y3769800I7921J6361D01*
G01Y3876200D01*
G03X-626000Y3882560I-10159J-1D01*
G02X-710000Y3842280I-84000J67447D01*
G02X-751380Y3850550I12J107718D01*
G01X-754520Y3851850D01*
X-825900Y3780480D01*
G03X-844080Y3736580I43902J-43895D01*
G01Y3646420D01*
G03X-825900Y3602520I62082J-5D01*
G01X-741120Y3517750D01*
X-739180Y3517640D01*
G02X-689280Y3465000I-2815J-52640D01*
G02X-742000Y3412280I-52720J0D01*
G02X-794640Y3462180I0J52715D01*
G01X-794750Y3464120D01*
X-879520Y3548900D01*
G02X-919920Y3646420I97518J97528D01*
G01Y3736580D01*
G02X-879520Y3834100I137918J-8D01*
G01X-808150Y3905480D01*
X-809450Y3908620D01*
G02X-817720Y3950000I99448J41392D01*
G02X-710000Y4057720I107720J0D01*
G02X-626000Y4017440I0J-107727D01*
G03X-607920Y4023800I7921J6361D01*
G01Y4130200D01*
G03X-626000Y4136560I-10159J-1D01*
G02X-710000Y4096280I-84000J67447D01*
G02Y4311720I0J107720D01*
G02X-626000Y4271440I0J-107727D01*
G03X-607920Y4277800I7921J6361D01*
G01Y4845310D01*
X-610980Y4846630D01*
G02X-625150Y4855710I20995J48361D01*
G03X-642080Y4848130I-6770J-7576D01*
G01Y4786420D01*
G02X-682480Y4688900I-137918J8D01*
G01X-742250Y4629120D01*
X-742360Y4627180D01*
G02X-795000Y4577280I-52640J2815D01*
G02X-847720Y4630000I0J52720D01*
G02X-797820Y4682640I52715J0D01*
G01X-795880Y4682750D01*
X-736100Y4742520D01*
G03X-717920Y4786420I-43902J43895D01*
G01Y4954870D01*
G37*
G36*
G01X-1224520Y5071100D02*
X-1129750Y5165880D01*
X-1129640Y5167820D01*
G02X-1077000Y5217720I52640J-2815D01*
G02X-1024280Y5165000I0J-52720D01*
G02X-1074180Y5112360I-52715J0D01*
G01X-1076120Y5112250D01*
X-1170900Y5017480D01*
G03X-1189080Y4973580I43902J-43895D01*
G01Y4471420D01*
G02X-1229480Y4373900I-137918J8D01*
G01X-1535900Y4067480D01*
G03X-1554080Y4023580I43902J-43895D01*
G01Y3121420D01*
G02X-1594480Y3023900I-137918J8D01*
G01X-1758000Y2860380D01*
G03X-1758370Y2860000I44293J-43498D01*
G03X-1751120Y2842720I7247J-7120D01*
G01X-1324280D01*
Y2693220D01*
G03X-1306940Y2686030I10160J-2D01*
G01X-1245660Y2747310D01*
Y2781560D01*
G02X-1232420Y2813540I45223J8D01*
G01X-1098980Y2946980D01*
G02X-1067000Y2960220I31972J-31983D01*
G01X-864070D01*
X-518380Y3305920D01*
G02X-486400Y3319160I31972J-31983D01*
G01X-484130D01*
X-458610Y3344680D01*
G03X-461060Y3360850I-7186J7182D01*
G02X-489220Y3407500I24560J46650D01*
G02X-436500Y3460220I52720J0D01*
G02X-389490Y3431370I0J-52726D01*
G03X-374650Y3427610I9061J4595D01*
G02X-348900Y3435660I25750J-37159D01*
G01X-249100D01*
G02X-217120Y3422420I8J-45223D01*
G01X-211550Y3416840D01*
X-132800D01*
G03X-105540Y3424110I-10J54779D01*
G02X-55500Y3460220I50040J-16617D01*
G02X-2780Y3407500I0J-52720D01*
G02X-45200Y3355800I-52715J0D01*
G02X-49960Y3352340I-87748J115713D01*
G03Y3335660I5793J-8340D01*
G02X-45200Y3332200I-82988J-119173D01*
G02X-2780Y3280500I-10295J-51700D01*
G02X-55500Y3227780I-52720J0D01*
G02X-105540Y3263890I0J52727D01*
G03X-132800Y3271160I-27270J-47509D01*
G01X-246080D01*
X-246400Y3266420D01*
G02X-299000Y3217280I-52600J3582D01*
G02X-341640Y3239000I0J52715D01*
G03X-357050Y3240210I-8221J-5971D01*
G01X-402850Y3194410D01*
X-399260Y3190810D01*
G02X-383780Y3153500I-37237J-37316D01*
G02X-436500Y3100780I-52720J0D01*
G02X-479140Y3122500I0J52715D01*
G03X-494550Y3123710I-8221J-5971D01*
G01X-709450Y2908810D01*
G03X-702930Y2891490I7185J-7183D01*
G02X-602280Y2784000I-7072J-107490D01*
G02X-817720I-107720J0D01*
G02X-816100Y2802620I107721J8D01*
G03X-826100Y2814540I-10005J1761D01*
G01X-1025380D01*
X-1099980Y2739940D01*
Y2436800D01*
G02X-1113220Y2404820I-45223J-8D01*
G01X-1324280Y2193770D01*
Y1847280D01*
X-1554280D01*
Y1499770D01*
G03X-1535980Y1496620I18308J51629D01*
G01X-1383330D01*
X-726590Y2153360D01*
G03X-731730Y2170490I-7186J7180D01*
G02X-817720Y2276000I21736J105510D01*
G02X-710000Y2383720I107720J0D01*
G02X-604490Y2297730I0J-107726D01*
G03X-587360Y2292590I9950J2046D01*
G01X-521680Y2358280D01*
G02X-497530Y2370840I31974J-31981D01*
G03X-489310Y2382730I-1761J10004D01*
G02X-490220Y2392500I51812J9753D01*
G02X-384780I52720J0D01*
G02X-385570Y2383430I-52718J22D01*
G03X-375560Y2371520I10009J-1749D01*
G01X-371610D01*
G03X-361570Y2383270I4J10161D01*
G02X-362220Y2391500I52068J8253D01*
G02X-256780I52720J0D01*
G02X-269110Y2357620I-52712J0D01*
G01X-272100Y2354050D01*
X-227770Y2309720D01*
X-209640D01*
X-208470Y2310380D01*
G02X-182500Y2317220I25970J-45881D01*
G02Y2211780I0J-52720D01*
G02X-184210Y2211810I70J52719D01*
G03X-191720Y2194470I-325J-10155D01*
G01X-187300Y2190050D01*
X-185050Y2190160D01*
G02X-182500Y2190220I2515J-52661D01*
G02Y2084780I0J-52720D01*
G02X-213270Y2094690I0J52725D01*
G02X-230680Y2105520I14560J42815D01*
G01X-246180Y2121030D01*
G03X-262680Y2117910I-7187J-7180D01*
G02X-311000Y2086280I-48320J21093D01*
G02X-363720Y2139000I0J52720D01*
G02X-332090Y2187320I52723J0D01*
G03X-328970Y2203820I-4060J9313D01*
G01X-350230Y2225080D01*
X-447770D01*
X-1309420Y1363420D01*
G02X-1341400Y1350180I-31972J31983D01*
G01X-1535980D01*
G03X-1554280Y1347030I8J-54779D01*
G01Y1123510D01*
G03X-1535940Y1117480I10160J-3D01*
G02X-1522420Y1133200I111028J-81816D01*
G01X-1178100Y1477520D01*
G02X-1080580Y1517920I97528J-97518D01*
G01X-1036630D01*
G02X-1000000Y1532720I36630J-37930D01*
G02X-947280Y1480000I0J-52720D01*
G02X-962080Y1443370I-52730J0D01*
G01Y1276830D01*
G03X-959080Y1274920I16461J22544D01*
G02X-947280Y1255000I-10914J-19920D01*
G01Y1195000D01*
G02X-952940Y1180000I-22706J0D01*
G02X-947280Y1165000I-17046J-15000D01*
G01Y1105000D01*
G02X-970000Y1082280I-22720J0D01*
G01X-1030000D01*
G02X-1052720Y1105000I0J22720D01*
G01Y1165000D01*
G02X-1047060Y1180000I22706J0D01*
G02X-1052720Y1195000I17046J15000D01*
G01Y1255000D01*
G02X-1040920Y1274920I22714J0D01*
G03X-1037920Y1276830I-13461J24454D01*
G01Y1325260D01*
G03X-1048080Y1335420I-10161J-1D01*
G02X-1055260Y1338390I-2J10158D01*
G01X-1063790Y1346920D01*
G03X-1080590Y1343010I-7183J-7184D01*
G02X-1081700Y1340050I-49897J17023D01*
G01X-1082080Y1339120D01*
Y1276830D01*
G03X-1079080Y1274920I16461J22544D01*
G02X-1067280Y1255000I-10914J-19920D01*
G01Y1195000D01*
G02X-1072940Y1180000I-22706J0D01*
G02X-1067280Y1165000I-17046J-15000D01*
G01Y1105000D01*
G02X-1090000Y1082280I-22720J0D01*
G01X-1150000D01*
G02X-1172720Y1105000I0J22720D01*
G01Y1165000D01*
G02X-1167060Y1180000I22706J0D01*
G02X-1172720Y1195000I17046J15000D01*
G01Y1239630D01*
G03X-1190060Y1246810I-10159J-6D01*
G01X-1215900Y1220980D01*
G03X-1234080Y1177080I43902J-43895D01*
G01Y916420D01*
G02X-1274480Y818900I-137918J8D01*
G01X-1313890Y779480D01*
G02X-1304280Y735000I-98111J-44475D01*
G02X-1412000Y627280I-107720J0D01*
G02X-1471230Y645030I6J107718D01*
G03X-1486980Y636540I-5589J-8486D01*
G01Y635320D01*
G03X-1468800Y591420I62082J-5D01*
G01X-1456520Y579150D01*
X-1453380Y580450D01*
G02X-1412000Y588720I41392J-99448D01*
G02X-1519720Y481000I0J-107720D01*
G02X-1511450Y522380I107718J-12D01*
G01X-1510150Y525520D01*
X-1522420Y537800D01*
G02X-1562820Y635320I97518J97528D01*
G01Y927280D01*
X-2039720D01*
Y1888800D01*
G03X-2055340Y1897370I-10160J1D01*
G03X-2084080Y1845000I33344J-52370D01*
G01Y1681630D01*
G02X-2069280Y1645000I-37930J-36630D01*
G02X-2174720I-52720J0D01*
G02X-2159920Y1681630I52730J0D01*
G01Y1845000D01*
G02X-2157580Y1870300I137920J2D01*
G03X-2167960Y1882320I-9987J1868D01*
G02X-2170000Y1882280I-2053J52680D01*
G02X-2202740Y1893680I0J52713D01*
G01X-2204130Y1894780D01*
X-2209520D01*
X-2211030Y1892500D01*
G02X-2230000Y1882280I-18970J12496D01*
G01X-2290000D01*
G02X-2312720Y1905000I0J22720D01*
G01Y1965000D01*
G02X-2307060Y1980000I22706J0D01*
G02X-2312720Y1995000I17046J15000D01*
G01Y2055000D01*
G02X-2290000Y2077720I22720J0D01*
G01X-2218600D01*
G02X-2170000Y2110020I48600J-20413D01*
G02X-2118180Y2067000I0J-52720D01*
G03X-2112620Y2062890I4992J938D01*
G02X-2106720Y2063220I5890J-52391D01*
G02X-2058660Y2032170I0J-52719D01*
G03X-2040140I9260J4181D01*
G02X-1992080Y2063220I48060J-21669D01*
G02X-1939360Y2010500I0J-52720D01*
G02X-1941420Y1995890I-52722J-16D01*
G03X-1931660Y1982920I9761J-2812D01*
G01X-1902000D01*
G03X-1882020Y2002900I0J19980D01*
G01Y2152890D01*
G03X-1893770Y2162930I-10161J4D01*
G02X-1902000Y2162280I-8253J52068D01*
G02X-1931530Y2171330I5J52719D01*
G03X-1939820Y2159570I38483J-35930D01*
G02X-1960000Y2147280I-20180J10423D01*
G01X-2060000D01*
G02X-2080180Y2159570I0J22713D01*
G03X-2080520Y2160210I-46663J-24379D01*
G03X-2089480I-4480J-2396D01*
G03X-2089820Y2159570I46323J-25019D01*
G02X-2110000Y2147280I-20180J10423D01*
G01X-2210000D01*
G02X-2230180Y2159570I0J22713D01*
G03X-2230520Y2160210I-46663J-24379D01*
G03X-2239480I-4480J-2396D01*
G03X-2239820Y2159570I46323J-25019D01*
G02X-2260000Y2147280I-20180J10423D01*
G01X-2360000D01*
G02X-2380180Y2159570I0J22713D01*
G03X-2380520Y2160210I-46663J-24379D01*
G03X-2389480I-4480J-2396D01*
G03X-2389820Y2159570I46323J-25019D01*
G02X-2410000Y2147280I-20180J10423D01*
G01X-2510000D01*
G02X-2530180Y2159570I0J22713D01*
G03X-2542010Y2174780I-46771J-24172D01*
G01X-2557870D01*
X-2559260Y2173680D01*
G02X-2592000Y2162280I-32740J41313D01*
G02Y2267720I0J52720D01*
G02X-2559260Y2256320I0J-52713D01*
G01X-2557870Y2255220D01*
X-2542010D01*
G03X-2530180Y2270430I-34941J39382D01*
G02X-2510000Y2282720I20180J-10423D01*
G01X-2410000D01*
G02X-2389820Y2270430I0J-22713D01*
G03X-2389480Y2269790I46663J24379D01*
G03X-2380520I4480J2396D01*
G03X-2380180Y2270430I-46323J25019D01*
G02X-2360000Y2282720I20180J-10423D01*
G01X-2260000D01*
G02X-2239820Y2270430I0J-22713D01*
G03X-2239480Y2269790I46663J24379D01*
G03X-2230520I4480J2396D01*
G03X-2230180Y2270430I-46323J25019D01*
G02X-2210000Y2282720I20180J-10423D01*
G01X-2110000D01*
G02X-2089820Y2270430I0J-22713D01*
G03X-2089480Y2269790I46663J24379D01*
G03X-2080520I4480J2396D01*
G03X-2080180Y2270430I-46323J25019D01*
G02X-2060000Y2282720I20180J-10423D01*
G01X-1960000D01*
G02X-1939820Y2270430I0J-22713D01*
G03X-1931530Y2258670I46773J24170D01*
G02X-1902000Y2267720I29535J-43669D01*
G02X-1893770Y2267070I-23J-52718D01*
G03X-1882020Y2277110I1589J10036D01*
G01Y2649810D01*
G02X-1880200Y2667700I89118J-29D01*
G03X-1884020Y2673670I-4978J1022D01*
G02X-1906080Y2684780I12023J51329D01*
G01X-1927990D01*
G03X-1939820Y2669570I34941J-39382D01*
G02X-1960000Y2657280I-20180J10423D01*
G01X-2060000D01*
G02X-2080180Y2669570I0J22713D01*
G03X-2080520Y2670210I-46663J-24379D01*
G03X-2089480I-4480J-2396D01*
G03X-2089820Y2669570I46323J-25019D01*
G02X-2110000Y2657280I-20180J10423D01*
G01X-2210000D01*
G02X-2230180Y2669570I0J22713D01*
G03X-2230520Y2670210I-46663J-24379D01*
G03X-2239480I-4480J-2396D01*
G03X-2239820Y2669570I46323J-25019D01*
G02X-2260000Y2657280I-20180J10423D01*
G01X-2360000D01*
G02X-2380180Y2669570I0J22713D01*
G03X-2380520Y2670210I-46663J-24379D01*
G03X-2389480I-4480J-2396D01*
G03X-2389820Y2669570I46323J-25019D01*
G02X-2410000Y2657280I-20180J10423D01*
G01X-2510000D01*
G02X-2530180Y2669570I0J22713D01*
G03X-2542010Y2684780I-46771J-24172D01*
G01X-2567920D01*
G02X-2602000Y2672280I-34080J40208D01*
G02Y2777720I0J52720D01*
G02X-2567920Y2765220I0J-52708D01*
G01X-2542010D01*
G03X-2530180Y2780430I-34941J39382D01*
G02X-2510000Y2792720I20180J-10423D01*
G01X-2410000D01*
G02X-2389820Y2780430I0J-22713D01*
G03X-2389480Y2779790I46663J24379D01*
G03X-2380520I4480J2396D01*
G03X-2380180Y2780430I-46323J25019D01*
G02X-2360000Y2792720I20180J-10423D01*
G01X-2260000D01*
G02X-2239820Y2780430I0J-22713D01*
G03X-2239480Y2779790I46663J24379D01*
G03X-2230520I4480J2396D01*
G03X-2230180Y2780430I-46323J25019D01*
G02X-2210000Y2792720I20180J-10423D01*
G01X-2110000D01*
G02X-2089820Y2780430I0J-22713D01*
G03X-2089480Y2779790I46663J24379D01*
G03X-2080520I4480J2396D01*
G03X-2080180Y2780430I-46323J25019D01*
G02X-2060000Y2792720I20180J-10423D01*
G01X-1988690D01*
G03X-1981140Y2809690I6J10162D01*
G02X-1994720Y2845000I39137J35318D01*
G02X-1889280I52720J0D01*
G02X-1931780Y2793280I-52720J0D01*
G03X-1938610Y2778220I1964J-9969D01*
G03X-1927990Y2765220I45561J26382D01*
G01X-1906080D01*
G02X-1872000Y2777720I34080J-40208D01*
G02X-1863770Y2777070I-23J-52718D01*
G03X-1852020Y2787110I1589J10036D01*
G01Y2816480D01*
G02X-1811620Y2914000I137918J-8D01*
G01X-1648100Y3077520D01*
G03X-1629920Y3121420I-43902J43895D01*
G01Y3323030D01*
G03X-1643900Y3332440I-10160J-4D01*
G02X-1663700Y3328580I-19800J48852D01*
G02X-1692650Y3337240I0J52719D01*
G03X-1708340Y3329760I-5581J-8489D01*
G02X-1760800Y3282280I-52460J5241D01*
G02Y3387720I0J52720D01*
G02X-1731850Y3379060I0J-52719D01*
G03X-1716160Y3386540I5581J8489D01*
G02X-1710950Y3404680I52458J-5248D01*
G03X-1712670Y3411140I-4557J2246D01*
G02X-1722720Y3430000I12671J18860D01*
G01Y3439500D01*
G03X-1735650Y3449270I-10160J-4D01*
G02X-1750000Y3447280I-14348J50730D01*
G02X-1802720Y3500000I0J52720D01*
G02X-1788290Y3536240I52722J0D01*
G03X-1789910Y3551590I-7382J6981D01*
G02X-1812720Y3595000I29902J43410D01*
G02X-1760000Y3647720I52720J0D01*
G02X-1721240Y3630730I0J-52707D01*
G02X-1668040Y3603860I-35171J-135736D01*
G01X-1666640Y3602720D01*
X-1629920D01*
Y4023580D01*
G02X-1589520Y4121100I137918J-8D01*
G01X-1283100Y4427520D01*
G03X-1264920Y4471420I-43902J43895D01*
G01Y4811720D01*
G03X-1281290Y4819770I-10161J6D01*
G02X-1313500Y4808780I-32217J41728D01*
G02Y4914220I0J52720D01*
G02X-1281290Y4903230I-7J-52718D01*
G03X-1264920Y4911280I6209J8044D01*
G01Y4973580D01*
G02X-1224520Y5071100I137918J-8D01*
G37*
G54D42*
X-1003500Y580000D03*
X-1203200Y705000D03*
X-436500Y740500D03*
X-309500Y613500D03*
Y867500D03*
X-182500Y740500D03*
X-55500Y613500D03*
Y867500D03*
X-2890000Y1215000D03*
X-309500Y1248500D03*
X-182500Y1121500D03*
X-309000Y1121000D03*
X-55500Y1248500D03*
X-3787010Y1655000D03*
X-3307300Y1630000D03*
X-436500Y1629500D03*
X-182500D03*
X-309500D03*
X-52500Y1632500D03*
X-2377400Y1900400D03*
X-977380Y2172380D03*
X-1110000Y2130000D03*
X-182500Y1883500D03*
X-436500D03*
X-59000Y2141000D03*
X-55500Y2010500D03*
X-1041020Y2348980D03*
X-1194070Y2214070D03*
X-182500Y2391500D03*
Y2518500D03*
X-55500Y2391500D03*
X-2570000Y2870000D03*
X-1909590Y2984590D03*
X-182500Y2772500D03*
X-436500Y2645500D03*
X-309500Y2899500D03*
X-182500Y2645500D03*
X-58800Y2775800D03*
X-58000Y2902000D03*
X-1970000Y3340000D03*
X-1842000Y3251300D03*
X-1767300Y3095000D03*
X-655360Y3273360D03*
X-182500Y3153500D03*
X-55500Y3026500D03*
Y3153500D03*
X-1985000Y3612700D03*
X-309500Y3661500D03*
X-55500D03*
X-436500Y3915500D03*
X-182500D03*
X-309500D03*
X-55500D03*
X-2070000Y4647000D03*
X-1439200Y4669750D03*
X-309500Y4296500D03*
X-182500D03*
Y4550500D03*
X-51000Y4419000D03*
X-55880Y4551680D03*
X-53340Y4676140D03*
X-309500Y4804500D03*
X-182500Y5058500D03*
X-55500Y4804500D03*
Y4931500D03*
X-1972700Y5125000D03*
X-1757000Y5160000D03*
X-1627000Y5190000D03*
X-1307600Y5186500D03*
X-713600Y5190000D03*
X-319000Y5249000D03*
X-182500Y5185500D03*
X-4612000Y2130000D03*
X-4262000Y2095000D03*
X-4922000Y2525000D03*
X-3847000Y2485000D03*
X-4919700Y2885000D03*
Y2735000D03*
X-3857000Y2885000D03*
X-3847000Y2635000D03*
X-4762000Y3192700D03*
X-4927000Y3035000D03*
X-4612000Y3192700D03*
X-4412000Y3190000D03*
X-4262000D03*
X-4112000Y3192700D03*
X-3854300Y3035000D03*
G54D41*
X-1023000Y-110000D03*
X-769000D03*
X-710000Y2530000D03*
G54D40*
X-5547000Y1745000D03*
%LPD*%
G75*
G36*
G01X-6107850Y1970160D02*
G02X-6034450Y2045550I128037J-51231D01*
G01X-6117000Y2093750D01*
X-6199550Y2045550D01*
G02X-6126150Y1970160I-54637J-126621D01*
G03X-6107850I9150J11890D01*
G37*
G36*
G01X-6241500Y2081720D02*
G02X-6199550Y2045550I-24157J-70429D01*
G01X-6113250Y2090000D01*
X-6199550Y2134450D01*
G02X-6241500Y2098280I-66107J34259D01*
G03Y2081720I12510J-8280D01*
G37*
G36*
G01X-5992500Y2098280D02*
G02X-6034450Y2134450I24157J70429D01*
G01X-6120750Y2090000D01*
X-6034450Y2045550D01*
G02X-5992500Y2081720I66107J-34259D01*
G03Y2098280I-12510J8280D01*
G37*
G36*
G01X-6241500Y2541460D02*
G02X-6199550Y2505290I-24157J-70429D01*
G01X-6113250Y2549740D01*
X-6199550Y2594190D01*
G02X-6241500Y2558020I-66107J34259D01*
G03Y2541460I12510J-8280D01*
G37*
G36*
G01X-5992500Y2558020D02*
G02X-6034450Y2594190I24157J70429D01*
G01X-6120750Y2549740D01*
X-6034450Y2505290D01*
G02X-5992500Y2541460I66107J-34259D01*
G03Y2558020I-12510J8280D01*
G37*
G36*
G01X-6125650Y2657260D02*
G02X-6189030Y2594170I-108473J45591D01*
G01X-6117000Y2545990D01*
X-6044970Y2594170D01*
G02X-6108350Y2657260I45093J108681D01*
G03X-6125650I-8650J-12260D01*
G37*
G36*
G01X-2838300Y1561590D02*
G02X-2815000Y1590000I49030J-16452D01*
G01X-2845000Y1623750D01*
X-2875000Y1590000D01*
G02X-2851700Y1561590I-25730J-44862D01*
G03X-2838300I6700J13420D01*
G37*
G36*
G01X-2708410Y1728300D02*
G02X-2680000Y1705000I-16452J-49030D01*
G01X-2646250Y1735000D01*
X-2680000Y1765000D01*
G02X-2708410Y1741700I-44862J25730D01*
G03Y1728300I13420J-6700D01*
G37*
G36*
G01X-2648280Y2067240D02*
G02X-2670000Y2085000I14341J39700D01*
G01X-2748750Y2062500D01*
X-2670000Y2040000D01*
G02X-2648280Y2057760I36061J-21940D01*
G03Y2067240I-14230J4740D01*
G37*
G36*
G01X-2753870Y2152100D02*
G02X-2820000Y2085000I-114582J46788D01*
G01X-2745000Y2058750D01*
X-2670000Y2085000D01*
G02X-2736130Y2152100I48452J113888D01*
G03X-2753870I-8870J-12100D01*
G37*
G36*
G01X-2648280Y2002240D02*
G02X-2670000Y2020000I14341J39700D01*
G01X-2748750Y1997500D01*
X-2670000Y1975000D01*
G02X-2648280Y1992760I36061J-21940D01*
G03Y2002240I-14230J4740D01*
G37*
G36*
G01Y1937240D02*
G02X-2670000Y1955000I14341J39700D01*
G01X-2748750Y1932500D01*
X-2670000Y1910000D01*
G02X-2648280Y1927760I36061J-21940D01*
G03Y1937240I-14230J4740D01*
G37*
G36*
G01X-2203980Y2034850D02*
G02X-2230010Y2055000I14209J45243D01*
G01X-2263740Y2024690D01*
X-2230010Y1995000D01*
G02X-2203500Y2023260I50011J-20350D01*
G03X-2203980Y2034850I-14061J5223D01*
G37*
G36*
G01X-2201590Y1941700D02*
G02X-2230000Y1965000I16452J49030D01*
G01X-2263750Y1935000D01*
X-2230000Y1905000D01*
G02X-2201590Y1928300I44862J-25730D01*
G03Y1941700I-13420J6700D01*
G37*
G36*
G01X-2252470Y2206680D02*
G02X-2210000Y2170000I-24486J-71278D01*
G01X-2156250Y2215000D01*
X-2210000Y2260000D01*
G02X-2252470Y2223320I-66956J34598D01*
G03Y2206680I12480J-8320D01*
G37*
G36*
G01X-2552470D02*
G02X-2510000Y2170000I-24486J-71278D01*
G01X-2456250Y2215000D01*
X-2510000Y2260000D01*
G02X-2552470Y2223320I-66956J34598D01*
G03Y2206680I12480J-8320D01*
G37*
G36*
G01X-2367530Y2223320D02*
G02X-2410000Y2260000I24486J71278D01*
G01X-2463750Y2215000D01*
X-2410000Y2170000D01*
G02X-2367530Y2206680I66956J-34598D01*
G03Y2223320I-12480J8320D01*
G37*
G36*
G01X-2217530D02*
G02X-2260000Y2260000I24486J71278D01*
G01X-2313750Y2215000D01*
X-2260000Y2170000D01*
G02X-2217530Y2206680I66956J-34598D01*
G03Y2223320I-12480J8320D01*
G37*
G36*
G01X-2402470Y2206680D02*
G02X-2360000Y2170000I-24486J-71278D01*
G01X-2306250Y2215000D01*
X-2360000Y2260000D01*
G02X-2402470Y2223320I-66956J34598D01*
G03Y2206680I12480J-8320D01*
G37*
G36*
G01X-2452410Y2482530D02*
G02X-2410000Y2530000I79326J-28191D01*
G01X-2460000Y2578180D01*
X-2510000Y2530000D01*
G02X-2467590Y2482530I-36916J-75661D01*
G03X-2452410I7590J10180D01*
G37*
G36*
G01X-2467590Y2457470D02*
G02X-2510000Y2410000I-79326J28191D01*
G01X-2460000Y2361820D01*
X-2410000Y2410000D01*
G02X-2452410Y2457470I36916J75661D01*
G03X-2467590I-7590J-10180D01*
G37*
G36*
G01X-2302410Y2482530D02*
G02X-2260000Y2530000I79326J-28191D01*
G01X-2310000Y2578180D01*
X-2360000Y2530000D01*
G02X-2317590Y2482530I-36916J-75661D01*
G03X-2302410I7590J10180D01*
G37*
G36*
G01X-2317590Y2457470D02*
G02X-2360000Y2410000I-79326J28191D01*
G01X-2310000Y2361820D01*
X-2260000Y2410000D01*
G02X-2302410Y2457470I36916J75661D01*
G03X-2317590I-7590J-10180D01*
G37*
G36*
G01X-2252470Y2716680D02*
G02X-2210000Y2680000I-24486J-71278D01*
G01X-2156250Y2725000D01*
X-2210000Y2770000D01*
G02X-2252470Y2733320I-66956J34598D01*
G03Y2716680I12480J-8320D01*
G37*
G36*
G01X-2552470D02*
G02X-2510000Y2680000I-24486J-71278D01*
G01X-2456250Y2725000D01*
X-2510000Y2770000D01*
G02X-2552470Y2733320I-66956J34598D01*
G03Y2716680I12480J-8320D01*
G37*
G36*
G01X-2367530Y2733320D02*
G02X-2410000Y2770000I24486J71278D01*
G01X-2463750Y2725000D01*
X-2410000Y2680000D01*
G02X-2367530Y2716680I66956J-34598D01*
G03Y2733320I-12480J8320D01*
G37*
G36*
G01X-2217530D02*
G02X-2260000Y2770000I24486J71278D01*
G01X-2313750Y2725000D01*
X-2260000Y2680000D01*
G02X-2217530Y2716680I66956J-34598D01*
G03Y2733320I-12480J8320D01*
G37*
G36*
G01X-2402470Y2716680D02*
G02X-2360000Y2680000I-24486J-71278D01*
G01X-2306250Y2725000D01*
X-2360000Y2770000D01*
G02X-2402470Y2733320I-66956J34598D01*
G03Y2716680I12480J-8320D01*
G37*
G36*
G01X-2017000Y1900000D02*
X-1577000D01*
Y1721620D01*
G02X-1594060Y1714170I-10159J5D01*
G03X-1609500Y1720220I-15440J-16677D01*
G01X-1670560D01*
G02X-1680270Y1733350I4J10158D01*
G03X-1679280Y1740000I-21732J6634D01*
G01Y1845000D01*
G03X-1702000Y1867720I-22720J0D01*
G01X-1922000D01*
G03X-1944720Y1845000I0J-22720D01*
G01Y1740000D01*
G03X-1922000Y1717280I22720J0D01*
G01X-1740940D01*
G02X-1731230Y1704150I-4J-10158D01*
G03X-1732220Y1697500I21732J-6634D01*
G01Y1592500D01*
G03X-1731230Y1585850I22722J-16D01*
G02X-1740940Y1572720I-9714J-2972D01*
G01X-1922000D01*
G03X-1944720Y1550000I0J-22720D01*
G01Y1445000D01*
G03X-1941150Y1432780I22718J6D01*
G03X-1949720Y1415000I14159J-17780D01*
G01Y1310000D01*
G03X-1927000Y1287280I22720J0D01*
G01X-1745940D01*
G02X-1736230Y1274150I-4J-10158D01*
G03X-1737220Y1267500I21732J-6634D01*
G01Y1162500D01*
G03X-1736230Y1155850I22722J-16D01*
G02X-1745940Y1142720I-9714J-2972D01*
G01X-1927000D01*
G03X-1949720Y1120000I0J-22720D01*
G01Y1015000D01*
G03X-1927000Y992280I22720J0D01*
G01X-1707000D01*
G03X-1684280Y1015000I0J22720D01*
G01Y1120000D01*
G03X-1685270Y1126650I-22722J16D01*
G02X-1675560Y1139780I9714J2972D01*
G01X-1614500D01*
G03X-1591780Y1162500I0J22720D01*
G01Y1267500D01*
G03X-1603340Y1287290I-22720J0D01*
G02X-1605530Y1303320I4995J8847D01*
G01X-1594340Y1314510D01*
G02X-1577000Y1307320I7180J-7188D01*
G01Y950000D01*
X-2017000D01*
Y1900000D01*
G37*
G36*
G01X-1917530Y2223320D02*
G02X-1960000Y2260000I24486J71278D01*
G01X-2013750Y2215000D01*
X-1960000Y2170000D01*
G02X-1917530Y2206680I66956J-34598D01*
G03Y2223320I-12480J8320D01*
G37*
G36*
G01X-2102470Y2206680D02*
G02X-2060000Y2170000I-24486J-71278D01*
G01X-2006250Y2215000D01*
X-2060000Y2260000D01*
G02X-2102470Y2223320I-66956J34598D01*
G03Y2206680I12480J-8320D01*
G37*
G36*
G01X-2067530Y2223320D02*
G02X-2110000Y2260000I24486J71278D01*
G01X-2163750Y2215000D01*
X-2110000Y2170000D01*
G02X-2067530Y2206680I66956J-34598D01*
G03Y2223320I-12480J8320D01*
G37*
G36*
G01X-2017590Y2457470D02*
G02X-2060000Y2410000I-79326J28191D01*
G01X-2010000Y2361820D01*
X-1960000Y2410000D01*
G02X-2002410Y2457470I36916J75661D01*
G03X-2017590I-7590J-10180D01*
G37*
G36*
G01X-2002410Y2482530D02*
G02X-1960000Y2530000I79326J-28191D01*
G01X-2010000Y2578180D01*
X-2060000Y2530000D01*
G02X-2017590Y2482530I-36916J-75661D01*
G03X-2002410I7590J10180D01*
G37*
G36*
G01X-2152410D02*
G02X-2110000Y2530000I79326J-28191D01*
G01X-2160000Y2578180D01*
X-2210000Y2530000D01*
G02X-2167590Y2482530I-36916J-75661D01*
G03X-2152410I7590J10180D01*
G37*
G36*
G01X-2167590Y2457470D02*
G02X-2210000Y2410000I-79326J28191D01*
G01X-2160000Y2361820D01*
X-2110000Y2410000D01*
G02X-2152410Y2457470I36916J75661D01*
G03X-2167590I-7590J-10180D01*
G37*
G36*
G01X-1917530Y2733320D02*
G02X-1960000Y2770000I24486J71278D01*
G01X-2013750Y2725000D01*
X-1960000Y2680000D01*
G02X-1917530Y2716680I66956J-34598D01*
G03Y2733320I-12480J8320D01*
G37*
G36*
G01X-2102470Y2716680D02*
G02X-2060000Y2680000I-24486J-71278D01*
G01X-2006250Y2725000D01*
X-2060000Y2770000D01*
G02X-2102470Y2733320I-66956J34598D01*
G03Y2716680I12480J-8320D01*
G37*
G36*
G01X-2067530Y2733320D02*
G02X-2110000Y2770000I24486J71278D01*
G01X-2163750Y2725000D01*
X-2110000Y2680000D01*
G02X-2067530Y2716680I66956J-34598D01*
G03Y2733320I-12480J8320D01*
G37*
G36*
G01X-2103300Y4326590D02*
G02X-2080000Y4355000I49030J-16452D01*
G01X-2110000Y4388750D01*
X-2140000Y4355000D01*
G02X-2116700Y4326590I-25730J-44862D01*
G03X-2103300I6700J13420D01*
G37*
G36*
G01X-2051710Y4481340D02*
G02X-2080000Y4505000I16108J48003D01*
G01X-2113180Y4475000D01*
X-2080000Y4445000D01*
G02X-2051710Y4468660I44398J-24343D01*
G03Y4481340I-11000J6340D01*
G37*
G36*
G01X-1674790Y1314640D02*
G02X-1714500Y1267500I-79590J26750D01*
G01X-1664500Y1210000D01*
X-1614500Y1267500D01*
G02X-1654210Y1314640I39880J73890D01*
G03X-1674790I-10290J-17150D01*
G37*
G36*
G01X-1679280Y1445000D02*
Y1464800D01*
G02X-1661940Y1471990I10160J2D01*
G01X-1638670Y1448710D01*
G03X-1618300Y1431770I102654J102721D01*
G02Y1415030I-5763J-8370D01*
G03X-1638670Y1398090I82284J-119661D01*
G01X-1666940Y1369810D01*
G02X-1684280Y1377000I-7180J7188D01*
G01Y1415000D01*
G03X-1687850Y1427220I-22718J-6D01*
G03X-1679280Y1445000I-14159J17780D01*
G37*
G36*
G01X-1649210Y1545360D02*
G02X-1609500Y1592500I79590J-26750D01*
G01X-1659500Y1650000D01*
X-1709500Y1592500D01*
G02X-1669790Y1545360I-39880J-73890D01*
G03X-1649210I10290J17150D01*
G37*
G36*
G01X-1776180Y2816480D02*
G02X-1776080Y2820000I62080J-2D01*
G01X-1347000D01*
Y2645970D01*
X-1351850Y2641120D01*
G02X-1366900Y2641870I-7186J7182D01*
G03X-1384500Y2650220I-17600J-14374D01*
G01X-1445560D01*
G02X-1455270Y2663350I4J10158D01*
G03X-1454280Y2670000I-21732J6634D01*
G01Y2775000D01*
G03X-1477000Y2797720I-22720J0D01*
G01X-1697000D01*
G03X-1719720Y2775000I0J-22720D01*
G01Y2670000D01*
G03X-1697000Y2647280I22720J0D01*
G01X-1515940D01*
G02X-1506230Y2634150I-4J-10158D01*
G03X-1507220Y2627500I21732J-6634D01*
G01Y2522500D01*
G03X-1506230Y2515850I22722J-16D01*
G02X-1515940Y2502720I-9714J-2972D01*
G01X-1697000D01*
G03X-1719720Y2480000I0J-22720D01*
G01Y2375000D01*
G03X-1716400Y2363180I22719J5D01*
G02X-1717320Y2356780I-4339J-2642D01*
G03X-1724720Y2340000I15325J-16780D01*
G01Y2235000D01*
G03X-1702000Y2212280I22720J0D01*
G01X-1520940D01*
G02X-1511230Y2199150I-4J-10158D01*
G03X-1512220Y2192500I21732J-6634D01*
G01Y2087500D01*
G03X-1511230Y2080850I22722J-16D01*
G02X-1520940Y2067720I-9714J-2972D01*
G01X-1702000D01*
G03X-1724720Y2045000I0J-22720D01*
G01Y1940000D01*
G03X-1702000Y1917280I22720J0D01*
G01X-1482000D01*
G03X-1459280Y1940000I0J22720D01*
G01Y2045000D01*
G03X-1460270Y2051650I-22722J16D01*
G02X-1450560Y2064780I9714J2972D01*
G01X-1389500D01*
G03X-1366780Y2087500I0J22720D01*
G01Y2149790D01*
G02X-1347000Y2146520I9620J-3268D01*
G01Y1870000D01*
X-1787000D01*
Y2679660D01*
G03X-1776180Y2722210I-78299J42561D01*
G01Y2816480D01*
G37*
G36*
G01X-1347000Y2526550D02*
Y2298950D01*
X-1430730Y2215220D01*
X-1450560D01*
G02X-1460270Y2228350I4J10158D01*
G03X-1459280Y2235000I-21732J6634D01*
G01Y2340000D01*
G03X-1462600Y2351820I-22719J-5D01*
G02X-1461680Y2358220I4339J2642D01*
G03X-1454280Y2375000I-15325J16780D01*
G01Y2480000D01*
G03X-1455270Y2486650I-22722J16D01*
G02X-1445560Y2499780I9714J2972D01*
G01X-1384500D01*
G03X-1364220Y2512260I0J22718D01*
G02X-1355960Y2524750I57238J-28877D01*
G01X-1354440Y2526550D01*
X-1347000D01*
G37*
G36*
G01X-1336720Y2585040D02*
G02X-1384500Y2627500I29738J81578D01*
G01X-1439500Y2575000D01*
X-1384500Y2522500D01*
G02X-1336720Y2564960I77518J-39118D01*
G03Y2585040I-17300J10040D01*
G37*
G36*
G01X-1653680Y3397550D02*
G02X-1640000Y3430000I49891J-1924D01*
G01X-1670460Y3463720D01*
X-1700000Y3430000D01*
G02X-1671290Y3395770I-29203J-53649D01*
G03X-1653680Y3397550I7587J12940D01*
G37*
G36*
G01X-1006340Y1283290D02*
G02X-1030000Y1255000I-48003J16108D01*
G01X-1000000Y1221820D01*
X-970000Y1255000D01*
G02X-993660Y1283290I24343J44398D01*
G03X-1006340I-6340J-11000D01*
G37*
G36*
G01X-1126340D02*
G02X-1150000Y1255000I-48003J16108D01*
G01X-1120000Y1221820D01*
X-1090000Y1255000D01*
G02X-1113660Y1283290I24343J44398D01*
G03X-1126340I-6340J-11000D01*
G37*
G36*
G01X-1053300Y3181590D02*
G02X-1030000Y3210000I49030J-16452D01*
G01X-1060000Y3243750D01*
X-1090000Y3210000D01*
G02X-1066700Y3181590I-25730J-44862D01*
G03X-1053300I6700J13420D01*
G37*
G36*
G01X-1182980Y3713750D02*
G02X-1185760Y3748180I44510J20921D01*
G01X-1230930Y3750730D01*
X-1228180Y3705760D01*
G02X-1191050Y3705380I18066J-48926D01*
G03X-1182980Y3713750I-5919J13782D01*
G37*
G36*
G01X-801590Y131700D02*
G02X-830000Y155000I16452J49030D01*
G01X-863750Y125000D01*
X-830000Y95000D01*
G02X-801590Y118300I44862J-25730D01*
G03Y131700I-13420J6700D01*
G37*
G36*
G01Y221700D02*
G02X-830000Y245000I16452J49030D01*
G01X-863750Y215000D01*
X-830000Y185000D01*
G02X-801590Y208300I44862J-25730D01*
G03Y221700I-13420J6700D01*
G37*
G36*
G01X-886340Y803290D02*
G02X-910000Y775000I-48003J16108D01*
G01X-880000Y741820D01*
X-850000Y775000D01*
G02X-873660Y803290I24343J44398D01*
G03X-886340I-6340J-11000D01*
G37*
G36*
G01X-676190Y1282250D02*
G02X-700000Y1255000I-47830J17765D01*
G01X-670000Y1221250D01*
X-640000Y1255000D01*
G02X-663810Y1282250I24020J45015D01*
G03X-676190I-6190J-13670D01*
G37*
G36*
G01X-947910Y4842300D02*
G02X-919500Y4819000I-16452J-49030D01*
G01X-885750Y4849000D01*
X-919500Y4879000D01*
G02X-947910Y4855700I-44862J25730D01*
G03Y4842300I13420J-6700D01*
G37*
G54D10*
X-6152000Y1320000D03*
X-5962000Y1460000D03*
X-6332000D03*
X-5962000Y2090000D03*
X-6247000D03*
X-6117000Y1970000D03*
X-5971740Y2549740D03*
X-6256740D03*
X-6117000Y2645000D03*
X-5635000Y910000D03*
X-5849710Y800400D03*
X-5760110Y890000D03*
X-5660000Y1080000D03*
X-5940000Y1030000D03*
X-5587000Y2060000D03*
X-5787000Y1910000D03*
X-5937000Y2310000D03*
X-5737000D03*
X-5945000Y2820000D03*
X-5580000Y2815000D03*
X-5587000Y2610000D03*
X-5787000Y2710000D03*
X-5952000Y3245000D03*
X-5622000Y3230000D03*
X-5597000Y3660000D03*
X-5947000Y3670000D03*
X-5525000Y822300D03*
X-5510000Y1402000D03*
X-5382000Y1920000D03*
X-5467000Y2005000D03*
X-5175000Y1780000D03*
X-5172000Y2510000D03*
X-5187000Y2900000D03*
Y2730000D03*
X-5437000Y2610000D03*
X-5321310Y2779310D03*
X-5400700Y2858700D03*
X-5162000Y3155000D03*
X-5437000Y3292700D03*
Y3411590D03*
X-5315000Y3530000D03*
X-4786000Y1221000D03*
X-5077000Y1745000D03*
X-5032380Y1937620D03*
X-5082000Y2110000D03*
X-4902000Y2070000D03*
X-4987400Y1834600D03*
X-4922000Y2525000D03*
X-5072000Y2315000D03*
X-4952000Y2295000D03*
X-4919700Y2885000D03*
Y2735000D03*
X-4762000Y3192700D03*
X-4897000Y3185000D03*
X-4927000Y3035000D03*
X-4890000Y3530000D03*
X-4920000Y3660000D03*
X-4750000Y3555000D03*
X-4962700Y5762500D03*
Y6057500D03*
X-4642000Y1370000D03*
X-4637000Y1490000D03*
X-4612000Y2130000D03*
X-4554100Y1997900D03*
X-4585750Y2593750D03*
X-4453250D03*
X-4320750D03*
X-4585750Y2461250D03*
X-4453250D03*
X-4320750D03*
Y2726250D03*
X-4453250D03*
X-4585750D03*
Y2858750D03*
X-4453250D03*
X-4320750D03*
X-4612000Y3192700D03*
X-4412000Y3190000D03*
X-4700000Y3625000D03*
X-4362000Y3455000D03*
X-4645000Y3460000D03*
X-4432000Y3688100D03*
X-4620000Y3564830D03*
Y3675790D03*
X-4667500Y5762500D03*
X-4527500Y5910000D03*
X-4652500Y6057500D03*
X-4035000Y990000D03*
X-4050000Y1472000D03*
X-4160000D03*
X-4262000Y2095000D03*
X-4188250Y2593750D03*
Y2461250D03*
Y2726250D03*
Y2858750D03*
X-4262000Y3190000D03*
X-4022000Y3385000D03*
X-4112000Y3192700D03*
X-4242000Y3455000D03*
X-3917000Y5520000D03*
X-3745000Y1095000D03*
X-3787010Y1655000D03*
X-3557000Y1755000D03*
X-3767000Y1535000D03*
X-3857000Y1755000D03*
X-3510000Y1530000D03*
X-3650000Y1920000D03*
X-3810000Y1880000D03*
X-3505000Y1825000D03*
X-3500000Y2070000D03*
X-3617000Y2210000D03*
X-3599300Y2486440D03*
X-3847000Y2485000D03*
X-3560000Y2330000D03*
X-3857000Y2885000D03*
X-3847000Y2635000D03*
X-3567000Y2675000D03*
X-3727000Y2870000D03*
X-3597000Y3005000D03*
X-3854300Y3035000D03*
X-3550000Y4254500D03*
X-3581400Y4156300D03*
X-3550000Y4381500D03*
Y4572000D03*
X-3830000Y4530000D03*
Y4420000D03*
X-3550000Y4826000D03*
Y4980000D03*
Y4699000D03*
X-3607040Y4894030D03*
X-3677000Y5060000D03*
X-3590000Y5930900D03*
X-3760000Y5850000D03*
X-3859500Y5840500D03*
X-3590000Y6045200D03*
X-3804200Y6117900D03*
X-3405000Y1705000D03*
X-3307300Y1630000D03*
X-3048500Y1603500D03*
X-3180000Y1775000D03*
X-3047500Y1867500D03*
X-3315000Y1905200D03*
Y2015000D03*
X-3237000Y2285000D03*
X-3200000Y2545000D03*
X-3407000Y2275000D03*
X-3342000Y2190000D03*
X-3237000Y2675000D03*
X-3187000Y3005000D03*
X-3255000Y3550000D03*
X-3063290Y3584560D03*
X-3172000Y3585000D03*
X-3225800Y4254500D03*
X-3240000Y4572000D03*
X-3225800Y4381500D03*
X-3240000Y4699000D03*
Y4953000D03*
X-3122000Y5105000D03*
X-3240000Y4820000D03*
X-3400000Y5588250D03*
X-2890000Y1215000D03*
X-2845000Y1547300D03*
X-2735000Y1735000D03*
X-2915830Y1752500D03*
X-2962000Y1645000D03*
X-2745000Y2140000D03*
X-2615000Y2085000D03*
X-2977000Y2285000D03*
X-2985000Y3530000D03*
X-2959100Y4241800D03*
X-2971800Y4419600D03*
X-2722700Y4650000D03*
X-2730000Y4416820D03*
X-2781300Y4584700D03*
X-2796000Y5502100D03*
Y5797100D03*
X-2910000Y5649600D03*
X-2792700Y6082500D03*
X-2910000Y6230000D03*
X-2792700Y6377500D03*
X-2565000Y1995000D03*
X-2575000Y1880000D03*
X-2467000Y1990000D03*
X-2377400Y1900400D03*
X-2592000Y2215000D03*
X-2455000Y2470000D03*
X-2305000D03*
X-2602000Y2725000D03*
X-2570000Y2870000D03*
Y3130000D03*
X-2520000Y3340000D03*
X-2431000Y3201000D03*
X-2590000Y3540000D03*
X-2580000Y4064100D03*
X-2362000Y4388100D03*
X-2566600Y4957700D03*
X-2258010Y5041300D03*
X-2482100Y5502100D03*
X-2210000Y5297300D03*
Y5642700D03*
X-2270000Y5758200D03*
X-2240000Y6140000D03*
X-2492500Y6377500D03*
X-1982000Y980000D03*
X-1987000Y1435000D03*
X-2122000Y1645000D03*
X-2170000Y2057300D03*
X-1982000Y1860000D03*
X-2170000Y1935000D03*
X-2106720Y2010500D03*
X-1992080D03*
X-1902000Y2215000D03*
X-2015000Y2475000D03*
X-2165000D03*
X-1872000Y2725000D03*
X-1909590Y2984590D03*
X-1942000Y2845000D03*
X-1970000Y3340000D03*
X-2050000Y3190000D03*
X-1842000Y3251300D03*
X-1985000Y3612700D03*
X-1852000Y4250030D03*
X-1927380Y4261990D03*
X-2110000Y4312000D03*
X-1860000Y4530000D03*
Y4430000D03*
X-1810000Y4480000D03*
X-1937000Y4625000D03*
X-2070000Y4647000D03*
X-2042000Y4485900D03*
X-2137300Y5102450D03*
X-2130000Y4770000D03*
X-1867000Y4710000D03*
X-1972700Y5125000D03*
X-2060000Y5297300D03*
X-1910000D03*
X-2060000Y5642700D03*
X-1910000D03*
X-1612000Y985000D03*
X-1657000Y1420000D03*
X-1422140Y2032440D03*
X-1632000Y1850000D03*
X-1752000Y1900000D03*
X-1382000Y1905000D03*
X-1757000Y2355000D03*
X-1427000Y2340000D03*
X-1402000Y2770000D03*
X-1752000Y2780000D03*
X-1647000Y2925000D03*
X-1663700Y3381300D03*
X-1767300Y3095000D03*
X-1760800Y3335000D03*
X-1750000Y3500000D03*
X-1760000Y3595000D03*
X-1772000Y4249800D03*
X-1694800Y4260000D03*
X-1439200Y4669750D03*
X-1760000Y4530000D03*
Y4430000D03*
X-1687000Y4625000D03*
X-1570800Y4796500D03*
X-1762000Y4710000D03*
X-1652000Y4855000D03*
X-1498600Y5500400D03*
X-1757000Y5160000D03*
X-1627000Y5190000D03*
X-1575000Y5715000D03*
X-1520000Y5905000D03*
X-1700000Y5765360D03*
Y5880000D03*
X-1565000Y6200000D03*
Y5970000D03*
X-1700000Y6134640D03*
Y6020000D03*
X-1498600Y6380400D03*
X-1003500Y580000D03*
X-1203200Y705000D03*
X-1000000Y1480000D03*
X-1130500Y1360000D03*
X-977380Y2172380D03*
X-1110000Y2130000D03*
X-1041020Y2348980D03*
X-1070000Y2445000D03*
X-1194070Y2214070D03*
X-1080000Y2680000D03*
X-1060000Y3065000D03*
X-980000Y3381300D03*
X-1157380Y3707380D03*
X-1118300Y3806300D03*
X-1291820Y3911820D03*
X-1197000Y4125000D03*
X-1197690Y3885690D03*
X-1050000Y4796500D03*
X-976800Y4861500D03*
X-1313500D03*
X-1000000Y4730000D03*
X-1107000Y4985000D03*
X-1307600Y5186500D03*
X-1193200Y5500400D03*
X-1077000Y5165000D03*
X-960000Y5902700D03*
X-1060000D03*
X-1193200Y5795400D03*
Y6085400D03*
Y6380400D03*
X-960000Y6490000D03*
X-1060000D03*
X-780000Y130000D03*
Y215000D03*
X-876500Y900000D03*
X-749500D03*
X-640000Y1340000D03*
Y1420000D03*
X-904100Y3035000D03*
X-655360Y3273360D03*
X-632000Y3395000D03*
X-904100Y3495000D03*
X-742000Y3465000D03*
X-570000Y3490000D03*
X-795000Y4630000D03*
X-590000Y4895000D03*
X-680000Y4991500D03*
X-713600Y5190000D03*
X-910000Y5420000D03*
X-905000Y5510000D03*
X-680000Y5825000D03*
X-620000Y5900000D03*
X-770000Y5615000D03*
X-880000Y5900000D03*
X-600220Y5665490D03*
Y5550850D03*
X-770000Y6200000D03*
X-600220Y6250490D03*
Y6135850D03*
X-895000Y6095000D03*
X-620000Y6410000D03*
Y6490000D03*
X-880000D03*
X-436500Y740500D03*
X-309500Y613500D03*
Y867500D03*
X-182500Y740500D03*
Y613500D03*
X-309500Y1248500D03*
X-182500Y1121500D03*
X-309000Y1121000D03*
X-436500Y1629500D03*
X-182500D03*
X-309500D03*
X-182500Y1883500D03*
X-436500D03*
X-311000Y2139000D03*
X-182500Y2137500D03*
Y2391500D03*
X-437500Y2392500D03*
X-309500Y2391500D03*
X-182500Y2518500D03*
Y2264500D03*
Y2772500D03*
X-436500Y2645500D03*
X-309500Y2899500D03*
X-182500Y2645500D03*
X-436500Y3407500D03*
X-182500Y3153500D03*
X-436500D03*
X-299000Y3270000D03*
X-309500Y3661500D03*
X-436500Y3915500D03*
X-182500D03*
X-309500D03*
Y4296500D03*
X-482600Y4614000D03*
X-182500Y4296500D03*
Y4550500D03*
X-309500Y4804500D03*
X-413400Y5059160D03*
X-182500Y5058500D03*
X-309500D03*
X-310000Y5430000D03*
X-182500Y5439500D03*
X-319000Y5249000D03*
X-182500Y5185500D03*
Y5312500D03*
X-309500Y5693500D03*
X-436500Y5566500D03*
X-180000Y5690000D03*
X-500000Y6305000D03*
Y6065000D03*
X-55500Y613500D03*
X198500Y867500D03*
X199500Y739500D03*
X-55500Y867500D03*
X198500Y613500D03*
X-55500Y740500D03*
X198500Y1248500D03*
X-55500D03*
X195000Y1125000D03*
X-52500Y1632500D03*
X198500Y1629500D03*
X200000Y2012000D03*
X-59000Y2141000D03*
X-55500Y2010500D03*
Y2391500D03*
X200000Y2270000D03*
X71500Y2645500D03*
X77000Y2767000D03*
X-58800Y2775800D03*
X-58000Y2902000D03*
X77500Y3147500D03*
X198000Y3408000D03*
X71500Y3280500D03*
X-55500Y3026500D03*
Y3153500D03*
Y3280500D03*
Y3407500D03*
X198500Y3661500D03*
X-55500D03*
X201500Y3918500D03*
X-55500Y3915500D03*
X198500Y4169500D03*
X71500Y4677500D03*
X200500Y4679500D03*
X198500Y4423500D03*
X-51000Y4419000D03*
X-55880Y4551680D03*
X-53340Y4676140D03*
X70000Y5060000D03*
X-55500Y4804500D03*
Y4931500D03*
X71500Y5185500D03*
Y5439500D03*
X-55500Y5312500D03*
Y5439500D03*
Y5693500D03*
X71500Y5566500D03*
X-55500D03*
X325500Y613500D03*
Y867500D03*
X452500Y740500D03*
X706500Y613500D03*
X452500D03*
Y867500D03*
X579500D03*
X325500Y740500D03*
X579500D03*
X325500Y1121500D03*
X452500Y1248500D03*
Y994500D03*
X706500D03*
X579500Y1248500D03*
X452500Y1121500D03*
X325500Y994500D03*
X706500Y1121500D03*
Y1502500D03*
X579500Y1756500D03*
X452500Y1629500D03*
X579500Y1375500D03*
X706500Y1629500D03*
X325500D03*
X452500Y1756500D03*
Y2010500D03*
X325500Y2137500D03*
X706500Y2010500D03*
X452500Y2137500D03*
X323000Y2013000D03*
X579500Y1883500D03*
X706500Y2137500D03*
X452500Y1883500D03*
X579500Y2264500D03*
X452500Y2518500D03*
X325500D03*
X328500Y2388500D03*
X579500Y2391500D03*
X706500Y2518500D03*
Y2645500D03*
X704500Y2774500D03*
X452500Y2645500D03*
X329000Y2769000D03*
X325500Y3026500D03*
X452500Y3153500D03*
X579500Y3407500D03*
X325500Y3153500D03*
X452500Y3280500D03*
X325500Y3407500D03*
X579500Y3026500D03*
X706500Y3153500D03*
Y3280500D03*
X579000Y3661000D03*
X580500Y3789500D03*
X325000Y3790000D03*
X706500Y3661500D03*
X579500Y3534500D03*
X706500Y3788500D03*
X325500Y3661500D03*
Y3534500D03*
X579500Y3915500D03*
X452500Y4042500D03*
X325500Y3915500D03*
X579500Y4042500D03*
X706500Y4169500D03*
X452500D03*
X579500D03*
X327660Y4043680D03*
X706500Y4296500D03*
X579500D03*
X706500Y4550500D03*
X579500Y4677500D03*
X325500Y4550500D03*
X580680Y4423880D03*
X453860Y4425660D03*
X453000Y4297000D03*
X329500Y4300500D03*
X325500Y4804500D03*
X579500Y4931500D03*
X706500Y4804500D03*
X325500Y5058500D03*
Y4931500D03*
X579500Y5058500D03*
X572500Y4797500D03*
X706500Y5185500D03*
X325000Y5185000D03*
X579500Y5439500D03*
X325500D03*
X706500Y5312500D03*
X326500Y5313500D03*
X578500Y5311500D03*
X577000Y5183000D03*
X706500Y5693500D03*
X326000Y5694000D03*
X577500Y5692500D03*
X325000Y5565000D03*
X579500Y5566500D03*
G54D11*
X-6152000Y1460000D03*
Y1730000D03*
G54D20*
X-5136820Y1833180D03*
X-5073180Y1896820D03*
X-1291820Y3811820D03*
X-1228180Y3748180D03*
G54D21*
X-4132000Y1265000D03*
X-3567000Y3230000D03*
G54D30*
X-2971800Y4556300D03*
Y4816300D03*
G54D12*
X-6117000Y2090000D03*
Y2549740D03*
Y2319870D03*
G54D13*
X-6090000Y3835600D03*
Y4693600D03*
X-5590000Y5260600D03*
X-5090000Y3835600D03*
X-4590000Y5260600D03*
X-4090000Y3835600D03*
Y4403600D03*
Y4943600D03*
X-3590000Y5260600D03*
X-2590000D03*
G54D22*
X-3810000Y3835600D03*
Y5260600D03*
X-3340000Y3835600D03*
Y5260600D03*
X-2840000Y3835600D03*
Y5260600D03*
X-2380000Y4068100D03*
Y4548100D03*
Y5028100D03*
G54D31*
X-2822400Y4241800D03*
X-2562400D03*
G54D14*
X-5460000Y380000D03*
X-5475000Y6050000D03*
X0Y0D03*
Y6300000D03*
G54D23*
X-3966000Y3580000D03*
X-3712000D03*
X-3458000D03*
X-3010000Y3190000D03*
X-3264000D03*
X-2756000D03*
X-1531000Y-110000D03*
X-1412000Y481000D03*
Y735000D03*
Y989000D03*
X-1023000Y-110000D03*
X-1277000D03*
X-769000D03*
X-710000Y2530000D03*
Y2276000D03*
Y2784000D03*
Y3696000D03*
Y3950000D03*
Y4204000D03*
G54D32*
X-2310000Y2575000D03*
Y2365000D03*
Y2215000D03*
X-2460000Y2575000D03*
Y2365000D03*
Y2215000D03*
X-2310000Y2725000D03*
X-2460000D03*
X-2010000Y2365000D03*
Y2215000D03*
X-2160000Y2365000D03*
Y2215000D03*
Y2575000D03*
X-2010000D03*
X-2160000Y2725000D03*
X-2010000D03*
X-1010000Y5455000D03*
Y5605000D03*
Y6180000D03*
Y6030000D03*
G54D33*
X-2210000Y5375000D03*
Y5565000D03*
X-2060000Y5375000D03*
X-1910000D03*
X-2060000Y5565000D03*
X-1910000D03*
G54D15*
X-5855000Y1030000D03*
X-5765000D03*
X-5557000Y1920000D03*
X-5467000D03*
X-3500000Y2005000D03*
Y1900000D03*
X-3714200Y6045200D03*
X-3804200D03*
X-3714200Y5930900D03*
X-3804200D03*
X-3310000Y1775000D03*
X-3400000D03*
X-3410000Y2005000D03*
Y1900000D03*
X-3062000Y2285000D03*
X-3152000D03*
X-3085000Y3470000D03*
X-3175000D03*
X-3345900Y4254500D03*
X-3435900D03*
X-3345900Y4381500D03*
X-3435900D03*
Y4572000D03*
X-3345900D03*
Y4826000D03*
X-3435900D03*
X-3345900Y4953000D03*
X-3435900D03*
Y4699000D03*
X-3345900D03*
X-2845000Y1620000D03*
Y1710000D03*
X-2650000Y1735000D03*
X-2925000Y2175000D03*
X-3015000D03*
X-2648500Y4470400D03*
Y4597400D03*
X-2560000Y1735000D03*
X-2260000Y2025000D03*
Y1935000D03*
X-2282000Y3205000D03*
X-2558500Y4470400D03*
Y4597400D03*
X-2300000Y5895000D03*
X-2410000D03*
X-2300000Y5985000D03*
X-2410000D03*
X-2192000Y3205000D03*
X-2110000Y4475000D03*
Y4385000D03*
X-2130000Y5015000D03*
Y4925000D03*
X-1800000Y5865000D03*
Y5775000D03*
Y6035000D03*
Y6125000D03*
X-1670000Y3460000D03*
Y3550000D03*
X-1120000Y1135000D03*
Y1225000D03*
X-1000000Y1135000D03*
Y1225000D03*
X-1060000Y3330000D03*
Y3240000D03*
X-860000Y125000D03*
Y215000D03*
X-880000Y655000D03*
Y745000D03*
X-740000Y655000D03*
Y745000D03*
X-670000Y1135000D03*
Y1225000D03*
X-889500Y4759000D03*
Y4849000D03*
X-795000Y5900000D03*
X-705000D03*
X-795000Y6490000D03*
X-705000D03*
G54D24*
X-3475000Y2480000D03*
X-3325000D03*
X-2716600Y4762500D03*
X-2566600D03*
G54D34*
G01X385600Y-190500D02*
Y-110500D01*
X373600Y-126500D01*
G01Y-190500D02*
X397600D01*
G54D16*
X-5547000Y1540000D03*
Y1745000D03*
X-5737000Y1630000D03*
X-4300000Y1810000D03*
X-4510000D03*
X-3997000Y1805000D03*
G54D25*
X-3543300Y2835500D03*
X-3248300D03*
G54D35*
G01X-6152000Y1460000D02*
Y1320000D01*
G01Y1460000D02*
X-5962000D01*
G01X-6152000D02*
X-6332000D01*
G01X-6117000Y2090000D02*
X-5962000D01*
G01X-6117000D02*
X-6247000D01*
G01X-6117000D02*
Y1970000D01*
G01Y2549740D02*
Y2645000D01*
G01Y2549740D02*
X-5971740D01*
G01X-6117000D02*
X-6256740D01*
G01X-5765000Y1030000D02*
X-5751420D01*
G03X-5680710Y1059290I-1J100000D01*
G01X-5660000Y1080000D01*
G01X-5855000Y1030000D02*
X-5940000D01*
G01X-5437000Y3292700D02*
Y3120020D01*
X-5547020Y3010000D01*
X-5627500D01*
G01X-5437000Y3411590D02*
X-5454680D01*
X-5488310Y3377960D01*
X-5537960D01*
X-5627500Y3467500D01*
Y3470000D01*
G01X-4035000Y990000D02*
X-4730000D01*
X-5248210Y1508210D01*
G02X-5277500Y1578920I70710J70711D01*
G01Y2011080D01*
G02X-5248210Y2081790I100000J-1D01*
G01X-5149290Y2180710D01*
G02X-5078580Y2210000I70711J-70710D01*
G01X-5078420D01*
G03X-5007710Y2239290I-1J100000D01*
G01X-4952000Y2295000D01*
G01X-5467000Y1920000D02*
X-5382000D01*
G01X-5467000D02*
Y2005000D01*
G01X-5136820Y1833180D02*
Y1818180D01*
X-5175000Y1780000D01*
G01X-5073180Y1896820D02*
X-5032380Y1937620D01*
G01X-4810000Y5762500D02*
X-4962700D01*
G01X-4810000D02*
X-4667500D01*
G01X-4810000Y6057500D02*
X-4962700D01*
G01X-4810000D02*
X-4652500D01*
G01X-3048500Y1603500D02*
X-3182710Y1469290D01*
G02X-3253420Y1440000I-70711J70710D01*
G01X-3728580D01*
G02X-3799290Y1469290I1J100000D01*
G01X-4061870Y1731870D01*
G02X-4090000Y1799780I67900J67907D01*
G01Y1839570D01*
X-4034370Y1895200D01*
X-3846690D01*
G02X-3810000Y1880000I1J-51880D01*
G01X-3500000Y1900000D02*
Y1845000D01*
X-3505000Y1840000D01*
Y1825000D01*
G01X-3500000Y2005000D02*
Y2070000D01*
G01X-3395800Y2683000D02*
Y2605620D01*
G02X-3425090Y2534910I-100000J1D01*
G01X-3475000Y2485000D01*
Y2480000D01*
G01X-3435900Y4572000D02*
X-3550000D01*
G01X-3435900Y4381500D02*
X-3550000D01*
G01X-3435900Y4254500D02*
X-3550000D01*
G01X-3435900Y4826000D02*
X-3550000D01*
G01X-3435900Y4953000D02*
G03X-3501080Y4980000I-65178J-65170D01*
G01X-3550000D01*
G01X-3435900Y4699000D02*
X-3550000D01*
G01X-3804200Y5930900D02*
G03X-3778250Y5868250I88600J-1D01*
G01X-3760000Y5850000D01*
G01X-3590000Y6045200D02*
X-3714200D01*
G01Y5930900D02*
X-3590000D01*
G01X-3804200Y6045200D02*
Y6117900D01*
G01X-3400000Y1775000D02*
X-3405000Y1770000D01*
Y1705000D01*
G01X-3185000Y1867500D02*
Y1780000D01*
X-3180000Y1775000D01*
G01X-3310000D02*
X-3180000D01*
G01X-3185000Y1867500D02*
X-3047500D01*
G01X-3185000Y1932500D02*
X-3287700D01*
X-3315000Y1905200D01*
G01D02*
X-3404800D01*
X-3410000Y1900000D01*
G01X-3185000Y1997500D02*
X-3297500D01*
X-3315000Y2015000D01*
G01D02*
X-3400000D01*
X-3410000Y2005000D01*
G01X-3185000Y2062500D02*
Y2115000D01*
X-3125000Y2175000D01*
X-3015000D01*
G01X-3062000Y2285000D02*
X-2977000D01*
G01X-3152000D02*
X-3237000D01*
G01X-3295000Y2565000D02*
X-3325000Y2535000D01*
Y2480000D01*
G01X-3085000Y3470000D02*
X-3053280Y3501720D01*
G02X-2985000Y3530000I68276J-68280D01*
G01X-3175000Y3470000D02*
X-3255000Y3550000D01*
G01X-2845000Y1620000D02*
Y1547300D01*
G01Y1710000D02*
X-2867470Y1732470D01*
G03X-2915830Y1752500I-48358J-48360D01*
G01X-2650000Y1735000D02*
X-2735000D01*
G01X-2745000Y2062500D02*
Y2140000D01*
G01Y2062500D02*
X-2637500D01*
X-2615000Y2085000D01*
G01X-2565000Y1995000D02*
X-2639800D01*
X-2642300Y1997500D01*
X-2745000D01*
G01X-2575000Y1880000D02*
Y1902500D01*
X-2605000Y1932500D01*
X-2745000D01*
G01X-2925000Y2175000D02*
X-2835000D01*
G01X-2971800Y4556300D02*
Y4419600D01*
G01X-2822400Y4241800D02*
X-2959100D01*
G01X-2730000Y4416820D02*
X-2696160Y4450660D01*
G02X-2648500Y4470400I47658J-47660D01*
G01X-2643300Y5797100D02*
X-2796000D01*
G01X-2643300Y5502100D02*
X-2796000D01*
G01X-2643300D02*
X-2482100D01*
G01X-2792700Y6082500D02*
X-2640000D01*
G01X-2792700Y6377500D02*
X-2640000D01*
G01D02*
X-2492500D01*
G01X-2590000Y1655000D02*
X-2560000Y1685000D01*
Y1735000D01*
G01X-2260000Y2025000D02*
X-2243720D01*
G03X-2173010Y2054290I-1J100000D01*
G01X-2170000Y2057300D01*
G01X-2260000Y1935000D02*
X-2170000D01*
G01X-2460000Y2215000D02*
X-2310000D01*
G01X-2460000D02*
X-2592000D01*
G01X-2310000D02*
X-2160000D01*
G01X-2460000Y2725000D02*
X-2310000D01*
G01D02*
X-2160000D01*
G01X-2460000D02*
X-2602000D01*
G01X-2282000Y3205000D02*
X-2427000D01*
X-2431000Y3201000D01*
G01X-2558500Y4597400D02*
X-2470720D01*
G02X-2400010Y4568110I-1J-100000D01*
G01X-2380000Y4548100D01*
G01X-2566600Y4762500D02*
Y4957700D01*
G01X-2410000Y5895000D02*
X-2300000D01*
G01D02*
X-2299290Y5894290D01*
G02X-2270000Y5823580I-70710J-70711D01*
G01Y5758200D01*
G01X-2410000Y5985000D02*
X-2300000D01*
G01D02*
Y6038580D01*
G02X-2270710Y6109290I100000J-1D01*
G01X-2240000Y6140000D01*
G01X-1657000Y1420000D02*
X-1705210Y1468210D01*
G03X-1775920Y1497500I-70711J-70710D01*
G01X-1812000D01*
G01X-1657000Y1420000D02*
X-1685210Y1391790D01*
G02X-1755920Y1362500I-70711J70710D01*
G01X-1817000D01*
G01X-2160000Y2215000D02*
X-2010000D01*
G01D02*
X-1902000D01*
G01X-2160000Y2725000D02*
X-2010000D01*
G01D02*
X-1872000D01*
G01X-2192000Y3205000D02*
X-2086210D01*
G02X-2050000Y3190000I2J-51200D01*
G01X-2110000Y4385000D02*
Y4312000D01*
G01X-2130000Y5015000D02*
X-2137300Y5022300D01*
Y5102450D01*
G01X-2130000Y4770000D02*
Y4925000D01*
G01X-2210000Y5565000D02*
Y5642700D01*
G01X-1910000D02*
Y5565000D01*
G01X-2060000Y5642700D02*
Y5565000D01*
G01X-1182000Y2945000D02*
G02X-1230280Y2925000I-48278J48270D01*
G01X-1647000D01*
G01X-1663700Y3381300D02*
Y3453700D01*
X-1670000Y3460000D01*
G01Y3550000D02*
X-1685710Y3565710D01*
G03X-1756420Y3595000I-70711J-70710D01*
G01X-1760000D01*
G01X-1345900Y5500400D02*
X-1498600D01*
G01X-1345900Y6380400D02*
X-1498600D01*
G01X-1060000Y3065000D02*
Y3240000D01*
G01X-1291820Y3811820D02*
Y3911820D01*
G01X-1228180Y3748180D02*
X-1208590Y3728590D01*
G03X-1157380Y3707380I51207J51210D01*
G01X-976800Y4861500D02*
X-964300Y4849000D01*
X-889500D01*
G01X-959510Y4730000D02*
X-1000000D01*
G01X-1345900Y5795400D02*
X-1193200D01*
G01X-1345900Y5500400D02*
X-1193200D01*
G01X-1345900Y6085400D02*
X-1193200D01*
G01X-1345900Y6380400D02*
X-1193200D01*
G01X-780000Y130000D02*
X-785000Y125000D01*
X-860000D01*
G01X-780000Y215000D02*
X-860000D01*
G01X-640000Y1340000D02*
X-640710Y1339290D01*
G03X-670000Y1268580I70710J-70711D01*
G01Y1225000D01*
G01X-889500Y4759000D02*
G02X-959510Y4730000I-70007J70000D01*
G01X-705000Y5900000D02*
X-620000D01*
G01X-795000D02*
X-880000D01*
G01X-705000Y6490000D02*
X-620000D01*
G01X-795000D02*
X-880000D01*
G54D17*
X-5512480Y2319870D03*
G54D26*
X-3185000Y1867500D03*
Y1932500D03*
Y1997500D03*
Y2062500D03*
X-2745000D03*
Y1997500D03*
Y1932500D03*
Y1867500D03*
G54D36*
G01X-6152000Y1730000D02*
Y1840350D01*
G01X-6313150Y1730000D02*
X-6152000D01*
G01D02*
X-5990850D01*
G01X-6313150Y1630240D02*
X-6152000Y1730000D01*
G01D02*
X-5990850Y1829760D01*
G01X-6313150D02*
X-6152000Y1730000D01*
G01D02*
X-5990850Y1630240D01*
G01X-6117000Y2247620D02*
Y2319870D01*
G01D02*
Y2392120D01*
G01X-6227350Y2319870D02*
X-6117000D01*
G01D02*
X-6006650D01*
G01X-6227350Y2260450D02*
X-6117000Y2319870D01*
G01D02*
X-6006650Y2379290D01*
G01X-6227350D02*
X-6117000Y2319870D01*
G01D02*
X-6006650Y2260450D01*
G01X-5614800Y1920000D02*
X-5557000D01*
G01X-5614800Y1862200D02*
X-5557000Y1920000D01*
G01X-5614800Y1977800D02*
X-5557000Y1920000D01*
G01X-5615800Y2120620D02*
X-5512480Y2319870D01*
G01X-5629180D02*
X-5512480D01*
G01X-5615800Y2519120D02*
X-5512480Y2319870D01*
G01X-5557000Y1862200D02*
Y1920000D01*
G01D02*
Y1977800D01*
G01X-5512480Y2120620D02*
Y2319870D01*
G01D02*
X-5409160Y2120620D01*
G01X-5512480Y2319870D02*
Y2519120D01*
G01Y2319870D02*
X-5395780D01*
G01X-5512480D02*
X-5409160Y2519120D01*
G01X-1664500Y1215000D02*
Y1308300D01*
X-1606690Y1366110D01*
G02X-1535980Y1395400I70711J-70710D01*
G01X-1341400D01*
X-466500Y2270300D01*
X-331500D01*
X-198700Y2137500D01*
X-182500D01*
G01X-1659500Y1645000D02*
Y1533500D01*
X-1606690Y1480690D01*
G03X-1535980Y1451400I70711J70710D01*
G01X-1364600D01*
X-489700Y2326300D01*
X-308300D01*
X-246500Y2264500D01*
X-182500D01*
G01X-1439500Y2140000D02*
Y2142500D01*
X-1145200Y2436800D01*
Y2758670D01*
X-1044110Y2859760D01*
X-822450D01*
X-463510Y3218700D01*
X-442510D01*
X-326010Y3335200D01*
X-271990D01*
X-253170Y3316380D01*
X-132800D01*
G02X-62090Y3287090I-1J-100000D01*
G01X-55500Y3280500D01*
G01X-1434500Y2575000D02*
X-1354020D01*
X-1200440Y2728580D01*
Y2781560D01*
X-1067000Y2915000D01*
X-845340D01*
X-486400Y3273940D01*
X-465400D01*
X-348900Y3390440D01*
X-249100D01*
X-230280Y3371620D01*
X-132800D01*
G03X-62090Y3400910I-1J100000D01*
G01X-55500Y3407500D01*
G54D18*
X-5780000Y2862500D03*
Y3322500D03*
Y3157500D03*
Y3617500D03*
X-4810000Y5762500D03*
Y6057500D03*
X-2643300Y5502100D03*
Y5797100D03*
X-2640000Y6082500D03*
Y6377500D03*
X-1817000Y1067500D03*
X-1812000Y1497500D03*
X-1817000Y1362500D03*
X-1812000Y1792500D03*
X-1592000Y1992500D03*
X-1587000Y2427500D03*
X-1592000Y2287500D03*
X-1587000Y2722500D03*
X-1345900Y5500400D03*
Y5795400D03*
Y6085400D03*
Y6380400D03*
G54D27*
X-3395800Y2683000D03*
G54D37*
G01X-3560000Y2330000D02*
X-3504290Y2385710D01*
G03X-3475000Y2456420I-70710J70711D01*
G01Y2480000D01*
G01X-1010000Y5455000D02*
X-1106380D01*
G02X-1177090Y5484290I1J100000D01*
G01X-1193200Y5500400D01*
G01X-1010000Y5455000D02*
X-986420D01*
G02X-915710Y5425710I-1J-100000D01*
G01X-910000Y5420000D01*
G01X-1060000Y5902700D02*
Y5938580D01*
G02X-1030710Y6009290I100000J-1D01*
G01X-1010000Y6030000D01*
G01X-1193400Y5647900D02*
X-1094320D01*
G02X-1023610Y5618610I-1J-100000D01*
G01X-1010000Y5605000D01*
G01X-905000Y5510000D02*
X-1000000Y5605000D01*
X-1010000D01*
G01X-960000Y5902700D02*
Y5938580D01*
G03X-989290Y6009290I-100000J-1D01*
G01X-1010000Y6030000D01*
G01X-1193400Y6232900D02*
X-1104320D01*
G02X-1033610Y6203610I-1J-100000D01*
G01X-1010000Y6180000D01*
G01X-895000Y6095000D02*
X-958790Y6158790D01*
G03X-1010000Y6180000I-51207J-51210D01*
G54D28*
X-3090000Y3835600D03*
G54D19*
X-5627500Y3010000D03*
Y3470000D03*
X-4657500Y5910000D03*
X-2795800Y5649600D03*
X-2792500Y6230000D03*
X-1664500Y1215000D03*
X-1659500Y1645000D03*
X-1439500Y2140000D03*
X-1434500Y2575000D03*
X-1193400Y5647900D03*
Y6232900D03*
G54D38*
G01X-4902000Y2070000D02*
Y1711420D01*
G03X-4872710Y1640710I100000J1D01*
G01X-4674710Y1442710D01*
X-4638960Y1427900D01*
X-4618010D01*
X-4584100Y1393990D01*
Y1383570D01*
X-4359440Y1158910D01*
G02X-4345060Y1144940I-10522J-25217D01*
G01X-4319950D01*
X-4270010Y1095000D01*
X-3745000D01*
G01X-4132000Y1265000D02*
X-4671090Y1804090D01*
G02X-4687000Y1842500I38400J38406D01*
G02X-4671090Y1880910I54310J4D01*
G01X-4554100Y1997900D01*
G01X-4657500Y5910000D02*
X-4527500D01*
G01X-3650000Y1920000D02*
X-3663490Y1933490D01*
G03X-3734200Y1962780I-70711J-70710D01*
G01X-4005800D01*
G03X-4076510Y1933490I1J-100000D01*
G01X-4141720Y1868280D01*
G03X-4170000Y1800000I68280J-68276D01*
G03X-4141720Y1731720I96560J-4D01*
G01X-3799290Y1389290D01*
G03X-3728580Y1360000I70711J70710D01*
G01X-3227940D01*
G03X-3157230Y1389290I-1J100000D01*
G01X-2991290Y1555230D01*
G03X-2962000Y1625940I-70710J70711D01*
G01Y1645000D01*
G01X-3342000Y2190000D02*
Y2220470D01*
G02X-3312710Y2291180I100000J-1D01*
G01X-2916290Y2687600D01*
G03X-2887000Y2758310I-70710J70711D01*
G01Y3245000D01*
G03X-2969750Y3327750I-82750J0D01*
G01X-3289580D01*
G03X-3360290Y3298460I1J-100000D01*
G01X-3511860Y3146890D01*
G02X-3547210Y3132250I-35351J35360D01*
G01X-3617830D01*
G02X-3688540Y3161540I1J100000D01*
G01X-3982000Y3455000D01*
X-4022000D01*
X-4222710Y3655710D01*
G02X-4252000Y3726420I70710J70711D01*
G01Y5143580D01*
G02X-4222710Y5214290I100000J-1D01*
G01X-3917000Y5520000D01*
G01X-3677000Y5060000D02*
X-3920710Y4816290D01*
G03X-3950000Y4745580I70710J-70711D01*
G01Y3819420D01*
G03X-3920710Y3748710I100000J1D01*
G01X-3868290Y3696290D01*
G02X-3839000Y3625580I-70710J-70711D01*
G01Y3543420D01*
G03X-3809710Y3472710I100000J1D01*
G01X-3567000Y3230000D01*
G01X-3458000Y3580000D02*
X-3610010Y3732010D01*
G02X-3639300Y3802720I70710J70711D01*
G01Y4297880D01*
G03X-3668590Y4368590I-100000J-1D01*
G01X-3830000Y4530000D01*
G01X-3712000Y3580000D02*
X-3702100Y3589900D01*
Y4250680D01*
G03X-3731390Y4321390I-100000J-1D01*
G01X-3830000Y4420000D01*
G01X-3240000Y4572000D02*
X-3345900D01*
G01X-3225800Y4381500D02*
X-3345900D01*
G01X-3122000Y5105000D02*
Y5070570D01*
G02X-3140420Y5026100I-62890J0D01*
G03X-3158850Y4981610I44480J-44488D01*
G01Y4489870D01*
G02X-3188140Y4419160I-100000J1D01*
G01X-3225800Y4381500D01*
G01X-3345900Y4254500D02*
X-3225800D01*
G01X-3240000Y4699000D02*
X-3345900D01*
G01Y4953000D02*
X-3240000D01*
G01X-3345900Y4826000D02*
X-3246000D01*
X-3240000Y4820000D01*
G01X-2648500Y4597400D02*
X-2661200Y4584700D01*
X-2781300D01*
G01D02*
Y4651380D01*
G02X-2752010Y4722090I100000J-1D01*
G01X-2716600Y4757500D01*
Y4762500D01*
G01D02*
X-2741110Y4787010D01*
G03X-2811820Y4816300I-70711J-70710D01*
G01X-2971800D01*
G01X-2795800Y5649600D02*
X-2910000D01*
G01Y6230000D02*
X-2792500D01*
G01X-2460000Y2365000D02*
Y2465000D01*
X-2455000Y2470000D01*
G01X-2460000Y2575000D02*
Y2475000D01*
X-2455000Y2470000D01*
G01X-2310000Y2365000D02*
Y2465000D01*
X-2305000Y2470000D01*
G01X-2310000Y2575000D02*
Y2475000D01*
X-2305000Y2470000D01*
G01X-2558500Y4470400D02*
X-2562400Y4466500D01*
Y4241800D01*
G01X-2362000Y4388100D02*
X-2434780D01*
G02X-2505490Y4417390I1J100000D01*
G01X-2558500Y4470400D01*
G01X-2122000Y1645000D02*
Y1845000D01*
G02X-2022000Y1945000I100000J0D01*
G01X-1902000D01*
G03X-1844100Y2002900I0J57900D01*
G01Y2649800D01*
G02X-1829100Y2686010I51200J2D01*
G03X-1814100Y2722220I-36200J36208D01*
G01Y2816480D01*
G02X-1784810Y2887190I100000J-1D01*
G01X-1621290Y3050710D01*
G03X-1592000Y3121420I-70710J70711D01*
G01Y4023580D01*
G02X-1562710Y4094290I100000J-1D01*
G01X-1256290Y4400710D01*
G03X-1227000Y4471420I-70710J70711D01*
G01Y4973580D01*
G02X-1197710Y5044290I100000J-1D01*
G01X-1077000Y5165000D01*
G01X-2010000Y2575000D02*
Y2480000D01*
X-2015000Y2475000D01*
G01X-2010000Y2365000D02*
Y2470000D01*
X-2015000Y2475000D01*
G01X-2160000Y2365000D02*
Y2470000D01*
X-2165000Y2475000D01*
G01X-2160000Y2575000D02*
Y2480000D01*
X-2165000Y2475000D01*
G01X-2110000Y4475000D02*
X-2052900D01*
X-2042000Y4485900D01*
G01X-2060000Y5297300D02*
Y5375000D01*
G01X-1910000D02*
Y5297300D01*
G01X-2210000D02*
Y5375000D01*
G01X-1412000Y481000D02*
X-1495610Y564610D01*
G02X-1524900Y635320I70710J70711D01*
G01Y1035680D01*
G02X-1495610Y1106390I100000J-1D01*
G01X-1151290Y1450710D01*
G02X-1080580Y1480000I70711J-70710D01*
G01X-1000000D01*
G01X-1412000Y735000D02*
X-1301290Y845710D01*
G03X-1272000Y916420I-70710J70711D01*
G01Y1177080D01*
G02X-1242710Y1247790I100000J-1D01*
G01X-1130500Y1360000D01*
G01X-1800000Y5775000D02*
X-1795000D01*
X-1785360Y5765360D01*
X-1700000D01*
G01X-1800000Y5865000D02*
X-1785000Y5880000D01*
X-1700000D01*
G01X-1800000Y6125000D02*
X-1790360Y6134640D01*
X-1700000D01*
G01X-1800000Y6035000D02*
X-1785000Y6020000D01*
X-1700000D01*
G01X-1000000Y1480000D02*
Y1225000D01*
G01X-1130500Y1360000D02*
X-1120000Y1349500D01*
Y1225000D01*
G01X-1107000Y4985000D02*
G03X-1132000Y4924650I60340J-60349D01*
G01Y4231420D01*
G02X-1161290Y4160710I-100000J1D01*
G01X-1197000Y4125000D01*
G01X-876500Y900000D02*
X-880000Y896500D01*
Y745000D01*
G01X-740000D02*
X-785100Y790100D01*
G02X-800490Y827250I37140J37149D01*
G02X-785100Y864400I52530J1D01*
G01X-749500Y900000D01*
G01X-710000Y3950000D02*
X-852710Y3807290D01*
G03X-882000Y3736580I70710J-70711D01*
G01Y3646420D01*
G03X-852710Y3575710I100000J1D01*
G01X-742000Y3465000D01*
G01X-590000Y4895000D02*
G02X-570000Y4846720I-48270J-48278D01*
G01Y3490000D01*
G01X-795000Y4630000D02*
X-709290Y4715710D01*
G03X-680000Y4786420I-70710J70711D01*
G01Y4991500D01*
G54D29*
X-2990000Y4070000D03*
Y5030000D03*
X-106500Y434500D03*
X198500Y5872500D03*
G54D39*
G01X-5780000Y2862500D02*
Y2942800D01*
G01X-5917800Y2862500D02*
X-5780000D01*
G01D02*
X-5642200D01*
G01X-5780000Y3242200D02*
Y3322500D01*
G01D02*
Y3402800D01*
G01X-5917800Y3322500D02*
X-5780000D01*
G01D02*
X-5642200D01*
G01X-5780000Y3077200D02*
Y3157500D01*
G01D02*
Y3237800D01*
G01X-5917800Y3157500D02*
X-5780000D01*
G01D02*
X-5642200D01*
G01X-5780000Y3537200D02*
Y3617500D01*
G01D02*
Y3697800D01*
G01X-5917800Y3617500D02*
X-5780000D01*
G01D02*
X-5642200D01*
G01X-3543300Y2697700D02*
Y2835500D01*
G01D02*
Y2973300D01*
G01X-3623600Y2835500D02*
X-3543300D01*
G01D02*
X-3463000D01*
G01X-3248300Y2697700D02*
Y2835500D01*
G01D02*
Y2973300D01*
G01X-3328600Y2835500D02*
X-3248300D01*
G01D02*
X-3168000D01*
G01X-2745000Y1817200D02*
Y1867500D01*
G01X-2847800D02*
X-2745000D01*
G01D02*
X-2642200D01*
G01X-2925000Y2117200D02*
Y2175000D01*
G01D02*
Y2232800D01*
G01X-2560000Y1735000D02*
Y1792800D01*
G01Y1735000D02*
X-2502200D01*
G01X-1817000Y987200D02*
Y1067500D01*
G01D02*
Y1147800D01*
G01X-1954800Y1067500D02*
X-1817000D01*
G01D02*
X-1679200D01*
G01X-1817000Y1282200D02*
Y1362500D01*
G01X-1812000Y1497500D02*
Y1577800D01*
G01X-1949800Y1497500D02*
X-1812000D01*
G01Y1712200D02*
Y1792500D01*
G01X-1954800Y1362500D02*
X-1817000D01*
G01X-1812000Y1792500D02*
Y1872800D01*
G01X-1949800Y1792500D02*
X-1812000D01*
G01D02*
X-1674200D01*
G01X-1592000Y1912200D02*
Y1992500D01*
G01D02*
Y2072800D01*
G01X-1729800Y1992500D02*
X-1592000D01*
G01D02*
X-1454200D01*
G01X-1587000Y2427500D02*
Y2507800D01*
G01X-1724800Y2427500D02*
X-1587000D01*
G01D02*
X-1449200D01*
G01X-1592000Y2207200D02*
Y2287500D01*
G01X-1729800D02*
X-1592000D01*
G01D02*
X-1454200D01*
G01X-1587000Y2642200D02*
Y2722500D01*
G01D02*
Y2802800D01*
G01X-1724800Y2722500D02*
X-1587000D01*
G01D02*
X-1449200D01*
G01X-1120000Y1077200D02*
Y1135000D01*
G01X-1177800D02*
X-1120000D01*
G01D02*
X-1062200D01*
G01X-1000000Y1077200D02*
Y1135000D01*
G01X-1057800D02*
X-1000000D01*
G01D02*
X-942200D01*
G01X-1060000Y3330000D02*
Y3387800D01*
G01X-1117800Y3330000D02*
X-1060000D01*
G01D02*
X-1002200D01*
G01X-769000Y-110000D02*
Y2800D01*
G01X-881800Y-110000D02*
X-769000D01*
G01X-880000Y597200D02*
Y655000D01*
G01X-937800D02*
X-880000D01*
G01D02*
X-822200D01*
G01X-740000Y597200D02*
Y655000D01*
G01X-797800D02*
X-740000D01*
G01D02*
X-682200D01*
G01X-670000Y1077200D02*
Y1135000D01*
G01X-727800D02*
X-670000D01*
G01D02*
X-612200D01*
G01X-889500Y4701200D02*
Y4759000D01*
G01X-947300D02*
X-889500D01*
G01D02*
X-831700D01*
M02*
