M48
METRIC
T01C.3
T02C.5
T03C.8128
T04C.8499
T05C.95
T06C1.
T07C1.05
T08C2.7
T09C1.3
T10C1.4
;LEADER: 12 
;HEADER: 
;CODE  : ASCII 
;FILE  : pc069c_25-1-6.drl for  ... layers TOP and BOTTOM
;DESIGN: pc069c_toplevel_25.brd
;T01 Holesize 1. = 0.300000 Tolerance = +0.000000/-0.000000 PLATED MM Quantity = 549
;T02 Holesize 2. = 0.500000 Tolerance = +0.000000/-0.000000 PLATED MM Quantity = 6
;T03 Holesize 3. = 0.812800 Tolerance = +0.000000/-0.000000 PLATED MM Quantity = 2
;T04 Holesize 4. = 0.849900 Tolerance = +0.000000/-0.000000 PLATED MM Quantity = 1
;T05 Holesize 5. = 0.950000 Tolerance = +0.050000/-0.050000 PLATED MM Quantity = 9
;T06 Holesize 6. = 1.000000 Tolerance = +0.000000/-0.000000 PLATED MM Quantity = 19
;T07 Holesize 7. = 1.050000 Tolerance = +0.050000/-0.050000 PLATED MM Quantity = 10
;T08 Holesize 8. = 2.700000 Tolerance = +0.000000/-0.000000 PLATED MM Quantity = 4
;T09 Holesize 9. = 1.300000 Tolerance = +0.000000/-0.000000 NON_PLATED MM Quantity = 2
;T10 Holesize 10. = 1.400000 Tolerance = +0.000000/-0.000000 NON_PLATED MM Quantity = 2
%
G90
T01
X-0610000Y1035000
X-0750000Y1035000
X-0880000Y1035000
X-1000000Y1040000
X-1120000Y1045000
X-0876500Y0576500
X-0749500Y0585500
X-1660000Y4320000
X-1620000Y4050000
X-1960000Y4320000
X-1955000Y4625000
X-1665000Y4625000
X-5400700Y2858700
X-0182500Y5312500
X-0055500Y3407500
X-0055500Y3280500
X-4620000Y3675790
X-0055500Y5566500
X-2042000Y4485900
X-0182500Y2264500
X-0182500Y2137500
X-2210000Y5297300
X-5437000Y3411590
X-5437000Y3292700
X-3337000Y2205000
X-3917000Y5520000
X-1627000Y5190000
X-4262000Y2095000
X-2258010Y5041300
X-3677000Y5060000
X-4554100Y1997900
X-2305000Y2470000
X-2455000Y2470000
X-2165000Y2475000
X-2015000Y2475000
X-3172000Y3585000
X-1197690Y3885690
X-3063290Y3584560
X-1118300Y3806300
X-5321310Y2779310
X-0182500Y5185500
X-5760110Y0890000
X-0055500Y4931500
X-5849710Y0800400
X-0055500Y4804500
X-2910000Y5649600
X-2910000Y6230000
X-3835000Y5785000
X-4790000Y3640000
X-4620000Y3564830
X-0055500Y5439500
X-1194070Y2214070
X-0182500Y2645500
X-1110000Y2130000
X-0182500Y2518500
X-1992080Y2010500
X-0055500Y3153500
X-2106720Y2010500
X-0055500Y3026500
X-2377400Y1900400
X-5077000Y1745000
X-2467000Y1990000
X-4987400Y1834600
X-0780000Y5410000
X-0800000Y5995000
X-3395800Y2580800
X0329500Y4300500
X-0600220Y5550850
X0453000Y4297000
X-0600220Y5665490
X-0604720Y6134710
X0453860Y4425660
X-0604720Y6249350
X0580680Y4423880
X-1700000Y6020000
X-0058000Y2902000
X-1700000Y6134640
X-0058800Y2775800
X-1700000Y5880000
X-0053340Y4676140
X-1700000Y5765360
X-0055880Y4551680
X-1077000Y5165000
X-2122000Y1645000
X-0055500Y2010500
X-3240000Y4820000
X-2095590Y4675300
X-0680000Y4991500
X-0795000Y4630000
X0327660Y4043680
X-2575000Y1880000
X-0632000Y3395000
X-2565000Y1995000
X-0655360Y3273360
X-4035000Y0990000
X-4952000Y2295000
X-3315000Y2015000
X-3745000Y1095000
X-4902000Y2070000
X-3315000Y1905200
X-1910000Y5297300
X-2060000Y5297300
X-1652000Y4855000
X-3225800Y4254500
X-3225800Y4381500
X-3122000Y5105000
X-1757000Y5160000
X-1842000Y3251300
X-3830000Y4420000
X-1760800Y3335000
X-3830000Y4530000
X-0590000Y4895000
X-0570000Y3490000
X0325500Y3534500
X-1107000Y4985000
X-1197000Y4125000
X0325500Y3661500
X-4215000Y3555000
X-3047500Y1867500
X-3180000Y1775000
X-2890000Y1215000
X-3540000Y2270000
X-3500000Y2070000
X-3505000Y1825000
X-3847000Y2485000
X-4112000Y3192700
X-4926990Y3076870
X-5737000Y2310000
X-5937000Y2310000
X-5787000Y1910000
X-5787000Y2710000
X-5587000Y2060000
X-5587000Y2610000
X-5437000Y2610000
X-0742000Y3465000
X-3240000Y4953000
X-2362000Y4388100
X-2722700Y4570000
X-3240000Y4699000
X-3240000Y4572000
X-0904100Y3035000
X-0980000Y3381300
X-0904100Y3495000
X-1000000Y4730000
X-1647000Y2925000
X-0055500Y0740500
X-0182500Y0613500
X-3048500Y1603500
X0452500Y1756500
X-1130500Y1360000
X-3810000Y1880000
X-3650000Y1920000
X-2962000Y1645000
X-1000000Y1480000
X0452500Y1883500
X0325500Y1375500
X-0679000Y0400000
X0452500Y1502500
X-0880000Y0318000
X0325500Y1629500
X-3235000Y2575000
X-1115000Y6095000
X-1120000Y5445000
X-3242300Y1545000
X-1800000Y3870000
X-2010000Y3870000
X-2000000Y4090000
X-1565000Y4145000
X-2055000Y4145000
X-3592700Y0610000
X-3360000Y0610000
X-3650000Y0700000
X-4190000Y0410000
X-4400000Y0490000
X-2615000Y2085000
X-2745000Y2140000
X-3599300Y2486440
X-2580000Y4064100
X-1810000Y4480000
X-1498600Y6380400
X-1498600Y5500400
X-2482100Y5502100
X-2492500Y6377500
X-4667500Y5762500
X-4652500Y6057500
X-5330000Y3660000
X-2915830Y1752500
X-3255000Y3550000
X-5327700Y3455000
X-0500000Y6065000
X-1520000Y5905000
X-1565000Y5970000
X-4645000Y3460000
X-2170000Y1935000
X-1157380Y3707380
X-5940000Y1030000
X-1760000Y4430000
X-1860000Y4430000
X-1760000Y4530000
X-1860000Y4530000
X-3557000Y1755000
X-3787010Y1655000
X-1762000Y4710000
X-1867000Y4710000
X-1942000Y2845000
X-6332000Y1460000
X-5962000Y1460000
X-6152000Y1320000
X-1982000Y1860000
X-3187000Y3005000
X-3597000Y3005000
X-5947000Y3670000
X-5597000Y3660000
X-5622000Y3230000
X-5580000Y2815000
X-5952000Y3245000
X-5945000Y2820000
X-1752000Y2780000
X-1402000Y2770000
X-1427000Y2340000
X-1382000Y1905000
X-1757000Y2355000
X-1752000Y1900000
X-1982000Y0980000
X-1612000Y0985000
X-1657000Y1420000
X-1987000Y1435000
X-1632000Y1850000
X-4188250Y2461250
R03X-0132500
X-4320750Y2593750
R02X-0132500
X-4188250Y2858750
R03X-0132500
X-4585750Y2726250
X-4453250Y2726250
X-4188250Y2726250
X-4188250Y2593750
X-4320750Y2726250
X-5467000Y2005000
X-5382000Y1920000
X-6256740Y2549740
X-5971740Y2549740
X-6117000Y2645000
X-4637000Y1490000
X-4160000Y1472000
X-4050000Y1472000
X-4786000Y1221000
X-4642000Y1370000
X-5510000Y1402000
X-3405000Y1705000
X-4242000Y3455000
X-4362000Y3455000
X-5187000Y2730000
X-5194700Y2925000
X-5172000Y2510000
X-4897000Y3185000
X-5162000Y3155000
X-4022000Y3385000
X-3727000Y2870000
X-3617000Y2210000
X-1313500Y4861500
X-5082000Y2110000
X-5072000Y2315000
X-1772000Y4249800
X-1852000Y4250030
X-1422140Y2032440
X-1902000Y2215000
X-2592000Y2215000
X-2110000Y4312000
X-2431000Y3201000
X-2520000Y3340000
X-3760000Y5850000
X-0319000Y5249000
X-2000000Y3467300
X-2590000Y3540000
X-0299000Y3270000
X-1193200Y5500400
X-1193200Y5795400
X-0770000Y5615000
X-0770000Y6200000
X-1193200Y6085400
X-1193200Y6380400
X-3581400Y4156300
X-2730000Y4416820
X-2440000Y4660000
X-1060000Y3065000
X-1307600Y5186500
X-0845200Y5248250
X-1597300Y3550000
X-1910000Y5642700
X-0976800Y4861500
X-1050000Y4796500
X-2130000Y4770000
X-0309500Y3915500
X-0311000Y2139000
X-0436500Y3153500
X0077000Y2767000
X-0309500Y2899500
X-0055500Y5312500
X-0182500Y5439500
X-0180000Y5690000
X-0436500Y5566500
X-0310000Y5430000
X-0309500Y5058500
X-0182500Y5058500
X-0413400Y5059160
X-0309500Y4804500
X-0182500Y4550500
X-0182500Y4296500
X0198500Y4169500
X-0182500Y3153500
X0071500Y3280500
X-0436500Y3407500
X-0055500Y3661500
X-0055500Y3915500
X-0051000Y4419000
X0198500Y4423500
X0325500Y4550500
X0200500Y4679500
X0071500Y4677500
X0579500Y4169500
X-3237000Y2675000
X-3567000Y2675000
X-0780000Y0215000
X-1203200Y0705000
X-1003500Y0580000
X-3804200Y6117900
X-3400000Y5588250
X-2796000Y5502100
X-2796000Y5797100
X-2792700Y6377500
X-2792700Y6082500
X0572500Y4797500
X0579500Y5058500
X0325500Y4931500
X0070000Y5060000
X0577000Y5183000
X0578500Y5311500
X0326500Y5313500
X0579500Y5566500
X0071500Y5566500
X0325000Y5565000
X-0482600Y4614000
X0579500Y4677500
X0452500Y4169500
X0706500Y4169500
X0706500Y3788500
X0579500Y3534500
X0706500Y3661500
X0706500Y3280500
X0706500Y3153500
X0579500Y3026500
X0706500Y2518500
X0579500Y2391500
X0706500Y2137500
X0579500Y1883500
X0706500Y1629500
X0706500Y1121500
X0579500Y0740500
X0325500Y0740500
X0198500Y0613500
X0200000Y2270000
X-0309500Y2391500
X-0182500Y3915500
X-0182500Y0740500
X0579500Y0867500
X0323000Y2013000
X0328500Y2388500
X0329000Y2769000
X0325500Y3407500
X0325000Y3790000
X0325500Y5058500
X-0059000Y2141000
X-0436500Y1883500
X-0309500Y1629500
X-0182500Y1629500
X0198500Y1629500
X0579500Y1375500
X0200000Y2012000
X-0309000Y1121000
X-0182500Y1121500
X0195000Y1125000
X0579500Y4042500
X0580500Y3789500
X-0436500Y3915500
X0452500Y3280500
X0452500Y2645500
X0706500Y4550500
X-0436500Y2645500
X-0182500Y2772500
X-0437500Y2392500
X0071500Y2645500
X0452500Y2137500
X0706500Y2010500
X0325500Y0994500
X-0055500Y0867500
X-0309500Y0867500
X-0309500Y0613500
X-0309500Y4296500
X0325500Y3915500
X0201500Y3918500
X0706500Y4804500
X0452500Y1629500
X0199500Y0739500
X0198000Y3408000
X0071500Y5439500
X-0182500Y1883500
X0577500Y5692500
X0706500Y5312500
X-0309500Y5693500
X-0055500Y5693500
X0326000Y5694000
X0706500Y5693500
X0325500Y5439500
X0579500Y5439500
X0325000Y5185000
X0706500Y5185500
X0579500Y4931500
X0579500Y4296500
X0452500Y4042500
X0706500Y4296500
X0579500Y3915500
X0198500Y3661500
X0579000Y3661000
X0077500Y3147500
X0325500Y3153500
X0579500Y3407500
X0452500Y3153500
X0325500Y3026500
X0704500Y2774500
X0706500Y2645500
X-0182500Y2391500
X-0055500Y2391500
X0325500Y2518500
X0452500Y2518500
X0579500Y2264500
X0325500Y2137500
X0452500Y2010500
X0579500Y1756500
X0706500Y1502500
X-0052500Y1632500
X-0436500Y1629500
X-0309500Y1248500
R02X0254000
X0452500Y1121500
X0579500Y1248500
X0198500Y0867500
X0452500Y0867500
X0706500Y0994500
X-0436500Y0740500
X-0055500Y0613500
X0452500Y0613500
X0706500Y0613500
X0325500Y4804500
X0071500Y5185500
X-2060000Y5642700
X-0309500Y3661500
X-3607040Y4894030
X-2566600Y4957700
X0452500Y0994500
X0452500Y1248500
X-0890000Y1385000
X-2040000Y3720000
X-1617300Y3720000
X-1622270Y3840000
X-3592700Y0790000
X-3367300Y0790000
X-3780000Y0530000
X-3679800Y0795000
X-5092300Y3660000
X-2845000Y1547300
X-2985000Y3530000
X-4942300Y3455000
X-0430020Y6275000
X-1575000Y5715000
X-1565000Y6200000
X-2170000Y2057300
X-1291820Y3911820
X-5660000Y1080000
X-1909590Y2984590
X-6117000Y1970000
X-6247000Y2090000
X-5962000Y2090000
X-2210000Y5642700
X-1570800Y4796500
X-4612000Y2130000
X-2602000Y2725000
X-1872000Y2725000
X-4926000Y2510000
X-3847000Y2635000
X-3857000Y2885000
X-3854300Y3035000
X-4262000Y3190000
X-4385000Y3195000
X-4612000Y3192700
X-4762000Y3192700
X-4927090Y2707100
X-4919700Y2885000
X-2050000Y3190000
X-1970000Y3340000
X-1439200Y4669750
X-0680000Y5825000
X-0629910Y6427330
X-0780000Y0130000
X0452500Y0740500
X0325500Y0867500
X0325500Y0613500
X0325500Y1121500
X-1767300Y3095000
X-1750000Y3500000
X-1663700Y3381300
X-3550000Y4254500
X-2959100Y4241800
X-3550000Y4572000
X-3550000Y4699000
X-3550000Y4381500
X-2971800Y4419600
X-2137300Y5102450
X-1972700Y5125000
X-3550000Y4980000
X-3550000Y4826000
X-3590000Y5930900
X-3590000Y6045200
X-2570000Y2870000
X-2570000Y3130000
X-2735000Y1735000
X-0640000Y1340000
X-0960000Y6490000
X-0960000Y5902700
X-0880000Y6490000
X-0632300Y6500000
X-0880000Y5900000
X-0620000Y5900000
X-2270000Y5758200
X-2240000Y6140000
X-4527500Y5910000
X-4962700Y6057500
X-4962700Y5762500
X-1060000Y6490000
X-1060000Y5902700
X-1070000Y2445000
X-1080000Y2680000
T02
X-4300000Y1810000
X-4510000Y1810000
X-3997000Y1805000
X-5547000Y1540000
X-5547000Y1745000
X-5737000Y1630000
T03
X-4132000Y1265000
X-3567000Y3230000
T04
X-3090000Y3835600
T05
X-3810000Y3835600
X-3810000Y5260600
X-3340000Y3835600
X-3340000Y5260600
X-2840000Y3835600
X-2840000Y5260600
X-2380000Y4068100
R02Y0480000
T06
X-1412000Y0989000
R02Y-0254000
X-1531000Y-0110000
R03X0254000
X-2756000Y3190000
R02X-0254000
X-3966000Y3580000
R02X0254000
X-0710000Y2784000
R02Y-0254000
X-0710000Y4204000
R02Y-0254000
T07
X-4090000Y3835600
R02X-1000000
X-5590000Y5260600
R03X1000000
X-4090000Y4403600
X-4090000Y4943600
X-6090000Y4693600
T08
X-5460000Y0380000
X0000000Y0000000
X-5475000Y6050000
X0000000Y6300000
T09
X0198500Y5872500
X-0106500Y0434500
T10
X-2990000Y4070000
X-2990000Y5030000
M30
